STARTFONT 2.1
COMMENT
COMMENT Converted from OpenType font "KH-Dot-Hibiya-24.ttf" by "otf2bdf 3.0".
COMMENT
FONT -FreeType-KH Dot Hibiya 24-Medium-R-Normal--25-180-100-100-P-235-ISO10646-1
SIZE 18 100 100
FONTBOUNDINGBOX 25 25 0 -4
STARTPROPERTIES 19
FOUNDRY "FreeType"
FAMILY_NAME "KH Dot Hibiya 24"
WEIGHT_NAME "Medium"
SLANT "R"
SETWIDTH_NAME "Normal"
ADD_STYLE_NAME ""
PIXEL_SIZE 25
POINT_SIZE 180
RESOLUTION_X 100
RESOLUTION_Y 100
SPACING "P"
AVERAGE_WIDTH 235
CHARSET_REGISTRY "ISO10646"
CHARSET_ENCODING "1"
FONT_ASCENT 21
FONT_DESCENT 3
COPYRIGHT "Copyright (c) Keitarou Hiraki, Font Silo. 1990-2015"
_OTF_FONTFILE "KH-Dot-Hibiya-24.ttf"
_OTF_PSNAME "KH-Dot-Hibiya-24"
ENDPROPERTIES
CHARS 7623
STARTCHAR 0020
ENCODING 32
SWIDTH 520 0
DWIDTH 13 0
BBX 0 0 0 0
BITMAP
ENDCHAR
STARTCHAR 0021
ENCODING 33
SWIDTH 520 0
DWIDTH 13 0
BBX 4 19 4 0
BITMAP
60
60
60
60
60
60
60
60
60
60
60
60
60
00
00
00
60
F0
60
ENDCHAR
STARTCHAR 0022
ENCODING 34
SWIDTH 520 0
DWIDTH 13 0
BBX 9 7 1 13
BITMAP
2100
7380
7380
3180
2100
4200
8400
ENDCHAR
STARTCHAR 0023
ENCODING 35
SWIDTH 520 0
DWIDTH 13 0
BBX 10 18 1 0
BITMAP
3300
3300
3300
3300
33C0
3FC0
FF00
F300
3300
3300
33C0
3FC0
FF00
F300
3300
3300
3300
3300
ENDCHAR
STARTCHAR 0024
ENCODING 36
SWIDTH 520 0
DWIDTH 13 0
BBX 10 22 1 -2
BITMAP
0800
0800
0800
3F00
6980
C980
C800
C800
6800
7C00
1F00
0B80
08C0
08C0
08C0
08C0
C980
EB00
3C00
0800
0800
0800
ENDCHAR
STARTCHAR 0025
ENCODING 37
SWIDTH 520 0
DWIDTH 13 0
BBX 10 16 1 1
BITMAP
70C0
C980
C980
9B00
9B00
7600
0600
0C00
0C00
1800
1B80
3640
3640
64C0
64C0
C380
ENDCHAR
STARTCHAR 0026
ENCODING 38
SWIDTH 520 0
DWIDTH 13 0
BBX 13 18 0 0
BITMAP
1C00
2200
6300
6300
6300
3300
3600
1C00
19E0
3840
6C40
4C40
C680
C680
C300
C300
6D98
38E0
ENDCHAR
STARTCHAR 0027
ENCODING 39
SWIDTH 520 0
DWIDTH 13 0
BBX 4 7 3 13
BITMAP
20
70
70
30
20
40
80
ENDCHAR
STARTCHAR 0028
ENCODING 40
SWIDTH 520 0
DWIDTH 13 0
BBX 6 21 4 -1
BITMAP
04
08
10
30
20
60
60
60
C0
C0
C0
C0
C0
40
60
60
20
30
10
08
04
ENDCHAR
STARTCHAR 0029
ENCODING 41
SWIDTH 520 0
DWIDTH 13 0
BBX 6 21 2 -1
BITMAP
80
40
20
30
10
18
18
18
0C
0C
0C
0C
0C
08
18
18
10
30
20
40
80
ENDCHAR
STARTCHAR 002A
ENCODING 42
SWIDTH 520 0
DWIDTH 13 0
BBX 10 14 1 2
BITMAP
0C00
0C00
0C00
CCC0
EDC0
6D80
1E00
1E00
6D80
EDC0
CCC0
0C00
0C00
0C00
ENDCHAR
STARTCHAR 002B
ENCODING 43
SWIDTH 520 0
DWIDTH 13 0
BBX 10 10 1 4
BITMAP
0C00
0C00
0C00
0C00
FFC0
FFC0
0C00
0C00
0C00
0C00
ENDCHAR
STARTCHAR 002C
ENCODING 44
SWIDTH 520 0
DWIDTH 13 0
BBX 4 7 2 -2
BITMAP
20
70
70
30
20
40
80
ENDCHAR
STARTCHAR 002D
ENCODING 45
SWIDTH 520 0
DWIDTH 13 0
BBX 8 2 2 8
BITMAP
FF
FF
ENDCHAR
STARTCHAR 002E
ENCODING 46
SWIDTH 520 0
DWIDTH 13 0
BBX 3 4 2 0
BITMAP
40
E0
E0
40
ENDCHAR
STARTCHAR 002F
ENCODING 47
SWIDTH 520 0
DWIDTH 13 0
BBX 10 22 1 -2
BITMAP
0040
0040
0080
0080
0100
0100
0200
0200
0200
0400
0400
0800
0800
1000
1000
2000
2000
2000
4000
4000
8000
8000
ENDCHAR
STARTCHAR 0030
ENCODING 48
SWIDTH 520 0
DWIDTH 13 0
BBX 10 18 1 0
BITMAP
1E00
6180
4080
C0C0
C0C0
C0C0
C0C0
C0C0
C0C0
C0C0
C0C0
C0C0
C0C0
C0C0
C0C0
4080
6180
1E00
ENDCHAR
STARTCHAR 0031
ENCODING 49
SWIDTH 520 0
DWIDTH 13 0
BBX 7 18 2 0
BITMAP
08
18
38
F8
18
18
18
18
18
18
18
18
18
18
18
18
18
7E
ENDCHAR
STARTCHAR 0032
ENCODING 50
SWIDTH 520 0
DWIDTH 13 0
BBX 10 18 1 0
BITMAP
1E00
6180
4080
C0C0
C0C0
00C0
0180
0180
0300
0E00
1800
3000
2000
4000
4040
8040
FFC0
FFC0
ENDCHAR
STARTCHAR 0033
ENCODING 51
SWIDTH 520 0
DWIDTH 13 0
BBX 10 18 1 0
BITMAP
1E00
6180
4080
C0C0
C0C0
00C0
0080
0100
3E00
0180
00C0
00C0
00C0
C0C0
C0C0
C080
6180
3E00
ENDCHAR
STARTCHAR 0034
ENCODING 52
SWIDTH 520 0
DWIDTH 13 0
BBX 10 18 1 0
BITMAP
0700
0700
0B00
0B00
1300
1300
1300
2300
2300
4300
4300
8300
8300
FFC0
0300
0300
0300
0780
ENDCHAR
STARTCHAR 0035
ENCODING 53
SWIDTH 520 0
DWIDTH 13 0
BBX 10 18 1 0
BITMAP
7F80
7F80
4000
4000
4000
4000
5E00
6180
4080
00C0
00C0
00C0
C0C0
C0C0
C0C0
4080
6180
1E00
ENDCHAR
STARTCHAR 0036
ENCODING 54
SWIDTH 520 0
DWIDTH 13 0
BBX 10 18 1 0
BITMAP
1E00
6180
40C0
C0C0
C000
C000
C000
DE00
E180
C080
C0C0
C0C0
C0C0
C0C0
C0C0
4080
6180
1E00
ENDCHAR
STARTCHAR 0037
ENCODING 55
SWIDTH 520 0
DWIDTH 13 0
BBX 10 18 1 0
BITMAP
FFC0
FFC0
8080
8080
0100
0100
0200
0200
0600
0400
0400
0C00
0C00
0800
1800
1800
1800
1800
ENDCHAR
STARTCHAR 0038
ENCODING 56
SWIDTH 520 0
DWIDTH 13 0
BBX 10 18 1 0
BITMAP
1E00
6180
4080
C0C0
C0C0
C0C0
4080
6180
3F00
2100
4080
C0C0
C0C0
C0C0
C0C0
4080
6180
1E00
ENDCHAR
STARTCHAR 0039
ENCODING 57
SWIDTH 520 0
DWIDTH 13 0
BBX 10 18 1 0
BITMAP
1E00
6180
4080
C0C0
C0C0
C0C0
C0C0
C0C0
40C0
61C0
1EC0
00C0
00C0
00C0
C0C0
C080
6180
1E00
ENDCHAR
STARTCHAR 003A
ENCODING 58
SWIDTH 520 0
DWIDTH 13 0
BBX 3 14 4 2
BITMAP
40
E0
E0
40
00
00
00
00
00
00
40
E0
E0
40
ENDCHAR
STARTCHAR 003B
ENCODING 59
SWIDTH 520 0
DWIDTH 13 0
BBX 4 16 3 0
BITMAP
20
70
70
20
00
00
00
00
00
20
70
70
30
20
40
80
ENDCHAR
STARTCHAR 003C
ENCODING 60
SWIDTH 520 0
DWIDTH 13 0
BBX 9 18 1 0
BITMAP
0080
0180
0300
0600
0C00
1800
3000
6000
C000
C000
6000
3000
1800
0C00
0600
0300
0180
0080
ENDCHAR
STARTCHAR 003D
ENCODING 61
SWIDTH 520 0
DWIDTH 13 0
BBX 10 8 1 5
BITMAP
FFC0
FFC0
0000
0000
0000
0000
FFC0
FFC0
ENDCHAR
STARTCHAR 003E
ENCODING 62
SWIDTH 520 0
DWIDTH 13 0
BBX 9 18 1 0
BITMAP
8000
C000
6000
3000
1800
0C00
0600
0300
0180
0180
0300
0600
0C00
1800
3000
6000
C000
8000
ENDCHAR
STARTCHAR 003F
ENCODING 63
SWIDTH 520 0
DWIDTH 13 0
BBX 10 18 1 0
BITMAP
1E00
6180
4080
C0C0
C0C0
00C0
00C0
0180
0380
0E00
0800
0800
0000
0000
0800
1C00
1C00
0800
ENDCHAR
STARTCHAR 0040
ENCODING 64
SWIDTH 520 0
DWIDTH 13 0
BBX 11 18 0 0
BITMAP
0E00
3180
60C0
60C0
C360
CF60
DB60
DB60
DB60
DB60
DB60
DB60
CBC0
CE00
6020
6040
3180
0F00
ENDCHAR
STARTCHAR 0041
ENCODING 65
SWIDTH 520 0
DWIDTH 13 0
BBX 10 18 1 0
BITMAP
0C00
0C00
0C00
0C00
1600
1600
1600
1600
2300
2300
2300
3F00
2300
4180
4180
4180
4180
F3C0
ENDCHAR
STARTCHAR 0042
ENCODING 66
SWIDTH 520 0
DWIDTH 13 0
BBX 10 18 1 0
BITMAP
FE00
6100
6180
6180
6180
6180
6300
7E00
6100
6180
60C0
60C0
60C0
60C0
60C0
6080
6180
FE00
ENDCHAR
STARTCHAR 0043
ENCODING 67
SWIDTH 520 0
DWIDTH 13 0
BBX 10 18 1 0
BITMAP
0E40
31C0
60C0
6040
C040
C000
C000
C000
C000
C000
C000
C000
C040
C040
6080
6080
3300
0E00
ENDCHAR
STARTCHAR 0044
ENCODING 68
SWIDTH 520 0
DWIDTH 13 0
BBX 11 18 0 0
BITMAP
FE00
6180
60C0
60C0
6060
6060
6060
6060
6060
6060
6060
6060
6060
6060
60C0
60C0
6180
FE00
ENDCHAR
STARTCHAR 0045
ENCODING 69
SWIDTH 520 0
DWIDTH 13 0
BBX 10 18 1 0
BITMAP
FF80
6080
6080
6040
6000
6100
6100
7F00
6100
6100
6000
6000
6000
6000
6040
6080
6080
FF80
ENDCHAR
STARTCHAR 0046
ENCODING 70
SWIDTH 520 0
DWIDTH 13 0
BBX 10 18 1 0
BITMAP
FF80
6080
6080
6040
6000
6100
6100
7F00
6100
6100
6000
6000
6000
6000
6000
6000
6000
F800
ENDCHAR
STARTCHAR 0047
ENCODING 71
SWIDTH 520 0
DWIDTH 13 0
BBX 12 18 1 0
BITMAP
1E40
31C0
60C0
6040
C040
C000
C000
C000
CFF0
C0C0
C0C0
C0C0
C0C0
C0C0
60C0
61C0
3640
1C40
ENDCHAR
STARTCHAR 0048
ENCODING 72
SWIDTH 520 0
DWIDTH 13 0
BBX 13 18 0 0
BITMAP
F0F8
6060
6060
6060
6060
6060
6060
7FE0
6060
6060
6060
6060
6060
6060
6060
6060
6060
F0F8
ENDCHAR
STARTCHAR 0049
ENCODING 73
SWIDTH 520 0
DWIDTH 13 0
BBX 6 18 3 0
BITMAP
FC
30
30
30
30
30
30
30
30
30
30
30
30
30
30
30
30
FC
ENDCHAR
STARTCHAR 004A
ENCODING 74
SWIDTH 520 0
DWIDTH 13 0
BBX 9 20 1 -2
BITMAP
0F80
0300
0300
0300
0300
0300
0300
0300
0300
0300
0300
0300
0300
0300
0300
6300
E300
C300
4600
3C00
ENDCHAR
STARTCHAR 004B
ENCODING 75
SWIDTH 520 0
DWIDTH 13 0
BBX 11 18 0 0
BITMAP
F0E0
6040
6080
6080
6100
6200
6200
6400
6E00
7600
6300
6300
6300
6180
6180
60C0
60C0
F1E0
ENDCHAR
STARTCHAR 004C
ENCODING 76
SWIDTH 520 0
DWIDTH 13 0
BBX 10 18 1 0
BITMAP
F800
6000
6000
6000
6000
6000
6000
6000
6000
6000
6000
6000
6000
6000
6040
6080
6080
FF80
ENDCHAR
STARTCHAR 004D
ENCODING 77
SWIDTH 520 0
DWIDTH 13 0
BBX 13 18 0 0
BITMAP
C078
6060
60E0
60E0
70E0
7160
7160
5960
5A60
5A60
5A60
4C60
4C60
4C60
4460
4060
4060
E0F8
ENDCHAR
STARTCHAR 004E
ENCODING 78
SWIDTH 520 0
DWIDTH 13 0
BBX 13 18 0 0
BITMAP
E078
6020
7020
5020
5820
5820
4C20
4C20
4620
4620
4320
4320
41A0
41A0
40A0
40E0
4060
E060
ENDCHAR
STARTCHAR 004F
ENCODING 79
SWIDTH 520 0
DWIDTH 13 0
BBX 10 18 1 0
BITMAP
1E00
2100
6180
4080
C0C0
C0C0
C0C0
C0C0
C0C0
C0C0
C0C0
C0C0
C0C0
C0C0
4080
6180
2100
1E00
ENDCHAR
STARTCHAR 0050
ENCODING 80
SWIDTH 520 0
DWIDTH 13 0
BBX 10 18 1 0
BITMAP
FE00
6180
6080
60C0
60C0
60C0
60C0
6080
6180
7E00
6000
6000
6000
6000
6000
6000
6000
F000
ENDCHAR
STARTCHAR 0051
ENCODING 81
SWIDTH 520 0
DWIDTH 13 0
BBX 10 20 1 -2
BITMAP
1E00
2100
6180
4080
C0C0
C0C0
C0C0
C0C0
C0C0
C0C0
C0C0
C0C0
C0C0
C0C0
5C80
6580
2300
1E00
01C0
00C0
ENDCHAR
STARTCHAR 0052
ENCODING 82
SWIDTH 520 0
DWIDTH 13 0
BBX 11 18 0 0
BITMAP
FF00
6180
60C0
60C0
60C0
60C0
6180
7E00
6300
6180
6180
6180
60C0
60C0
60C0
60C0
60C0
F1E0
ENDCHAR
STARTCHAR 0053
ENCODING 83
SWIDTH 520 0
DWIDTH 13 0
BBX 10 18 1 0
BITMAP
1C80
6280
4180
C080
C080
C000
7000
3C00
0F00
0380
0180
00C0
00C0
80C0
80C0
C180
E300
9C00
ENDCHAR
STARTCHAR 0054
ENCODING 84
SWIDTH 520 0
DWIDTH 13 0
BBX 13 18 0 0
BITMAP
7FE0
4620
4620
8618
0600
0600
0600
0600
0600
0600
0600
0600
0600
0600
0600
0600
0600
0F00
ENDCHAR
STARTCHAR 0055
ENCODING 85
SWIDTH 520 0
DWIDTH 13 0
BBX 13 18 0 0
BITMAP
F078
6020
6020
6020
6020
6020
6020
6020
6020
6020
6020
6020
6020
6020
6020
3040
38C0
0F00
ENDCHAR
STARTCHAR 0056
ENCODING 86
SWIDTH 520 0
DWIDTH 13 0
BBX 11 18 0 0
BITMAP
F0E0
6040
6040
6040
3080
3080
3080
3080
1900
1900
1900
0A00
0E00
0E00
0E00
0400
0400
0400
ENDCHAR
STARTCHAR 0057
ENCODING 87
SWIDTH 520 0
DWIDTH 13 0
BBX 13 18 0 0
BITMAP
F778
6620
6620
6620
6620
6620
6340
3340
3340
3340
3340
3740
1980
1980
1980
1980
1980
1980
ENDCHAR
STARTCHAR 0058
ENCODING 88
SWIDTH 520 0
DWIDTH 13 0
BBX 11 18 0 0
BITMAP
F0E0
6040
6080
3080
3100
1900
1A00
0E00
0C00
0600
0E00
0B00
1300
1180
2180
20C0
40C0
E1E0
ENDCHAR
STARTCHAR 0059
ENCODING 89
SWIDTH 520 0
DWIDTH 13 0
BBX 13 18 0 0
BITMAP
F078
6020
3020
3040
3040
1880
1880
0D00
0D00
0600
0600
0600
0600
0600
0600
0600
0600
0F00
ENDCHAR
STARTCHAR 005A
ENCODING 90
SWIDTH 520 0
DWIDTH 13 0
BBX 12 18 1 0
BITMAP
7FC0
40C0
8180
0180
0300
0300
0600
0600
0C00
0C00
1800
1800
3000
3000
6030
6040
C040
FFC0
ENDCHAR
STARTCHAR 005B
ENCODING 91
SWIDTH 520 0
DWIDTH 13 0
BBX 8 21 3 -1
BITMAP
FF
C0
C0
C0
C0
C0
C0
C0
C0
C0
C0
C0
C0
C0
C0
C0
C0
C0
C0
C0
FF
ENDCHAR
STARTCHAR 005C
ENCODING 92
SWIDTH 520 0
DWIDTH 13 0
BBX 13 18 0 0
BITMAP
F078
6020
3040
3040
1880
1880
0D00
7FE0
0600
0600
0600
7FE0
0600
0600
0600
0600
0600
0F00
ENDCHAR
STARTCHAR 005D
ENCODING 93
SWIDTH 520 0
DWIDTH 13 0
BBX 8 21 1 -1
BITMAP
FF
03
03
03
03
03
03
03
03
03
03
03
03
03
03
03
03
03
03
03
FF
ENDCHAR
STARTCHAR 005E
ENCODING 94
SWIDTH 520 0
DWIDTH 13 0
BBX 11 6 0 15
BITMAP
0400
0E00
1B00
3180
4040
8020
ENDCHAR
STARTCHAR 005F
ENCODING 95
SWIDTH 520 0
DWIDTH 13 0
BBX 10 1 1 -2
BITMAP
FFC0
ENDCHAR
STARTCHAR 0060
ENCODING 96
SWIDTH 520 0
DWIDTH 13 0
BBX 4 7 5 13
BITMAP
40
E0
E0
C0
40
20
10
ENDCHAR
STARTCHAR 0061
ENCODING 97
SWIDTH 520 0
DWIDTH 13 0
BBX 12 12 1 0
BITMAP
1F00
7180
6180
0180
0180
1F80
6180
C180
C180
C380
CDB0
70C0
ENDCHAR
STARTCHAR 0062
ENCODING 98
SWIDTH 520 0
DWIDTH 13 0
BBX 11 20 0 0
BITMAP
2000
E000
6000
6000
6000
6000
6000
6000
6700
78C0
7060
6060
6060
6060
6060
6060
6060
7040
68C0
4700
ENDCHAR
STARTCHAR 0063
ENCODING 99
SWIDTH 520 0
DWIDTH 13 0
BBX 10 12 1 0
BITMAP
1E00
6380
4180
C000
C000
C000
C000
C000
C040
6080
7300
1E00
ENDCHAR
STARTCHAR 0064
ENCODING 100
SWIDTH 520 0
DWIDTH 13 0
BBX 10 20 1 0
BITMAP
0080
0380
0180
0180
0180
0180
0180
0180
1D80
6380
4180
C180
C180
C180
C180
C180
C180
4180
6380
1DC0
ENDCHAR
STARTCHAR 0065
ENCODING 101
SWIDTH 520 0
DWIDTH 13 0
BBX 10 12 1 0
BITMAP
1E00
6180
4080
C0C0
C0C0
FFC0
C000
C000
C040
6080
7300
1E00
ENDCHAR
STARTCHAR 0066
ENCODING 102
SWIDTH 520 0
DWIDTH 13 0
BBX 9 20 1 0
BITMAP
0F00
1180
3180
3000
3000
3000
3000
3000
FF00
3000
3000
3000
3000
3000
3000
3000
3000
3000
3000
7800
ENDCHAR
STARTCHAR 0067
ENCODING 103
SWIDTH 520 0
DWIDTH 13 0
BBX 10 15 1 -2
BITMAP
00C0
1DC0
6300
C180
C180
C180
6300
5C00
C000
7F00
5F80
C0C0
C0C0
6180
3E00
ENDCHAR
STARTCHAR 0068
ENCODING 104
SWIDTH 520 0
DWIDTH 13 0
BBX 11 20 0 0
BITMAP
2000
E000
6000
6000
6000
6000
6000
6000
6F00
7180
6080
60C0
60C0
60C0
60C0
60C0
60C0
60C0
60C0
F1E0
ENDCHAR
STARTCHAR 0069
ENCODING 105
SWIDTH 520 0
DWIDTH 13 0
BBX 4 18 4 0
BITMAP
60
60
00
00
00
00
20
E0
60
60
60
60
60
60
60
60
60
F0
ENDCHAR
STARTCHAR 006A
ENCODING 106
SWIDTH 520 0
DWIDTH 13 0
BBX 8 22 1 -4
BITMAP
03
03
00
00
00
00
01
07
03
03
03
03
03
03
03
03
C3
C3
C3
46
38
38
ENDCHAR
STARTCHAR 006B
ENCODING 107
SWIDTH 520 0
DWIDTH 13 0
BBX 11 20 0 0
BITMAP
2000
E000
6000
6000
6000
6000
6000
6000
61C0
6080
6100
6200
6400
6C00
7600
6300
6300
6180
60C0
F1E0
ENDCHAR
STARTCHAR 006C
ENCODING 108
SWIDTH 520 0
DWIDTH 13 0
BBX 4 20 4 0
BITMAP
20
E0
60
60
60
60
60
60
60
60
60
60
60
60
60
60
60
60
60
F0
ENDCHAR
STARTCHAR 006D
ENCODING 109
SWIDTH 520 0
DWIDTH 13 0
BBX 13 12 0 0
BITMAP
2CC0
FFE0
6660
6660
6660
6660
6660
6660
6660
6660
6660
F778
ENDCHAR
STARTCHAR 006E
ENCODING 110
SWIDTH 520 0
DWIDTH 13 0
BBX 11 12 0 0
BITMAP
2F00
F180
6080
60C0
60C0
60C0
60C0
60C0
60C0
60C0
60C0
F1E0
ENDCHAR
STARTCHAR 006F
ENCODING 111
SWIDTH 520 0
DWIDTH 13 0
BBX 10 12 1 0
BITMAP
1E00
6180
4080
C0C0
C0C0
C0C0
C0C0
C0C0
C0C0
4080
6180
1E00
ENDCHAR
STARTCHAR 0070
ENCODING 112
SWIDTH 520 0
DWIDTH 13 0
BBX 11 14 0 -2
BITMAP
2700
E9C0
70C0
6060
6060
6060
6060
6060
6060
70C0
69C0
6700
6000
F000
ENDCHAR
STARTCHAR 0071
ENCODING 113
SWIDTH 520 0
DWIDTH 13 0
BBX 10 14 1 -2
BITMAP
1C80
7380
6180
C180
C180
C180
C180
C180
C180
6180
7380
1D80
0180
01C0
ENDCHAR
STARTCHAR 0072
ENCODING 114
SWIDTH 520 0
DWIDTH 13 0
BBX 9 12 2 0
BITMAP
2300
E780
6980
7000
6000
6000
6000
6000
6000
6000
6000
F000
ENDCHAR
STARTCHAR 0073
ENCODING 115
SWIDTH 520 0
DWIDTH 13 0
BBX 9 12 2 0
BITMAP
3C00
4700
C300
C000
E000
7C00
1F00
0380
0180
C180
E100
3E00
ENDCHAR
STARTCHAR 0074
ENCODING 116
SWIDTH 520 0
DWIDTH 13 0
BBX 9 18 2 0
BITMAP
1000
3000
3000
3000
3000
3000
FF00
3000
3000
3000
3000
3000
3000
3000
3080
3080
3300
1E00
ENDCHAR
STARTCHAR 0075
ENCODING 117
SWIDTH 520 0
DWIDTH 13 0
BBX 11 12 0 0
BITMAP
2040
E1C0
60C0
60C0
60C0
60C0
60C0
60C0
60C0
61C0
32C0
1CE0
ENDCHAR
STARTCHAR 0076
ENCODING 118
SWIDTH 520 0
DWIDTH 13 0
BBX 11 12 0 0
BITMAP
F0E0
6040
6040
3080
3080
3080
1900
1900
0E00
0E00
0400
0400
ENDCHAR
STARTCHAR 0077
ENCODING 119
SWIDTH 520 0
DWIDTH 13 0
BBX 11 12 0 0
BITMAP
EEE0
6640
6640
6640
6B40
6B40
6B40
3180
3180
3180
3180
3180
ENDCHAR
STARTCHAR 0078
ENCODING 120
SWIDTH 520 0
DWIDTH 13 0
BBX 10 12 1 0
BITMAP
F1C0
6080
3100
3200
1A00
0C00
0C00
1600
1300
2300
4180
E3C0
ENDCHAR
STARTCHAR 0079
ENCODING 121
SWIDTH 520 0
DWIDTH 13 0
BBX 11 16 0 -4
BITMAP
F0E0
6040
3040
3080
1880
1900
0D00
0E00
0600
0400
0400
0800
C800
D000
6000
6000
ENDCHAR
STARTCHAR 007A
ENCODING 122
SWIDTH 520 0
DWIDTH 13 0
BBX 10 12 1 0
BITMAP
7FC0
4180
8300
0600
0600
0C00
1800
1800
3040
6080
6080
FF80
ENDCHAR
STARTCHAR 007B
ENCODING 123
SWIDTH 520 0
DWIDTH 13 0
BBX 10 21 1 -1
BITMAP
03C0
0400
0400
0C00
0C00
0C00
0C00
0C00
1800
1000
E000
1000
1800
0C00
0C00
0C00
0C00
0C00
0400
0400
03C0
ENDCHAR
STARTCHAR 007C
ENCODING 124
SWIDTH 520 0
DWIDTH 13 0
BBX 2 22 5 -2
BITMAP
C0
C0
C0
C0
C0
C0
C0
C0
C0
C0
C0
C0
C0
C0
C0
C0
C0
C0
C0
C0
C0
C0
ENDCHAR
STARTCHAR 007D
ENCODING 125
SWIDTH 520 0
DWIDTH 13 0
BBX 10 21 1 -1
BITMAP
F000
0800
0800
0C00
0C00
0C00
0C00
0C00
0600
0200
01C0
0200
0600
0C00
0C00
0C00
0C00
0C00
0800
0800
F000
ENDCHAR
STARTCHAR 00A0
ENCODING 160
SWIDTH 520 0
DWIDTH 13 0
BBX 0 0 0 0
BITMAP
ENDCHAR
STARTCHAR 00A2
ENCODING 162
SWIDTH 1000 0
DWIDTH 25 0
BBX 14 16 6 -2
BITMAP
0020
0020
03C0
1E70
3098
6098
6300
C300
C600
C604
6808
6810
30E0
1F80
2000
2000
ENDCHAR
STARTCHAR 00A3
ENCODING 163
SWIDTH 1000 0
DWIDTH 25 0
BBX 21 19 2 -1
BITMAP
007E00
018180
0300C0
060060
060060
060040
060000
030000
030000
7FFF00
030000
018000
018000
3D8000
478008
818010
837060
4E3FC0
380F00
ENDCHAR
STARTCHAR 00A5
ENCODING 165
SWIDTH 520 0
DWIDTH 13 0
BBX 13 18 0 0
BITMAP
F078
6020
3040
3040
1880
1880
0D00
7FE0
0600
0600
0600
7FE0
0600
0600
0600
0600
0600
0F00
ENDCHAR
STARTCHAR 00A7
ENCODING 167
SWIDTH 1000 0
DWIDTH 25 0
BBX 12 20 6 -1
BITMAP
3F80
4060
C030
C030
6000
3800
0F80
37C0
4060
C030
C030
7030
3F60
0F80
00E0
0030
C030
C030
6020
1FC0
ENDCHAR
STARTCHAR 00A8
ENCODING 168
SWIDTH 1000 0
DWIDTH 25 0
BBX 7 2 9 18
BITMAP
C6
C6
ENDCHAR
STARTCHAR 00AC
ENCODING 172
SWIDTH 1000 0
DWIDTH 25 0
BBX 20 8 2 4
BITMAP
FFFFF0
000010
000010
000010
000010
000010
000010
000010
ENDCHAR
STARTCHAR 00B0
ENCODING 176
SWIDTH 1000 0
DWIDTH 25 0
BBX 6 6 2 13
BITMAP
30
48
84
84
48
30
ENDCHAR
STARTCHAR 00B1
ENCODING 177
SWIDTH 1000 0
DWIDTH 25 0
BBX 18 18 3 0
BITMAP
00C000
00C000
00C000
00C000
00C000
00C000
00C000
FFFFC0
00C000
00C000
00C000
00C000
00C000
00C000
00C000
000000
000000
FFFFC0
ENDCHAR
STARTCHAR 00B4
ENCODING 180
SWIDTH 1000 0
DWIDTH 25 0
BBX 8 3 8 18
BITMAP
0E
3F
C0
ENDCHAR
STARTCHAR 00B6
ENCODING 182
SWIDTH 1000 0
DWIDTH 25 0
BBX 12 24 5 -4
BITMAP
1FF0
7F10
7F10
FF10
FF10
FF10
7F10
7F10
1F10
0310
0310
0310
0310
0310
0310
0310
0310
0310
0310
0310
0310
0310
0310
0310
ENDCHAR
STARTCHAR 00D7
ENCODING 215
SWIDTH 1000 0
DWIDTH 25 0
BBX 17 16 4 1
BITMAP
800080
400100
200200
100400
080800
041000
022000
01C000
01C000
022000
041000
080800
100400
200200
400100
800080
ENDCHAR
STARTCHAR 00F7
ENCODING 247
SWIDTH 1000 0
DWIDTH 25 0
BBX 18 15 3 2
BITMAP
01E000
01E000
01E000
000000
000000
000000
000000
FFFFC0
000000
000000
000000
000000
01E000
01E000
01E000
ENDCHAR
STARTCHAR 0391
ENCODING 913
SWIDTH 1000 0
DWIDTH 25 0
BBX 21 18 2 0
BITMAP
006000
006000
007000
00F000
00B800
013800
010C00
020C00
020600
040600
040300
0FFF00
080180
100180
1000C0
2000C0
200060
F801F8
ENDCHAR
STARTCHAR 0392
ENCODING 914
SWIDTH 1000 0
DWIDTH 25 0
BBX 17 18 4 0
BITMAP
FFF000
300C00
300600
300600
300600
300600
300600
300C00
3FF000
300E00
300300
300180
300180
300180
300180
300300
300E00
FFF000
ENDCHAR
STARTCHAR 0393
ENCODING 915
SWIDTH 1000 0
DWIDTH 25 0
BBX 16 18 4 0
BITMAP
FFFF
3003
3001
3001
3001
3000
3000
3000
3000
3000
3000
3000
3000
3000
3000
3000
3000
FE00
ENDCHAR
STARTCHAR 0394
ENCODING 916
SWIDTH 1000 0
DWIDTH 25 0
BBX 19 18 3 0
BITMAP
00C000
00C000
00E000
01E000
017000
027000
021800
041800
040C00
080C00
080600
100600
100300
200300
200180
400180
7FFFC0
FFFFE0
ENDCHAR
STARTCHAR 0395
ENCODING 917
SWIDTH 1000 0
DWIDTH 25 0
BBX 17 18 3 0
BITMAP
FFFF00
300300
300100
300100
300100
300800
300800
301800
3FF800
301800
300800
300800
300800
300080
300080
300080
300180
FFFF80
ENDCHAR
STARTCHAR 0396
ENCODING 918
SWIDTH 1000 0
DWIDTH 25 0
BBX 17 18 4 0
BITMAP
FFFE00
C00C00
800C00
801800
803000
003000
00E000
01C000
01C000
038000
060000
060000
0C0080
180080
300080
300080
600180
FFFF80
ENDCHAR
STARTCHAR 0397
ENCODING 919
SWIDTH 1000 0
DWIDTH 25 0
BBX 19 18 3 0
BITMAP
FC07E0
300180
300180
300180
300180
300180
300180
3FFF80
300180
300180
300180
300180
300180
300180
300180
300180
300180
FC07E0
ENDCHAR
STARTCHAR 0398
ENCODING 920
SWIDTH 1000 0
DWIDTH 25 0
BBX 19 18 3 0
BITMAP
03F800
0C0600
100100
300180
6000C0
6000C0
C00060
C40460
C7FC60
C7FC60
C40460
C00060
6000C0
6000C0
300180
100100
0C0600
03F800
ENDCHAR
STARTCHAR 0399
ENCODING 921
SWIDTH 1000 0
DWIDTH 25 0
BBX 9 18 8 0
BITMAP
FF80
1C00
1C00
1C00
1C00
1C00
1C00
1C00
1C00
1C00
1C00
1C00
1C00
1C00
1C00
1C00
1C00
FF80
ENDCHAR
STARTCHAR 039A
ENCODING 922
SWIDTH 1000 0
DWIDTH 25 0
BBX 19 18 3 0
BITMAP
FC1F80
300400
300800
301000
306000
30C000
310000
320000
370000
39C000
30E000
307000
301800
300C00
300600
300300
300380
FC0FE0
ENDCHAR
STARTCHAR 039B
ENCODING 923
SWIDTH 1000 0
DWIDTH 25 0
BBX 21 18 2 0
BITMAP
006000
006000
007000
00F000
00B800
013800
010C00
020C00
020600
040600
040300
080300
080180
100180
1000C0
2000C0
200060
F801F8
ENDCHAR
STARTCHAR 039C
ENCODING 924
SWIDTH 1000 0
DWIDTH 25 0
BBX 21 18 2 0
BITMAP
FC01F8
2C0160
2C0160
260260
260260
260260
260260
230460
230460
230460
218860
218860
218860
20F060
20F060
20F060
206060
F861F8
ENDCHAR
STARTCHAR 039D
ENCODING 925
SWIDTH 1000 0
DWIDTH 25 0
BBX 19 18 3 0
BITMAP
FC03E0
2C0080
260080
260080
230080
21C080
21C080
20E080
20E080
207080
201880
201880
200C80
200680
200680
200380
200380
F80180
ENDCHAR
STARTCHAR 039E
ENCODING 926
SWIDTH 1000 0
DWIDTH 25 0
BBX 17 18 4 0
BITMAP
7FFF80
7FFF80
400080
800100
800100
000000
100200
1FFE00
3FFC00
200400
000000
000000
000000
400080
400080
800100
FFFF00
FFFF00
ENDCHAR
STARTCHAR 039F
ENCODING 927
SWIDTH 1000 0
DWIDTH 25 0
BBX 19 18 3 0
BITMAP
03F800
0C0600
100100
300180
6000C0
6000C0
C00060
C00060
C00060
C00060
C00060
C00060
6000C0
6000C0
300180
100100
0C0600
03F800
ENDCHAR
STARTCHAR 03A0
ENCODING 928
SWIDTH 1000 0
DWIDTH 25 0
BBX 19 18 3 0
BITMAP
FFFFE0
180300
180300
180300
180300
180300
180300
180300
180300
180300
180300
180300
180300
180300
180300
180300
180300
7E0FC0
ENDCHAR
STARTCHAR 03A1
ENCODING 929
SWIDTH 1000 0
DWIDTH 25 0
BBX 17 18 4 0
BITMAP
FFF800
300600
300300
300180
300180
300180
300180
300300
300600
3FF800
300000
300000
300000
300000
300000
300000
300000
FE0000
ENDCHAR
STARTCHAR 03A3
ENCODING 931
SWIDTH 1000 0
DWIDTH 25 0
BBX 18 18 3 0
BITMAP
FFFF80
700180
380080
1C0080
0E0080
070000
03C000
01E000
00F000
00E000
01C000
030000
060040
0C0040
180040
3000C0
7FFFC0
FFFFC0
ENDCHAR
STARTCHAR 03A4
ENCODING 932
SWIDTH 1000 0
DWIDTH 25 0
BBX 19 18 3 0
BITMAP
FFFFE0
C0E060
80E020
80E020
80E020
00E000
00E000
00E000
00E000
00E000
00E000
00E000
00E000
00E000
00E000
00E000
00E000
07FC00
ENDCHAR
STARTCHAR 03A5
ENCODING 933
SWIDTH 1000 0
DWIDTH 25 0
BBX 21 18 2 0
BITMAP
1E03C0
330660
418C10
80F808
80F808
007000
007000
007000
007000
007000
007000
007000
007000
007000
007000
007000
007000
03FE00
ENDCHAR
STARTCHAR 03A6
ENCODING 934
SWIDTH 1000 0
DWIDTH 25 0
BBX 19 18 3 0
BITMAP
07FC00
00E000
00E000
07FC00
18E300
30E180
60E0C0
60E0C0
C0E060
C0E060
60E0C0
60E0C0
30E180
18E300
07FC00
00E000
00E000
07FC00
ENDCHAR
STARTCHAR 03A7
ENCODING 935
SWIDTH 1000 0
DWIDTH 25 0
BBX 20 18 3 0
BITMAP
7E07E0
180100
0C0200
060400
060400
030800
01D000
01E000
00E000
00F000
011800
011C00
020E00
040600
080300
080380
1001C0
FC07F0
ENDCHAR
STARTCHAR 03A8
ENCODING 936
SWIDTH 1000 0
DWIDTH 25 0
BBX 21 18 2 0
BITMAP
01FC00
007000
707070
F870F8
9870C8
9870C8
1870C0
1870C0
1870C0
0C7180
0C7180
067300
037600
00F800
007000
007000
007000
01FC00
ENDCHAR
STARTCHAR 03A9
ENCODING 937
SWIDTH 1000 0
DWIDTH 25 0
BBX 19 18 3 0
BITMAP
03F800
0C0600
100100
300180
6000C0
6000C0
C00060
C00060
C00060
6000C0
6000C0
300180
180300
860C20
820820
820820
FE0FE0
FE0FE0
ENDCHAR
STARTCHAR 03B1
ENCODING 945
SWIDTH 1000 0
DWIDTH 25 0
BBX 16 12 4 0
BITMAP
07C3
1C27
3016
601C
6018
C010
C030
C0E0
C1E2
C3A4
663C
3818
ENDCHAR
STARTCHAR 03B2
ENCODING 946
SWIDTH 1000 0
DWIDTH 25 0
BBX 17 22 3 -4
BITMAP
007C00
00C300
01C100
010180
030180
020180
060300
047600
0CF800
080600
080300
180300
180300
100300
340600
320600
61DC00
60F000
600000
C00000
C00000
C00000
ENDCHAR
STARTCHAR 03B3
ENCODING 947
SWIDTH 1000 0
DWIDTH 25 0
BBX 17 16 4 -4
BITMAP
0E0180
338780
41CC00
81D000
01E000
01C000
038000
038000
060000
060000
0C0000
0C0000
1C0000
180000
180000
180000
ENDCHAR
STARTCHAR 03B4
ENCODING 948
SWIDTH 1000 0
DWIDTH 25 0
BBX 16 18 5 0
BITMAP
07C0
0830
080C
0406
0303
0183
0060
07B0
1818
3018
6018
6018
C030
C030
C060
41C0
6380
1C00
ENDCHAR
STARTCHAR 03B5
ENCODING 949
SWIDTH 1000 0
DWIDTH 25 0
BBX 14 12 5 0
BITMAP
07F0
1818
3004
3000
3780
1F00
6000
C004
C008
C030
7FE0
3F80
ENDCHAR
STARTCHAR 03B6
ENCODING 950
SWIDTH 1000 0
DWIDTH 25 0
BBX 15 22 5 -4
BITMAP
0780
0800
100E
103E
0FE0
0040
0380
0700
0C00
1800
3000
6000
6000
C000
F000
7F80
0FE0
0070
3030
3860
0F80
0F80
ENDCHAR
STARTCHAR 03B7
ENCODING 951
SWIDTH 1000 0
DWIDTH 25 0
BBX 18 16 3 -4
BITMAP
0E0F00
337080
43C0C0
8300C0
0600C0
060180
0C0180
0C0300
180300
380600
300600
000C00
001800
007800
007000
007000
ENDCHAR
STARTCHAR 03B8
ENCODING 952
SWIDTH 1000 0
DWIDTH 25 0
BBX 17 18 4 0
BITMAP
003C00
01C300
038180
060180
0C0180
180180
180300
3FFF00
300300
600600
600600
C00C00
C01800
C01800
C03000
40E000
638000
1C0000
ENDCHAR
STARTCHAR 03B9
ENCODING 953
SWIDTH 1000 0
DWIDTH 25 0
BBX 13 12 6 0
BITMAP
1800
1800
3000
3000
6000
6000
C008
C010
C060
C7C0
7F00
3800
ENDCHAR
STARTCHAR 03BA
ENCODING 954
SWIDTH 1000 0
DWIDTH 25 0
BBX 17 12 3 0
BITMAP
060700
061F80
0C7180
0CE000
190000
1BE000
34E000
38E000
61C100
61C600
C1FC00
C0F000
ENDCHAR
STARTCHAR 03BB
ENCODING 955
SWIDTH 1000 0
DWIDTH 25 0
BBX 16 18 4 0
BITMAP
0780
07C0
00C0
00C0
0020
0020
0020
00E0
01A0
0220
0620
0C20
1820
3030
3010
601C
E00F
C007
ENDCHAR
STARTCHAR 03BC
ENCODING 956
SWIDTH 1000 0
DWIDTH 25 0
BBX 20 16 2 -4
BITMAP
0300C0
0300C0
0301C0
060180
060180
060300
0C0300
0C0200
0C0610
1C0A20
1673C0
338180
600000
E00000
C00000
C00000
ENDCHAR
STARTCHAR 03BD
ENCODING 957
SWIDTH 1000 0
DWIDTH 25 0
BBX 15 12 5 0
BITMAP
6000
7002
3004
3008
2018
2030
4060
43C0
4F80
FC00
F000
8000
ENDCHAR
STARTCHAR 03BE
ENCODING 958
SWIDTH 1000 0
DWIDTH 25 0
BBX 15 22 4 -4
BITMAP
03F8
0400
0400
03FE
07FC
1800
2000
2000
1800
0FFE
1FFC
2000
4000
8000
FC00
7FC0
03F0
0018
3018
3830
0FC0
0FC0
ENDCHAR
STARTCHAR 03BF
ENCODING 959
SWIDTH 1000 0
DWIDTH 25 0
BBX 14 12 5 0
BITMAP
03E0
0C18
1808
300C
600C
600C
C018
C018
C030
4060
61C0
1F00
ENDCHAR
STARTCHAR 03C0
ENCODING 960
SWIDTH 1000 0
DWIDTH 25 0
BBX 17 13 4 0
BITMAP
000080
3FFF00
3FFE00
4C3000
8C3000
18E000
18E000
31C000
31C100
638200
638C00
E3F800
C1E000
ENDCHAR
STARTCHAR 03C1
ENCODING 961
SWIDTH 1000 0
DWIDTH 25 0
BBX 16 16 4 -4
BITMAP
00F8
0386
0606
0C03
0803
1803
1006
3006
280C
6438
63C0
6000
C000
C000
C000
C000
ENDCHAR
STARTCHAR 03C3
ENCODING 963
SWIDTH 1000 0
DWIDTH 25 0
BBX 16 15 5 0
BITMAP
0004
0002
0003
03FF
0FFE
1810
3008
600C
600C
C018
C018
C030
4060
63C0
1C00
ENDCHAR
STARTCHAR 03C4
ENCODING 964
SWIDTH 1000 0
DWIDTH 25 0
BBX 17 13 4 0
BITMAP
000080
1FFF00
3FFE00
438000
860000
060000
0C0000
0C0000
180800
181000
18E000
1FC000
0E0000
ENDCHAR
STARTCHAR 03C5
ENCODING 965
SWIDTH 1000 0
DWIDTH 25 0
BBX 15 12 5 0
BITMAP
3000
301C
3006
3006
600C
600C
C018
C030
C060
C1C0
4700
3800
ENDCHAR
STARTCHAR 03C6
ENCODING 966
SWIDTH 1000 0
DWIDTH 25 0
BBX 17 22 4 -4
BITMAP
001800
001800
001800
003000
003000
002000
03F800
1C2600
30E300
60C180
60C180
C1C180
C18300
C18300
638600
321C00
0FE000
060000
060000
0C0000
0C0000
0C0000
ENDCHAR
STARTCHAR 03C7
ENCODING 967
SWIDTH 1000 0
DWIDTH 25 0
BBX 17 16 3 -4
BITMAP
060180
0F0380
11C700
20CC00
00D800
00F000
00E000
01C000
03C000
070000
0D0100
390200
71CC00
E1F800
C0F000
C0F000
ENDCHAR
STARTCHAR 03C8
ENCODING 968
SWIDTH 1000 0
DWIDTH 25 0
BBX 17 22 4 -4
BITMAP
001800
001800
001800
001000
003000
003000
702300
982380
18E180
30C180
30C180
61C300
618300
618600
638C00
223000
1FC000
060000
060000
0C0000
0C0000
0C0000
ENDCHAR
STARTCHAR 03C9
ENCODING 969
SWIDTH 1000 0
DWIDTH 25 0
BBX 19 12 3 0
BITMAP
030100
0C0080
1800C0
307040
607060
60E060
C0E060
C1E0C0
C160C0
C36180
466300
381C00
ENDCHAR
STARTCHAR 0401
ENCODING 1025
SWIDTH 1000 0
DWIDTH 25 0
BBX 17 21 4 0
BITMAP
0E3800
0E3800
000000
FFFF00
300300
300100
300100
300500
300400
300C00
3FFC00
300C00
300400
300400
300400
300000
300080
300080
300080
300180
FFFF80
ENDCHAR
STARTCHAR 0410
ENCODING 1040
SWIDTH 1000 0
DWIDTH 25 0
BBX 21 18 2 0
BITMAP
006000
006000
007000
00F000
00B800
013800
010C00
020C00
020600
040600
040300
0FFF00
080180
100180
1000C0
2000C0
200060
F801F8
ENDCHAR
STARTCHAR 0411
ENCODING 1041
SWIDTH 1000 0
DWIDTH 25 0
BBX 17 18 4 0
BITMAP
FFFF00
300300
300100
300100
300100
300000
300000
3FF000
300E00
300300
300180
300180
300180
300180
300180
300300
300E00
FFF000
ENDCHAR
STARTCHAR 0412
ENCODING 1042
SWIDTH 1000 0
DWIDTH 25 0
BBX 17 18 4 0
BITMAP
FFF000
300C00
300600
300300
300300
300300
300600
300C00
3FF000
300E00
300300
300180
300180
300180
300180
300300
300E00
FFF000
ENDCHAR
STARTCHAR 0413
ENCODING 1043
SWIDTH 1000 0
DWIDTH 25 0
BBX 16 18 4 0
BITMAP
FFFF
3003
3001
3001
3001
3000
3000
3000
3000
3000
3000
3000
3000
3000
3000
3000
3000
FE00
ENDCHAR
STARTCHAR 0414
ENCODING 1044
SWIDTH 1000 0
DWIDTH 25 0
BBX 19 22 3 -4
BITMAP
0FFFC0
010300
010300
010300
010300
010300
010300
010300
010300
010300
020300
020300
020300
040300
040300
080300
100300
FFFFE0
C00060
800020
800020
800020
ENDCHAR
STARTCHAR 0415
ENCODING 1045
SWIDTH 1000 0
DWIDTH 25 0
BBX 17 18 4 0
BITMAP
FFFF00
300300
300100
300100
300500
300400
300C00
3FFC00
300C00
300400
300400
300400
300000
300080
300080
300080
300180
FFFF80
ENDCHAR
STARTCHAR 0416
ENCODING 1046
SWIDTH 1000 0
DWIDTH 25 0
BBX 25 18 0 0
BITMAP
307F0600
781C0F00
581C0D00
0C1C1800
041C1000
061C3000
021C2000
011C4000
00FF8000
031C6000
061C3000
0C1C1800
0C1C1800
181C0C00
181C0C00
301C0600
301C0600
FC7F1F80
ENDCHAR
STARTCHAR 0417
ENCODING 1047
SWIDTH 1000 0
DWIDTH 25 0
BBX 16 18 5 0
BITMAP
07E0
3818
E00C
C006
8006
0006
000C
0018
03F0
000C
0006
0003
0003
8003
C007
E006
381C
0FF0
ENDCHAR
STARTCHAR 0418
ENCODING 1048
SWIDTH 1000 0
DWIDTH 25 0
BBX 19 18 3 0
BITMAP
FC07E0
300180
300180
300180
300380
300580
300980
301180
306180
30C180
310180
320180
340180
380180
300180
300180
300180
FC07E0
ENDCHAR
STARTCHAR 0419
ENCODING 1049
SWIDTH 1000 0
DWIDTH 25 0
BBX 19 21 3 0
BITMAP
071C00
060C00
031800
F8E3E0
300180
300180
300180
300380
300580
300980
301180
306180
30C180
310180
320180
340180
380180
300180
300180
300180
FC07E0
ENDCHAR
STARTCHAR 041A
ENCODING 1050
SWIDTH 1000 0
DWIDTH 25 0
BBX 19 18 3 0
BITMAP
FC0700
300F80
301980
301000
306000
306000
30C000
3F0000
31E000
30F000
307000
301800
301C00
300E00
300600
300700
300380
FC0FE0
ENDCHAR
STARTCHAR 041B
ENCODING 1051
SWIDTH 1000 0
DWIDTH 25 0
BBX 19 18 2 0
BITMAP
07FFE0
008180
008180
008180
008180
008180
008180
008180
008180
008180
010180
010180
010180
620180
E20180
C40180
C80180
7007E0
ENDCHAR
STARTCHAR 041C
ENCODING 1052
SWIDTH 1000 0
DWIDTH 25 0
BBX 21 18 2 0
BITMAP
FC01F8
2C0160
2C0160
260260
260260
260260
260260
230460
230460
230460
218860
218860
218860
20F060
20F060
20F060
206060
F861F8
ENDCHAR
STARTCHAR 041D
ENCODING 1053
SWIDTH 1000 0
DWIDTH 25 0
BBX 19 18 3 0
BITMAP
FC07E0
300180
300180
300180
300180
300180
300180
3FFF80
300180
300180
300180
300180
300180
300180
300180
300180
300180
FC07E0
ENDCHAR
STARTCHAR 041E
ENCODING 1054
SWIDTH 1000 0
DWIDTH 25 0
BBX 19 18 3 0
BITMAP
03F800
0C0600
180300
300180
6000C0
6000C0
C00060
C00060
C00060
C00060
C00060
C00060
6000C0
6000C0
300180
180300
0C0600
03F800
ENDCHAR
STARTCHAR 041F
ENCODING 1055
SWIDTH 1000 0
DWIDTH 25 0
BBX 18 18 3 0
BITMAP
FFFFC0
300300
300300
300300
300300
300300
300300
300300
300300
300300
300300
300300
300300
300300
300300
300300
300300
FC0FC0
ENDCHAR
STARTCHAR 0420
ENCODING 1056
SWIDTH 1000 0
DWIDTH 25 0
BBX 16 18 5 0
BITMAP
FFE0
301C
3006
3003
3003
3003
3003
3003
3006
301C
3FE0
3000
3000
3000
3000
3000
3000
FF00
ENDCHAR
STARTCHAR 0421
ENCODING 1057
SWIDTH 1000 0
DWIDTH 25 0
BBX 17 18 3 0
BITMAP
01F800
060780
180180
300080
600080
600080
C00000
C00000
C00000
C00000
C00000
C00000
600080
600080
300180
180300
060E00
01F800
ENDCHAR
STARTCHAR 0422
ENCODING 1058
SWIDTH 1000 0
DWIDTH 25 0
BBX 17 18 4 0
BITMAP
FFFF80
C1C180
81C080
81C080
81C080
01C000
01C000
01C000
01C000
01C000
01C000
01C000
01C000
01C000
01C000
01C000
01C000
07F000
ENDCHAR
STARTCHAR 0423
ENCODING 1059
SWIDTH 1000 0
DWIDTH 25 0
BBX 19 18 3 0
BITMAP
FC03E0
300080
300100
180100
180200
0C0200
0C0400
060400
060800
030800
031000
01D000
01E000
00E000
30C000
710000
620000
3C0000
ENDCHAR
STARTCHAR 0424
ENCODING 1060
SWIDTH 1000 0
DWIDTH 25 0
BBX 19 18 3 0
BITMAP
03F800
00E000
00E000
07FC00
18E300
30E180
60E0C0
60E0C0
C0E060
C0E060
60E0C0
60E0C0
30E180
18E300
07FC00
00E000
00E000
03F800
ENDCHAR
STARTCHAR 0425
ENCODING 1061
SWIDTH 1000 0
DWIDTH 25 0
BBX 20 18 3 0
BITMAP
FC07E0
380100
180200
0C0400
060400
030800
03D000
01D000
00E000
00F000
011800
021C00
020C00
040600
080300
100380
2001C0
F807F0
ENDCHAR
STARTCHAR 0426
ENCODING 1062
SWIDTH 1000 0
DWIDTH 25 0
BBX 18 22 4 -4
BITMAP
FC1F80
300600
300600
300600
300600
300600
300600
300600
300600
300600
300600
300600
300600
300600
300600
300600
300600
FFFFC0
0000C0
000040
000040
000040
ENDCHAR
STARTCHAR 0427
ENCODING 1063
SWIDTH 1000 0
DWIDTH 25 0
BBX 19 18 3 0
BITMAP
FC07E0
300180
300180
300180
300180
300180
300180
300180
300380
180580
1C1980
07E180
000180
000180
000180
000180
000180
0007E0
ENDCHAR
STARTCHAR 0428
ENCODING 1064
SWIDTH 1000 0
DWIDTH 25 0
BBX 23 18 1 0
BITMAP
FCFE7E
303818
303818
303818
303818
303818
303818
303818
303818
303818
303818
303818
303818
303818
303818
303818
303818
FFFFFE
ENDCHAR
STARTCHAR 0429
ENCODING 1065
SWIDTH 1000 0
DWIDTH 25 0
BBX 23 22 1 -4
BITMAP
FCFE7E
303818
303818
303818
303818
303818
303818
303818
303818
303818
303818
303818
303818
303818
303818
303818
303818
FFFFFE
000006
000002
000002
000002
ENDCHAR
STARTCHAR 042A
ENCODING 1066
SWIDTH 1000 0
DWIDTH 25 0
BBX 21 18 2 0
BITMAP
FFF000
C18000
818000
818000
818000
018000
018000
01FF00
0180E0
018030
018018
018018
018018
018018
018018
018030
0180E0
07FF00
ENDCHAR
STARTCHAR 042B
ENCODING 1067
SWIDTH 1000 0
DWIDTH 25 0
BBX 22 18 1 0
BITMAP
FC00FC
300030
300030
300030
300030
300030
300030
3F8030
307830
301C30
300630
300630
300630
300630
300630
301C30
307830
FF80FC
ENDCHAR
STARTCHAR 042C
ENCODING 1068
SWIDTH 1000 0
DWIDTH 25 0
BBX 16 18 5 0
BITMAP
FC00
3000
3000
3000
3000
3000
3000
3FE0
301C
3006
3003
3003
3003
3003
3003
3006
301C
FFE0
ENDCHAR
STARTCHAR 042D
ENCODING 1069
SWIDTH 1000 0
DWIDTH 25 0
BBX 17 18 4 0
BITMAP
0FC000
383800
E00C00
C00600
800300
000300
000180
078380
1FFD80
20F980
000180
000180
800300
800300
C00600
E00C00
383000
0FC000
ENDCHAR
STARTCHAR 042E
ENCODING 1070
SWIDTH 1000 0
DWIDTH 25 0
BBX 22 18 1 0
BITMAP
FC0780
303860
307030
30C018
30C018
31800C
31800C
3F800C
31800C
31800C
31800C
31800C
31800C
30C018
30C018
307030
303860
FC0780
ENDCHAR
STARTCHAR 042F
ENCODING 1071
SWIDTH 1000 0
DWIDTH 25 0
BBX 18 18 3 0
BITMAP
03FFC0
1C0300
300300
600300
600300
600300
600300
300300
1C0300
03FF00
01C300
030300
030300
060300
0C0300
180300
300300
C00FC0
ENDCHAR
STARTCHAR 0430
ENCODING 1072
SWIDTH 1000 0
DWIDTH 25 0
BBX 16 12 5 0
BITMAP
1FC0
7830
6018
0018
0018
1FF8
6018
C018
C018
C039
61D9
1F0E
ENDCHAR
STARTCHAR 0431
ENCODING 1073
SWIDTH 1000 0
DWIDTH 25 0
BBX 15 18 5 0
BITMAP
0004
07F8
1FF0
3000
6000
4000
47C0
9830
B018
A00C
E00C
C006
C006
600C
600C
3018
1830
07C0
ENDCHAR
STARTCHAR 0432
ENCODING 1074
SWIDTH 1000 0
DWIDTH 25 0
BBX 14 12 5 0
BITMAP
FFC0
3030
3018
3018
3030
3FC0
3038
300C
300C
300C
3038
FFC0
ENDCHAR
STARTCHAR 0433
ENCODING 1075
SWIDTH 1000 0
DWIDTH 25 0
BBX 14 12 5 0
BITMAP
FFFC
300C
3004
3004
3004
3000
3000
3000
3000
3000
3000
FF00
ENDCHAR
STARTCHAR 0434
ENCODING 1076
SWIDTH 1000 0
DWIDTH 25 0
BBX 15 16 4 -4
BITMAP
3FFE
0418
0418
0418
0418
0418
0418
0818
0818
1018
2018
FFFE
C006
8002
8002
8002
ENDCHAR
STARTCHAR 0435
ENCODING 1077
SWIDTH 1000 0
DWIDTH 25 0
BBX 14 12 5 0
BITMAP
07C0
1830
3018
6018
600C
FFFC
C000
6000
6000
3004
1C18
07E0
ENDCHAR
STARTCHAR 0436
ENCODING 1078
SWIDTH 1000 0
DWIDTH 25 0
BBX 21 13 2 -1
BITMAP
21FC20
707070
5870D0
087080
067300
01FC00
027200
067300
0C7180
1870C0
307060
307060
F9FCF8
ENDCHAR
STARTCHAR 0437
ENCODING 1079
SWIDTH 1000 0
DWIDTH 25 0
BBX 13 12 6 0
BITMAP
1FC0
E030
C018
8018
0030
0FC0
0030
0018
8018
C018
F030
1FC0
ENDCHAR
STARTCHAR 0438
ENCODING 1080
SWIDTH 1000 0
DWIDTH 25 0
BBX 17 12 4 0
BITMAP
FC1F80
300600
300E00
301600
302600
30C600
318600
320600
340600
380600
300600
FC1F80
ENDCHAR
STARTCHAR 0439
ENCODING 1081
SWIDTH 1000 0
DWIDTH 25 0
BBX 17 16 4 0
BITMAP
0E3800
0C1800
063000
01C000
FC1F80
300600
300E00
301600
302600
30C600
318600
320600
340600
380600
300600
FC1F80
ENDCHAR
STARTCHAR 043A
ENCODING 1082
SWIDTH 1000 0
DWIDTH 25 0
BBX 16 12 5 0
BITMAP
FC38
304C
318C
3300
3F00
3380
31C0
3060
3030
3018
301C
FC7F
ENDCHAR
STARTCHAR 043B
ENCODING 1083
SWIDTH 1000 0
DWIDTH 25 0
BBX 17 12 3 0
BITMAP
0FFF80
010600
010600
010600
010600
010600
010600
620600
E20600
C20600
640600
381F80
ENDCHAR
STARTCHAR 043C
ENCODING 1084
SWIDTH 1000 0
DWIDTH 25 0
BBX 19 12 3 0
BITMAP
F803E0
380380
2C0580
2C0580
260980
260980
231180
231180
21E180
21E180
20C180
F8C7E0
ENDCHAR
STARTCHAR 043D
ENCODING 1085
SWIDTH 1000 0
DWIDTH 25 0
BBX 17 12 4 0
BITMAP
FC1F80
300600
300600
300600
300600
3FFE00
300600
300600
300600
300600
300600
FC1F80
ENDCHAR
STARTCHAR 043E
ENCODING 1086
SWIDTH 1000 0
DWIDTH 25 0
BBX 15 12 5 0
BITMAP
07C0
1830
3018
600C
600C
C006
C006
600C
600C
3018
1830
07C0
ENDCHAR
STARTCHAR 043F
ENCODING 1087
SWIDTH 1000 0
DWIDTH 25 0
BBX 15 12 5 0
BITMAP
FFFE
3018
3018
3018
3018
3018
3018
3018
3018
3018
3018
FC7E
ENDCHAR
STARTCHAR 0440
ENCODING 1088
SWIDTH 1000 0
DWIDTH 25 0
BBX 16 16 4 -4
BITMAP
11F0
F60C
3806
3006
3003
3003
3006
3806
360C
31F0
3000
3000
3000
3000
FC00
FC00
ENDCHAR
STARTCHAR 0441
ENCODING 1089
SWIDTH 1000 0
DWIDTH 25 0
BBX 14 12 5 0
BITMAP
07C0
1830
3018
6018
6000
C000
C000
6000
6004
3008
1830
07C0
ENDCHAR
STARTCHAR 0442
ENCODING 1090
SWIDTH 1000 0
DWIDTH 25 0
BBX 13 12 6 0
BITMAP
FFF8
C718
8708
8708
0700
0700
0700
0700
0700
0700
0700
1FC0
ENDCHAR
STARTCHAR 0443
ENCODING 1091
SWIDTH 1000 0
DWIDTH 25 0
BBX 16 16 5 -4
BITMAP
FC1F
3004
1808
1808
0C10
0C20
0720
0740
0380
0380
0300
6400
E400
C800
7000
7000
ENDCHAR
STARTCHAR 0444
ENCODING 1092
SWIDTH 1000 0
DWIDTH 25 0
BBX 17 22 4 -4
BITMAP
00C000
07C000
01C000
01C000
01C000
01C000
1DDC00
23E200
63E300
C1C180
C1C180
C1C180
C1C180
C1C180
C1C180
63E300
23E200
1DDC00
01C000
01C000
07F000
07F000
ENDCHAR
STARTCHAR 0445
ENCODING 1093
SWIDTH 1000 0
DWIDTH 25 0
BBX 17 12 4 0
BITMAP
FE3F00
380800
1C1000
0E2000
07C000
03C000
03E000
04F000
083800
101C00
200E00
F83F80
ENDCHAR
STARTCHAR 0446
ENCODING 1094
SWIDTH 1000 0
DWIDTH 25 0
BBX 15 16 5 -4
BITMAP
FC7E
3018
3018
3018
3018
3018
3018
3018
3018
3018
3018
FFFE
0006
0002
0002
0002
ENDCHAR
STARTCHAR 0447
ENCODING 1095
SWIDTH 1000 0
DWIDTH 25 0
BBX 15 12 5 0
BITMAP
FC7E
3018
3018
3018
3018
3038
1858
0798
0018
0018
0018
007E
ENDCHAR
STARTCHAR 0448
ENCODING 1096
SWIDTH 1000 0
DWIDTH 25 0
BBX 19 12 3 0
BITMAP
FBF7E0
30E180
30E180
30E180
30E180
30E180
30E180
30E180
30E180
30E180
30E180
FFFFE0
ENDCHAR
STARTCHAR 0449
ENCODING 1097
SWIDTH 1000 0
DWIDTH 25 0
BBX 19 16 3 -4
BITMAP
FBF7E0
30E180
30E180
30E180
30E180
30E180
30E180
30E180
30E180
30E180
30E180
FFFFE0
000060
000020
000020
000020
ENDCHAR
STARTCHAR 044A
ENCODING 1098
SWIDTH 1000 0
DWIDTH 25 0
BBX 17 12 4 0
BITMAP
FFE000
C38000
838000
838000
03FC00
038300
038180
038180
038180
038180
038300
0FFC00
ENDCHAR
STARTCHAR 044B
ENCODING 1099
SWIDTH 1000 0
DWIDTH 25 0
BBX 19 12 3 0
BITMAP
FC07E0
300180
300180
300180
3F0180
30E180
307180
307180
307180
307180
30E180
FF07E0
ENDCHAR
STARTCHAR 044C
ENCODING 1100
SWIDTH 1000 0
DWIDTH 25 0
BBX 13 12 6 0
BITMAP
FE00
3000
3000
3000
3FC0
3030
3018
3018
3018
3018
3030
FFC0
ENDCHAR
STARTCHAR 044D
ENCODING 1101
SWIDTH 1000 0
DWIDTH 25 0
BBX 14 12 6 0
BITMAP
0F80
3060
6030
4018
0E18
1FEC
20CC
0018
8018
4030
3060
0F80
ENDCHAR
STARTCHAR 044E
ENCODING 1102
SWIDTH 1000 0
DWIDTH 25 0
BBX 19 12 3 0
BITMAP
FC0E00
307180
30E0C0
30E0C0
31C060
3FC060
31C060
31C060
30E0C0
30E0C0
307180
FC0E00
ENDCHAR
STARTCHAR 044F
ENCODING 1103
SWIDTH 1000 0
DWIDTH 25 0
BBX 16 12 4 0
BITMAP
07FF
180C
300C
300C
300C
180C
07FC
060C
0C0C
180C
300C
FC3F
ENDCHAR
STARTCHAR 0451
ENCODING 1105
SWIDTH 1000 0
DWIDTH 25 0
BBX 14 17 5 0
BITMAP
1C70
1C70
0000
0000
0000
07C0
1830
3018
6018
600C
FFFC
C000
6000
6000
3004
1C18
07E0
ENDCHAR
STARTCHAR 2000
ENCODING 8192
SWIDTH 1000 0
DWIDTH 25 0
BBX 0 0 0 0
BITMAP
ENDCHAR
STARTCHAR 2001
ENCODING 8193
SWIDTH 1000 0
DWIDTH 25 0
BBX 0 0 0 0
BITMAP
ENDCHAR
STARTCHAR 2002
ENCODING 8194
SWIDTH 1000 0
DWIDTH 25 0
BBX 0 0 0 0
BITMAP
ENDCHAR
STARTCHAR 2003
ENCODING 8195
SWIDTH 1000 0
DWIDTH 25 0
BBX 0 0 0 0
BITMAP
ENDCHAR
STARTCHAR 2004
ENCODING 8196
SWIDTH 1000 0
DWIDTH 25 0
BBX 0 0 0 0
BITMAP
ENDCHAR
STARTCHAR 2005
ENCODING 8197
SWIDTH 1000 0
DWIDTH 25 0
BBX 0 0 0 0
BITMAP
ENDCHAR
STARTCHAR 2006
ENCODING 8198
SWIDTH 1000 0
DWIDTH 25 0
BBX 0 0 0 0
BITMAP
ENDCHAR
STARTCHAR 2007
ENCODING 8199
SWIDTH 1000 0
DWIDTH 25 0
BBX 0 0 0 0
BITMAP
ENDCHAR
STARTCHAR 2008
ENCODING 8200
SWIDTH 1000 0
DWIDTH 25 0
BBX 0 0 0 0
BITMAP
ENDCHAR
STARTCHAR 2009
ENCODING 8201
SWIDTH 1000 0
DWIDTH 25 0
BBX 0 0 0 0
BITMAP
ENDCHAR
STARTCHAR 200A
ENCODING 8202
SWIDTH 1000 0
DWIDTH 25 0
BBX 0 0 0 0
BITMAP
ENDCHAR
STARTCHAR 200B
ENCODING 8203
SWIDTH 520 0
DWIDTH 13 0
BBX 0 0 0 0
BITMAP
ENDCHAR
STARTCHAR 200C
ENCODING 8204
SWIDTH 520 0
DWIDTH 13 0
BBX 0 0 0 0
BITMAP
ENDCHAR
STARTCHAR 200D
ENCODING 8205
SWIDTH 520 0
DWIDTH 13 0
BBX 0 0 0 0
BITMAP
ENDCHAR
STARTCHAR 200E
ENCODING 8206
SWIDTH 520 0
DWIDTH 13 0
BBX 0 0 0 0
BITMAP
ENDCHAR
STARTCHAR 200F
ENCODING 8207
SWIDTH 520 0
DWIDTH 13 0
BBX 0 0 0 0
BITMAP
ENDCHAR
STARTCHAR 2010
ENCODING 8208
SWIDTH 1000 0
DWIDTH 25 0
BBX 9 1 8 9
BITMAP
FF80
ENDCHAR
STARTCHAR 2015
ENCODING 8213
SWIDTH 1000 0
DWIDTH 25 0
BBX 25 1 0 9
BITMAP
FFFFFF80
ENDCHAR
STARTCHAR 2016
ENCODING 8214
SWIDTH 1000 0
DWIDTH 25 0
BBX 6 25 9 -4
BITMAP
84
84
84
84
84
84
84
84
84
84
84
84
84
84
84
84
84
84
84
84
84
84
84
84
84
ENDCHAR
STARTCHAR 2018
ENCODING 8216
SWIDTH 1000 0
DWIDTH 25 0
BBX 4 7 18 14
BITMAP
10
20
40
C0
E0
E0
40
ENDCHAR
STARTCHAR 2019
ENCODING 8217
SWIDTH 1000 0
DWIDTH 25 0
BBX 4 7 3 14
BITMAP
20
70
70
30
20
40
80
ENDCHAR
STARTCHAR 201C
ENCODING 8220
SWIDTH 1000 0
DWIDTH 25 0
BBX 9 7 15 14
BITMAP
1080
2100
4200
C600
E700
E700
4200
ENDCHAR
STARTCHAR 201D
ENCODING 8221
SWIDTH 1000 0
DWIDTH 25 0
BBX 9 7 1 14
BITMAP
2100
7380
7380
3180
2100
4200
8400
ENDCHAR
STARTCHAR 2020
ENCODING 8224
SWIDTH 1000 0
DWIDTH 25 0
BBX 12 25 6 -4
BITMAP
0600
0F00
0F00
0600
6660
FFF0
6660
0600
0600
0F00
1F80
0F00
0F00
0F00
0F00
0F00
0F00
0600
0600
0600
0600
0600
0600
0600
0600
ENDCHAR
STARTCHAR 2021
ENCODING 8225
SWIDTH 1000 0
DWIDTH 25 0
BBX 12 25 6 -4
BITMAP
0600
0F00
0F00
0600
6660
FFF0
6660
0600
1F80
0F00
0600
0600
0600
0600
0F00
1F80
0600
6660
FFF0
6660
0600
0F00
0F00
0600
0600
ENDCHAR
STARTCHAR 2025
ENCODING 8229
SWIDTH 1000 0
DWIDTH 25 0
BBX 17 3 4 8
BITMAP
E00380
E00380
E00380
ENDCHAR
STARTCHAR 2026
ENCODING 8230
SWIDTH 1000 0
DWIDTH 25 0
BBX 22 3 1 8
BITMAP
E0781C
E0781C
E0781C
ENDCHAR
STARTCHAR 2030
ENCODING 8240
SWIDTH 1000 0
DWIDTH 25 0
BBX 24 22 0 -2
BITMAP
180000
660200
420C00
C31800
C31800
C32000
C34000
424000
668000
190000
010000
020000
046018
059C66
090C42
130EC3
130EC3
230EC3
430EC3
410C42
819C66
006018
ENDCHAR
STARTCHAR 2032
ENCODING 8242
SWIDTH 1000 0
DWIDTH 25 0
BBX 5 6 3 14
BITMAP
20
38
30
60
40
80
ENDCHAR
STARTCHAR 2033
ENCODING 8243
SWIDTH 1000 0
DWIDTH 25 0
BBX 10 6 1 14
BITMAP
2100
39C0
3180
6300
4200
8400
ENDCHAR
STARTCHAR 203B
ENCODING 8251
SWIDTH 1000 0
DWIDTH 25 0
BBX 20 19 2 0
BITMAP
800010
40F020
20F040
10F080
080100
040200
020400
010800
70B0E0
7060E0
70B0E0
010800
020400
040200
080100
10F080
20F040
40F020
800010
ENDCHAR
STARTCHAR 203E
ENCODING 8254
SWIDTH 520 0
DWIDTH 13 0
BBX 10 1 1 18
BITMAP
FFC0
ENDCHAR
STARTCHAR 2103
ENCODING 8451
SWIDTH 1000 0
DWIDTH 25 0
BBX 24 20 0 -1
BITMAP
300000
4803E0
841C1A
84600E
48C006
318002
018002
030002
030000
030000
030000
030000
030000
030000
018001
018002
00C004
006008
003830
000FC0
ENDCHAR
STARTCHAR 2116
ENCODING 8470
SWIDTH 1000 0
DWIDTH 25 0
BBX 24 18 1 0
BITMAP
E1C000
708000
708000
508000
588000
588000
5881C0
4C8630
4C8418
4C9C18
469C18
469C18
469C18
439C18
439C18
438410
418633
E181C3
ENDCHAR
STARTCHAR 2121
ENCODING 8481
SWIDTH 1000 0
DWIDTH 25 0
BBX 24 18 0 0
BITMAP
FFE000
CC6000
8C2000
8C2000
0C0000
0C0000
0CFF78
0C6330
0C6130
0C6230
0C6230
0C7E30
0C6230
0C6230
0C6131
0C6131
0C6333
3FFF7F
ENDCHAR
STARTCHAR 212B
ENCODING 8491
SWIDTH 1000 0
DWIDTH 25 0
BBX 21 22 2 -1
BITMAP
007000
008800
010400
010400
008800
007000
000000
007000
007000
00B800
00B800
010C00
010C00
020600
020600
040300
040300
0FFF80
080180
1000C0
1000C0
FC03F8
ENDCHAR
STARTCHAR 2160
ENCODING 8544
SWIDTH 1000 0
DWIDTH 25 0
BBX 9 20 8 -1
BITMAP
FF80
1C00
1C00
1C00
1C00
1C00
1C00
1C00
1C00
1C00
1C00
1C00
1C00
1C00
1C00
1C00
1C00
1C00
1C00
FF80
ENDCHAR
STARTCHAR 2161
ENCODING 8545
SWIDTH 1000 0
DWIDTH 25 0
BBX 13 20 6 -1
BITMAP
FFF8
3060
3060
3060
3060
3060
3060
3060
3060
3060
3060
3060
3060
3060
3060
3060
3060
3060
3060
FFF8
ENDCHAR
STARTCHAR 2162
ENCODING 8546
SWIDTH 1000 0
DWIDTH 25 0
BBX 17 20 4 -1
BITMAP
FFFF80
31C600
31C600
31C600
31C600
31C600
31C600
31C600
31C600
31C600
31C600
31C600
31C600
31C600
31C600
31C600
31C600
31C600
31C600
FFFF80
ENDCHAR
STARTCHAR 2163
ENCODING 8547
SWIDTH 1000 0
DWIDTH 25 0
BBX 21 20 2 -1
BITMAP
FFF0F8
1B0020
1B0020
198040
198040
198040
198040
18E080
18E080
18E080
187100
187100
187100
187100
183A00
183A00
183A00
180C00
180C00
FF0C00
ENDCHAR
STARTCHAR 2164
ENCODING 8548
SWIDTH 1000 0
DWIDTH 25 0
BBX 19 20 3 -1
BITMAP
FC03E0
300080
300080
180100
180100
180100
0C0200
0C0200
0C0200
060400
060400
060400
030800
030800
030800
01D000
01D000
00E000
00E000
00E000
ENDCHAR
STARTCHAR 2165
ENCODING 8549
SWIDTH 1000 0
DWIDTH 25 0
BBX 21 20 1 -1
BITMAP
FC3FF8
3002C0
3002C0
1804C0
1804C0
1804C0
1804C0
0C18C0
0C18C0
0C18C0
0630C0
0630C0
0630C0
0630C0
0340C0
0340C0
0340C0
0180C0
0180C0
0187F8
ENDCHAR
STARTCHAR 2166
ENCODING 8550
SWIDTH 1000 0
DWIDTH 25 0
BBX 22 20 1 -1
BITMAP
FC7FFC
301B30
301B30
301B30
183330
183330
183330
183330
0C4330
0C4330
0C4330
0C4330
068330
068330
068330
068330
030330
030330
030330
031FFC
ENDCHAR
STARTCHAR 2167
ENCODING 8551
SWIDTH 1000 0
DWIDTH 25 0
BBX 24 20 0 -1
BITMAP
F8FFFF
602E66
602E66
602E66
304E66
304E66
304E66
304E66
188E66
188E66
188E66
188E66
0D0E66
0D0E66
0D0E66
0D0E66
060E66
060E66
060E66
063FFF
ENDCHAR
STARTCHAR 2168
ENCODING 8552
SWIDTH 1000 0
DWIDTH 25 0
BBX 21 20 2 -1
BITMAP
FFF1F8
1B0040
198040
198080
18E080
18E100
187100
187200
183A00
183C00
180C00
180E00
183600
183300
186300
186180
1880C0
1880C0
190060
FFF3F8
ENDCHAR
STARTCHAR 2169
ENCODING 8553
SWIDTH 1000 0
DWIDTH 25 0
BBX 19 20 3 -1
BITMAP
FE0FE0
300100
180200
0C0200
0C0400
060400
030800
031000
01D000
00E000
00F000
017000
011800
020C00
020C00
040600
080300
080300
100180
FE0FE0
ENDCHAR
STARTCHAR 2190
ENCODING 8592
SWIDTH 1000 0
DWIDTH 25 0
BBX 25 9 0 5
BITMAP
02000000
04000000
08000000
30000000
FFFFFF80
30000000
08000000
04000000
02000000
ENDCHAR
STARTCHAR 2191
ENCODING 8593
SWIDTH 1000 0
DWIDTH 25 0
BBX 10 25 7 -4
BITMAP
0C00
0C00
1E00
1E00
2D00
4C80
8C40
0C00
0C00
0C00
0C00
0C00
0C00
0C00
0C00
0C00
0C00
0C00
0C00
0C00
0C00
0C00
0C00
0C00
0C00
ENDCHAR
STARTCHAR 2192
ENCODING 8594
SWIDTH 1000 0
DWIDTH 25 0
BBX 25 9 0 5
BITMAP
00002000
00001000
00000800
00000600
FFFFFF80
00000600
00000800
00001000
00002000
ENDCHAR
STARTCHAR 2193
ENCODING 8595
SWIDTH 1000 0
DWIDTH 25 0
BBX 10 25 7 -4
BITMAP
0C00
0C00
0C00
0C00
0C00
0C00
0C00
0C00
0C00
0C00
0C00
0C00
0C00
0C00
0C00
0C00
0C00
8C40
4C80
2D00
1E00
1E00
0C00
0C00
0C00
ENDCHAR
STARTCHAR 21D2
ENCODING 8658
SWIDTH 1000 0
DWIDTH 25 0
BBX 25 14 0 2
BITMAP
00002000
00001000
00000800
00000400
FFFFFE00
00000100
00000080
00000080
00000100
FFFFFE00
00000400
00000800
00001000
00002000
ENDCHAR
STARTCHAR 21D4
ENCODING 8660
SWIDTH 1000 0
DWIDTH 25 0
BBX 25 14 0 2
BITMAP
02002000
04001000
08000800
10000400
3FFFFE00
40000100
80000080
80000080
40000100
3FFFFE00
10000400
08000800
04001000
02002000
ENDCHAR
STARTCHAR 2200
ENCODING 8704
SWIDTH 1000 0
DWIDTH 25 0
BBX 20 20 2 -1
BITMAP
800010
800010
400020
400020
200040
200040
1FFF80
100080
080100
080100
040200
040200
020400
020400
010800
010800
00B000
00B000
006000
006000
ENDCHAR
STARTCHAR 2202
ENCODING 8706
SWIDTH 1000 0
DWIDTH 25 0
BBX 15 18 5 0
BITMAP
0078
01FC
0706
0802
0002
0006
0006
07C6
182C
301C
600C
6018
C018
C030
C030
4060
61C0
1F00
ENDCHAR
STARTCHAR 2203
ENCODING 8707
SWIDTH 1000 0
DWIDTH 25 0
BBX 15 15 5 2
BITMAP
FFFE
0002
0002
0002
0002
0002
0002
FFFE
0002
0002
0002
0002
0002
0002
FFFE
ENDCHAR
STARTCHAR 2207
ENCODING 8711
SWIDTH 1000 0
DWIDTH 25 0
BBX 21 18 2 0
BITMAP
FFFFF8
7FFFF0
300020
300020
180040
180040
0C0080
0C0080
060100
060100
030200
030200
018400
018400
00E800
00E800
007000
007000
ENDCHAR
STARTCHAR 2208
ENCODING 8712
SWIDTH 1000 0
DWIDTH 25 0
BBX 15 13 5 3
BITMAP
0FFE
3000
4000
4000
8000
8000
FFFE
8000
8000
4000
4000
3000
0FFE
ENDCHAR
STARTCHAR 220B
ENCODING 8715
SWIDTH 1000 0
DWIDTH 25 0
BBX 15 13 5 3
BITMAP
FFE0
0018
0004
0004
0002
0002
FFFE
0002
0002
0004
0004
0018
FFE0
ENDCHAR
STARTCHAR 2211
ENCODING 8721
SWIDTH 1000 0
DWIDTH 25 0
BBX 17 18 3 0
BITMAP
FFFF00
300300
180100
0C0100
060000
030000
01C000
00E000
007000
00E000
01C000
030000
060000
0C0080
180080
300180
7FFF80
FFFF80
ENDCHAR
STARTCHAR 2212
ENCODING 8722
SWIDTH 1000 0
DWIDTH 25 0
BBX 18 1 3 9
BITMAP
FFFFC0
ENDCHAR
STARTCHAR 221A
ENCODING 8730
SWIDTH 1000 0
DWIDTH 25 0
BBX 23 21 0 -2
BITMAP
0003FE
000200
000E00
000C00
000C00
001C00
001800
003800
002000
002000
206000
304000
70C000
588000
988000
0D8000
0D0000
070000
060000
020000
020000
ENDCHAR
STARTCHAR 221D
ENCODING 8733
SWIDTH 1000 0
DWIDTH 25 0
BBX 22 12 1 3
BITMAP
0E00E0
318318
404404
404404
803800
803000
801800
803800
404404
404404
318318
0E00E0
ENDCHAR
STARTCHAR 221E
ENCODING 8734
SWIDTH 1000 0
DWIDTH 25 0
BBX 23 12 1 3
BITMAP
0E00E0
318318
404404
404404
803802
803002
801802
803802
404404
404404
318318
0E00E0
ENDCHAR
STARTCHAR 221F
ENCODING 8735
SWIDTH 1000 0
DWIDTH 25 0
BBX 19 18 3 2
BITMAP
800000
800000
800000
800000
800000
800000
800000
800000
800000
800000
800000
800000
800000
800000
800000
800000
800000
FFFFE0
ENDCHAR
STARTCHAR 2220
ENCODING 8736
SWIDTH 1000 0
DWIDTH 25 0
BBX 18 16 4 2
BITMAP
000080
000100
000200
000400
000800
001000
002000
00C000
018000
020000
040000
080000
100000
200000
400000
FFFFC0
ENDCHAR
STARTCHAR 2227
ENCODING 8743
SWIDTH 1000 0
DWIDTH 25 0
BBX 20 20 2 -1
BITMAP
006000
006000
00B000
00B000
010800
010800
020400
020400
040200
040200
080100
080100
100080
100080
200040
200040
400020
400020
800010
800010
ENDCHAR
STARTCHAR 2228
ENCODING 8744
SWIDTH 1000 0
DWIDTH 25 0
BBX 20 20 2 -1
BITMAP
800010
800010
400020
400020
200040
200040
100080
100080
080100
080100
040200
040200
020400
020400
010800
010800
00B000
00B000
006000
006000
ENDCHAR
STARTCHAR 2229
ENCODING 8745
SWIDTH 1000 0
DWIDTH 25 0
BBX 14 20 5 -1
BITMAP
0780
1860
2010
4008
4008
8004
8004
8004
8004
8004
8004
8004
8004
8004
8004
8004
8004
8004
8004
8004
ENDCHAR
STARTCHAR 222A
ENCODING 8746
SWIDTH 1000 0
DWIDTH 25 0
BBX 14 20 5 -1
BITMAP
8004
8004
8004
8004
8004
8004
8004
8004
8004
8004
8004
8004
8004
8004
8004
4008
4008
2010
1860
0780
ENDCHAR
STARTCHAR 222B
ENCODING 8747
SWIDTH 1000 0
DWIDTH 25 0
BBX 15 25 5 -4
BITMAP
0038
0064
01C6
01CE
01CC
0380
0380
0380
0380
0380
0380
0380
0380
0380
0380
0380
0380
0380
0380
6700
E700
C700
4C00
3800
3800
ENDCHAR
STARTCHAR 222C
ENCODING 8748
SWIDTH 1000 0
DWIDTH 25 0
BBX 17 25 4 -4
BITMAP
0C0600
1E0F00
239180
279380
261300
201000
301800
301800
301800
381C00
180C00
180C00
180C00
1C0E00
0C0600
0C0600
0C0600
0C0600
040200
643200
E4F200
C4E200
783C00
301800
301800
ENDCHAR
STARTCHAR 222E
ENCODING 8750
SWIDTH 1000 0
DWIDTH 25 0
BBX 15 25 5 -4
BITMAP
0038
0064
01C6
01CE
01CC
0380
0380
0FE0
1390
2388
2388
2388
2388
2388
1390
0FE0
0380
0380
0380
6700
E700
C700
4C00
3800
3800
ENDCHAR
STARTCHAR 2234
ENCODING 8756
SWIDTH 1000 0
DWIDTH 25 0
BBX 18 15 3 2
BITMAP
01E000
01E000
01E000
000000
000000
000000
000000
000000
000000
000000
000000
000000
E001C0
E001C0
E001C0
ENDCHAR
STARTCHAR 2235
ENCODING 8757
SWIDTH 1000 0
DWIDTH 25 0
BBX 17 16 4 1
BITMAP
600300
F00780
F00780
600300
000000
000000
000000
000000
000000
000000
000000
000000
01C000
03E000
03E000
01C000
ENDCHAR
STARTCHAR 223D
ENCODING 8765
SWIDTH 1000 0
DWIDTH 25 0
BBX 23 12 1 3
BITMAP
0E00E0
310318
408404
401804
801802
803002
803002
803002
404004
404204
318118
0E00E0
ENDCHAR
STARTCHAR 2252
ENCODING 8786
SWIDTH 1000 0
DWIDTH 25 0
BBX 19 19 3 0
BITMAP
0C0000
1E0000
0C0000
000000
000000
000000
FFFFE0
FFFFE0
000000
000000
000000
FFFFE0
FFFFE0
000000
000000
000000
000600
000F00
000600
ENDCHAR
STARTCHAR 2260
ENCODING 8800
SWIDTH 1000 0
DWIDTH 25 0
BBX 18 16 3 1
BITMAP
000800
000800
001000
001000
006000
FFFFC0
006000
00C000
00C000
010000
FFFFC0
010000
020000
020000
040000
040000
ENDCHAR
STARTCHAR 2261
ENCODING 8801
SWIDTH 1000 0
DWIDTH 25 0
BBX 19 12 3 3
BITMAP
FFFFE0
FFFFE0
000000
000000
000000
FFFFE0
FFFFE0
000000
000000
000000
FFFFE0
FFFFE0
ENDCHAR
STARTCHAR 2266
ENCODING 8806
SWIDTH 1000 0
DWIDTH 25 0
BBX 18 19 3 0
BITMAP
0000C0
000700
001800
01E000
060000
380000
C00000
380000
060000
01E000
001800
000700
0000C0
000000
FFFFC0
000000
000000
000000
FFFFC0
ENDCHAR
STARTCHAR 2267
ENCODING 8807
SWIDTH 1000 0
DWIDTH 25 0
BBX 18 19 3 0
BITMAP
C00000
380000
060000
01E000
001800
000700
0000C0
000700
001800
01E000
060000
380000
C00000
000000
FFFFC0
000000
000000
000000
FFFFC0
ENDCHAR
STARTCHAR 226A
ENCODING 8810
SWIDTH 1000 0
DWIDTH 25 0
BBX 21 19 2 0
BITMAP
000618
000820
0070C0
008100
010200
060C00
083000
106000
618000
820000
618000
106000
083000
060C00
010200
008100
0070C0
000820
000618
ENDCHAR
STARTCHAR 226B
ENCODING 8811
SWIDTH 1000 0
DWIDTH 25 0
BBX 21 19 2 0
BITMAP
C30000
208000
187000
040800
020400
018300
006080
003040
000C30
000208
000C30
003040
006080
018300
020400
040800
187000
208000
C30000
ENDCHAR
STARTCHAR 2282
ENCODING 8834
SWIDTH 1000 0
DWIDTH 25 0
BBX 19 14 3 2
BITMAP
07FFE0
180000
200000
400000
400000
800000
800000
800000
800000
400000
400000
200000
180000
07FFE0
ENDCHAR
STARTCHAR 2283
ENCODING 8835
SWIDTH 1000 0
DWIDTH 25 0
BBX 19 14 3 2
BITMAP
FFFC00
000300
000080
000040
000040
000020
000020
000020
000020
000040
000040
000080
000300
FFFC00
ENDCHAR
STARTCHAR 2286
ENCODING 8838
SWIDTH 1000 0
DWIDTH 25 0
BBX 19 16 3 1
BITMAP
0FFFE0
300000
400000
400000
800000
800000
800000
800000
400000
400000
300000
0FFFE0
000000
000000
000000
FFFFE0
ENDCHAR
STARTCHAR 2287
ENCODING 8839
SWIDTH 1000 0
DWIDTH 25 0
BBX 19 16 3 1
BITMAP
FFFE00
000180
000040
000040
000020
000020
000020
000020
000040
000040
000180
FFFE00
000000
000000
000000
FFFFE0
ENDCHAR
STARTCHAR 22A5
ENCODING 8869
SWIDTH 1000 0
DWIDTH 25 0
BBX 20 18 2 2
BITMAP
006000
006000
006000
006000
006000
006000
006000
006000
006000
006000
006000
006000
006000
006000
006000
006000
006000
FFFFF0
ENDCHAR
STARTCHAR 22BF
ENCODING 8895
SWIDTH 1000 0
DWIDTH 25 0
BBX 17 16 3 2
BITMAP
000080
000180
000280
000480
000880
001080
006080
00C080
010080
020080
040080
080080
100080
200080
400080
FFFF80
ENDCHAR
STARTCHAR 2312
ENCODING 8978
SWIDTH 1000 0
DWIDTH 25 0
BBX 25 4 0 17
BITMAP
01FFC000
1FFFFC00
70000700
80000080
ENDCHAR
STARTCHAR 2460
ENCODING 9312
SWIDTH 1000 0
DWIDTH 25 0
BBX 23 22 1 -2
BITMAP
00FE00
030180
0C0060
103810
207808
21F808
403804
403804
803802
803802
803802
803802
803802
803802
403804
403804
203808
21FF08
100010
0C0060
030180
00FE00
ENDCHAR
STARTCHAR 2461
ENCODING 9313
SWIDTH 1000 0
DWIDTH 25 0
BBX 23 22 1 -2
BITMAP
00FE00
030180
0C0060
107C10
218308
230308
430184
400184
800182
800302
800602
801802
803002
804002
408084
410084
23FF88
23FF88
100010
0C0060
030180
00FE00
ENDCHAR
STARTCHAR 2462
ENCODING 9314
SWIDTH 1000 0
DWIDTH 25 0
BBX 23 22 1 -2
BITMAP
00FE00
030180
0C0060
10F810
218608
230308
430304
400304
800602
80FE02
800302
800182
800182
830182
430184
430184
218308
207C08
100010
0C0060
030180
00FE00
ENDCHAR
STARTCHAR 2463
ENCODING 9315
SWIDTH 1000 0
DWIDTH 25 0
BBX 23 22 1 -2
BITMAP
00FE00
030180
0C0060
101C10
203C08
203C08
405C04
405C04
809C02
809C02
811C02
811C02
821C02
87FF82
401C04
401C04
201C08
207F08
100010
0C0060
030180
00FE00
ENDCHAR
STARTCHAR 2464
ENCODING 9316
SWIDTH 1000 0
DWIDTH 25 0
BBX 23 22 1 -2
BITMAP
00FE00
030180
0C0060
100010
21FF08
21FF08
410004
410004
810002
81FC02
818302
810182
800182
800182
430184
430184
218308
207C08
100010
0C0060
030180
00FE00
ENDCHAR
STARTCHAR 2465
ENCODING 9317
SWIDTH 1000 0
DWIDTH 25 0
BBX 23 22 1 -2
BITMAP
00FE00
030180
0C0060
100010
207C08
218308
410184
430184
830002
830002
837E02
838302
830182
830182
430184
410184
218308
207C08
100010
0C0060
030180
00FE00
ENDCHAR
STARTCHAR 2466
ENCODING 9318
SWIDTH 1000 0
DWIDTH 25 0
BBX 23 22 1 -2
BITMAP
00FE00
030180
0C0060
100010
23FF88
23FF88
420104
420204
800202
800402
801C02
801802
803802
803002
407004
407004
20C008
20C008
100010
0C0060
030180
00FE00
ENDCHAR
STARTCHAR 2467
ENCODING 9319
SWIDTH 1000 0
DWIDTH 25 0
BBX 23 22 1 -2
BITMAP
00FE00
030180
0C0060
107C10
208208
218308
418304
418304
808202
807C02
818302
810102
830182
830182
430184
410104
218308
207C08
100010
0C0060
030180
00FE00
ENDCHAR
STARTCHAR 2468
ENCODING 9320
SWIDTH 1000 0
DWIDTH 25 0
BBX 23 22 1 -2
BITMAP
00FE00
030180
0C0060
100010
207C08
218308
430104
430184
830182
830182
818382
80FD82
800182
800182
430184
430104
218308
207C08
100010
0C0060
030180
00FE00
ENDCHAR
STARTCHAR 2469
ENCODING 9321
SWIDTH 1000 0
DWIDTH 25 0
BBX 23 22 1 -2
BITMAP
00FE00
030180
0C0060
100010
210708
231888
4F38C4
4338C4
8338C2
8338C2
8338C2
8338C2
8338C2
8338C2
4338C4
4338C4
231888
2FC708
100010
0C0060
030180
00FE00
ENDCHAR
STARTCHAR 246A
ENCODING 9322
SWIDTH 1000 0
DWIDTH 25 0
BBX 23 22 1 -2
BITMAP
00FE00
030180
0C0060
100010
208108
218308
479F04
418304
818302
818302
818302
818302
818302
818302
418304
418304
218308
27DFC8
100010
0C0060
030180
00FE00
ENDCHAR
STARTCHAR 246B
ENCODING 9323
SWIDTH 1000 0
DWIDTH 25 0
BBX 23 22 1 -2
BITMAP
00FE00
030180
0C0060
100010
210708
231888
4F38C4
4338C4
8300C2
830182
830302
830602
830402
831802
431844
433044
233FC8
2FFFC8
100010
0C0060
030180
00FE00
ENDCHAR
STARTCHAR 246C
ENCODING 9324
SWIDTH 1000 0
DWIDTH 25 0
BBX 23 22 1 -2
BITMAP
00FE00
030180
0C0060
100010
210708
231888
4F38C4
4338C4
8300C2
830182
830702
830182
8300C2
8300C2
4338C4
4338C4
231888
2FC708
100010
0C0060
030180
00FE00
ENDCHAR
STARTCHAR 246D
ENCODING 9325
SWIDTH 1000 0
DWIDTH 25 0
BBX 23 22 1 -2
BITMAP
00FE00
030180
0C0060
100010
210188
230388
4F0384
430584
830582
831982
831982
833182
833FE2
830182
430184
430184
230188
2FC7E8
100010
0C0060
030180
00FE00
ENDCHAR
STARTCHAR 246E
ENCODING 9326
SWIDTH 1000 0
DWIDTH 25 0
BBX 23 22 1 -2
BITMAP
00FE00
030180
0C0060
100010
211F88
231F88
4F1804
431804
831F02
831C82
8318C2
8300C2
8300C2
8300C2
4338C4
4338C4
231888
2FC708
100010
0C0060
030180
00FE00
ENDCHAR
STARTCHAR 246F
ENCODING 9327
SWIDTH 1000 0
DWIDTH 25 0
BBX 23 22 1 -2
BITMAP
00FE00
030180
0C0060
100010
210708
231988
4F3984
433804
833802
833B02
833C82
8338C2
8338C2
8338C2
4338C4
4338C4
231888
2FC708
100010
0C0060
030180
00FE00
ENDCHAR
STARTCHAR 2470
ENCODING 9328
SWIDTH 1000 0
DWIDTH 25 0
BBX 23 22 1 -2
BITMAP
00FE00
030180
0C0060
100010
213FC8
233FC8
4F3084
433084
830102
830102
830302
830202
830602
830602
430404
431C04
231C08
2FDC08
100010
0C0060
030180
00FE00
ENDCHAR
STARTCHAR 2471
ENCODING 9329
SWIDTH 1000 0
DWIDTH 25 0
BBX 23 22 1 -2
BITMAP
00FE00
030180
0C0060
100010
210708
231888
4F38C4
4338C4
8338C2
831882
831F82
8338C2
8338C2
8338C2
4338C4
4338C4
231888
2FC708
100010
0C0060
030180
00FE00
ENDCHAR
STARTCHAR 2472
ENCODING 9330
SWIDTH 1000 0
DWIDTH 25 0
BBX 23 22 1 -2
BITMAP
00FE00
030180
0C0060
100010
210708
231888
4F38C4
4338C4
8338C2
8338C2
8339C2
831EC2
8300C2
8300C2
4338C4
4338C4
231888
2FC708
100010
0C0060
030180
00FE00
ENDCHAR
STARTCHAR 2473
ENCODING 9331
SWIDTH 1000 0
DWIDTH 25 0
BBX 23 22 1 -2
BITMAP
00FE00
030180
0C0060
100010
238308
24C488
4CDCC4
4CDCC4
80DCC2
809CC2
819CC2
811CC2
821CC2
821CC2
445CC4
445CC4
2FC488
2FC308
100010
0C0060
030180
00FE00
ENDCHAR
STARTCHAR 2500
ENCODING 9472
SWIDTH 1000 0
DWIDTH 25 0
BBX 25 1 0 9
BITMAP
FFFFFF80
ENDCHAR
STARTCHAR 2501
ENCODING 9473
SWIDTH 1000 0
DWIDTH 25 0
BBX 25 3 0 8
BITMAP
FFFFFF80
FFFFFF80
FFFFFF80
ENDCHAR
STARTCHAR 2502
ENCODING 9474
SWIDTH 1000 0
DWIDTH 25 0
BBX 2 25 11 -4
BITMAP
C0
C0
C0
C0
C0
C0
C0
C0
C0
C0
C0
C0
C0
C0
C0
C0
C0
C0
C0
C0
C0
C0
C0
C0
C0
ENDCHAR
STARTCHAR 2503
ENCODING 9475
SWIDTH 1000 0
DWIDTH 25 0
BBX 4 25 10 -4
BITMAP
F0
F0
F0
F0
F0
F0
F0
F0
F0
F0
F0
F0
F0
F0
F0
F0
F0
F0
F0
F0
F0
F0
F0
F0
F0
ENDCHAR
STARTCHAR 2504
ENCODING 9476
SWIDTH 1000 0
DWIDTH 25 0
BBX 24 1 0 9
BITMAP
DB6EDB
ENDCHAR
STARTCHAR 2505
ENCODING 9477
SWIDTH 1000 0
DWIDTH 25 0
BBX 24 3 0 8
BITMAP
DB6EDB
DB6EDB
DB6EDB
ENDCHAR
STARTCHAR 2506
ENCODING 9478
SWIDTH 1000 0
DWIDTH 25 0
BBX 2 23 11 -2
BITMAP
C0
C0
00
C0
C0
00
C0
C0
00
C0
C0
00
C0
C0
00
C0
C0
00
C0
C0
00
C0
C0
ENDCHAR
STARTCHAR 2507
ENCODING 9479
SWIDTH 1000 0
DWIDTH 25 0
BBX 4 23 10 -2
BITMAP
F0
F0
00
F0
F0
00
F0
F0
00
F0
F0
00
F0
F0
00
F0
F0
00
F0
F0
00
F0
F0
ENDCHAR
STARTCHAR 2508
ENCODING 9480
SWIDTH 1000 0
DWIDTH 25 0
BBX 23 1 0 9
BITMAP
924C92
ENDCHAR
STARTCHAR 2509
ENCODING 9481
SWIDTH 1000 0
DWIDTH 25 0
BBX 23 3 0 8
BITMAP
924C92
924C92
924C92
ENDCHAR
STARTCHAR 250A
ENCODING 9482
SWIDTH 1000 0
DWIDTH 25 0
BBX 2 22 11 -1
BITMAP
C0
00
00
C0
00
00
C0
00
00
C0
00
00
C0
00
00
C0
00
00
C0
00
00
C0
ENDCHAR
STARTCHAR 250B
ENCODING 9483
SWIDTH 1000 0
DWIDTH 25 0
BBX 4 22 10 -1
BITMAP
F0
00
00
F0
00
00
F0
00
00
F0
00
00
F0
00
00
F0
00
00
F0
00
00
F0
ENDCHAR
STARTCHAR 250C
ENCODING 9484
SWIDTH 1000 0
DWIDTH 25 0
BBX 14 14 11 -4
BITMAP
FFFC
C000
C000
C000
C000
C000
C000
C000
C000
C000
C000
C000
C000
C000
ENDCHAR
STARTCHAR 250D
ENCODING 9485
SWIDTH 1000 0
DWIDTH 25 0
BBX 14 15 11 -4
BITMAP
FFFC
FFFC
FFFC
C000
C000
C000
C000
C000
C000
C000
C000
C000
C000
C000
C000
ENDCHAR
STARTCHAR 250E
ENCODING 9486
SWIDTH 1000 0
DWIDTH 25 0
BBX 15 14 10 -4
BITMAP
FFFE
F000
F000
F000
F000
F000
F000
F000
F000
F000
F000
F000
F000
F000
ENDCHAR
STARTCHAR 250F
ENCODING 9487
SWIDTH 1000 0
DWIDTH 25 0
BBX 15 15 10 -4
BITMAP
FFFE
FFFE
FFFE
F000
F000
F000
F000
F000
F000
F000
F000
F000
F000
F000
F000
ENDCHAR
STARTCHAR 2510
ENCODING 9488
SWIDTH 1000 0
DWIDTH 25 0
BBX 13 14 0 -4
BITMAP
FFF8
0018
0018
0018
0018
0018
0018
0018
0018
0018
0018
0018
0018
0018
ENDCHAR
STARTCHAR 2511
ENCODING 9489
SWIDTH 1000 0
DWIDTH 25 0
BBX 13 15 0 -4
BITMAP
FFF8
FFF8
FFF8
0018
0018
0018
0018
0018
0018
0018
0018
0018
0018
0018
0018
ENDCHAR
STARTCHAR 2512
ENCODING 9490
SWIDTH 1000 0
DWIDTH 25 0
BBX 14 14 0 -4
BITMAP
FFFC
003C
003C
003C
003C
003C
003C
003C
003C
003C
003C
003C
003C
003C
ENDCHAR
STARTCHAR 2513
ENCODING 9491
SWIDTH 1000 0
DWIDTH 25 0
BBX 14 15 0 -4
BITMAP
FFFC
FFFC
FFFC
003C
003C
003C
003C
003C
003C
003C
003C
003C
003C
003C
003C
ENDCHAR
STARTCHAR 2514
ENCODING 9492
SWIDTH 1000 0
DWIDTH 25 0
BBX 14 12 11 9
BITMAP
C000
C000
C000
C000
C000
C000
C000
C000
C000
C000
C000
FFFC
ENDCHAR
STARTCHAR 2515
ENCODING 9493
SWIDTH 1000 0
DWIDTH 25 0
BBX 14 13 11 8
BITMAP
C000
C000
C000
C000
C000
C000
C000
C000
C000
C000
FFFC
FFFC
FFFC
ENDCHAR
STARTCHAR 2516
ENCODING 9494
SWIDTH 1000 0
DWIDTH 25 0
BBX 15 12 10 9
BITMAP
F000
F000
F000
F000
F000
F000
F000
F000
F000
F000
F000
FFFE
ENDCHAR
STARTCHAR 2517
ENCODING 9495
SWIDTH 1000 0
DWIDTH 25 0
BBX 15 13 10 8
BITMAP
F000
F000
F000
F000
F000
F000
F000
F000
F000
F000
FFFE
FFFE
FFFE
ENDCHAR
STARTCHAR 2518
ENCODING 9496
SWIDTH 1000 0
DWIDTH 25 0
BBX 13 12 0 9
BITMAP
0018
0018
0018
0018
0018
0018
0018
0018
0018
0018
0018
FFF8
ENDCHAR
STARTCHAR 2519
ENCODING 9497
SWIDTH 1000 0
DWIDTH 25 0
BBX 13 13 0 8
BITMAP
0018
0018
0018
0018
0018
0018
0018
0018
0018
0018
FFF8
FFF8
FFF8
ENDCHAR
STARTCHAR 251A
ENCODING 9498
SWIDTH 1000 0
DWIDTH 25 0
BBX 14 12 0 9
BITMAP
003C
003C
003C
003C
003C
003C
003C
003C
003C
003C
003C
FFFC
ENDCHAR
STARTCHAR 251B
ENCODING 9499
SWIDTH 1000 0
DWIDTH 25 0
BBX 14 13 0 8
BITMAP
003C
003C
003C
003C
003C
003C
003C
003C
003C
003C
FFFC
FFFC
FFFC
ENDCHAR
STARTCHAR 251C
ENCODING 9500
SWIDTH 1000 0
DWIDTH 25 0
BBX 14 25 11 -4
BITMAP
C000
C000
C000
C000
C000
C000
C000
C000
C000
C000
C000
FFFC
C000
C000
C000
C000
C000
C000
C000
C000
C000
C000
C000
C000
C000
ENDCHAR
STARTCHAR 251D
ENCODING 9501
SWIDTH 1000 0
DWIDTH 25 0
BBX 14 25 11 -4
BITMAP
C000
C000
C000
C000
C000
C000
C000
C000
C000
C000
FFFC
FFFC
FFFC
C000
C000
C000
C000
C000
C000
C000
C000
C000
C000
C000
C000
ENDCHAR
STARTCHAR 251E
ENCODING 9502
SWIDTH 1000 0
DWIDTH 25 0
BBX 15 25 10 -4
BITMAP
F000
F000
F000
F000
F000
F000
F000
F000
F000
F000
F000
FFFE
6000
6000
6000
6000
6000
6000
6000
6000
6000
6000
6000
6000
6000
ENDCHAR
STARTCHAR 251F
ENCODING 9503
SWIDTH 1000 0
DWIDTH 25 0
BBX 15 25 10 -4
BITMAP
6000
6000
6000
6000
6000
6000
6000
6000
6000
6000
6000
FFFE
F000
F000
F000
F000
F000
F000
F000
F000
F000
F000
F000
F000
F000
ENDCHAR
STARTCHAR 2520
ENCODING 9504
SWIDTH 1000 0
DWIDTH 25 0
BBX 15 25 10 -4
BITMAP
F000
F000
F000
F000
F000
F000
F000
F000
F000
F000
F000
FFFE
F000
F000
F000
F000
F000
F000
F000
F000
F000
F000
F000
F000
F000
ENDCHAR
STARTCHAR 2521
ENCODING 9505
SWIDTH 1000 0
DWIDTH 25 0
BBX 15 25 10 -4
BITMAP
F000
F000
F000
F000
F000
F000
F000
F000
F000
F000
F000
FFFE
6000
6000
6000
6000
6000
6000
6000
6000
6000
6000
6000
6000
6000
ENDCHAR
STARTCHAR 2522
ENCODING 9506
SWIDTH 1000 0
DWIDTH 25 0
BBX 15 25 10 -4
BITMAP
6000
6000
6000
6000
6000
6000
6000
6000
6000
6000
6000
FFFE
F000
F000
F000
F000
F000
F000
F000
F000
F000
F000
F000
F000
F000
ENDCHAR
STARTCHAR 2523
ENCODING 9507
SWIDTH 1000 0
DWIDTH 25 0
BBX 15 25 10 -4
BITMAP
F000
F000
F000
F000
F000
F000
F000
F000
F000
F000
FFFE
FFFE
FFFE
F000
F000
F000
F000
F000
F000
F000
F000
F000
F000
F000
F000
ENDCHAR
STARTCHAR 2524
ENCODING 9508
SWIDTH 1000 0
DWIDTH 25 0
BBX 13 25 0 -4
BITMAP
0018
0018
0018
0018
0018
0018
0018
0018
0018
0018
0018
FFF8
0018
0018
0018
0018
0018
0018
0018
0018
0018
0018
0018
0018
0018
ENDCHAR
STARTCHAR 2525
ENCODING 9509
SWIDTH 1000 0
DWIDTH 25 0
BBX 13 25 0 -4
BITMAP
0018
0018
0018
0018
0018
0018
0018
0018
0018
0018
FFF8
FFF8
FFF8
0018
0018
0018
0018
0018
0018
0018
0018
0018
0018
0018
0018
ENDCHAR
STARTCHAR 2526
ENCODING 9510
SWIDTH 1000 0
DWIDTH 25 0
BBX 14 25 0 -4
BITMAP
003C
003C
003C
003C
003C
003C
003C
003C
003C
003C
003C
FFFC
0018
0018
0018
0018
0018
0018
0018
0018
0018
0018
0018
0018
0018
ENDCHAR
STARTCHAR 2527
ENCODING 9511
SWIDTH 1000 0
DWIDTH 25 0
BBX 14 25 0 -4
BITMAP
0018
0018
0018
0018
0018
0018
0018
0018
0018
0018
0018
FFFC
003C
003C
003C
003C
003C
003C
003C
003C
003C
003C
003C
003C
003C
ENDCHAR
STARTCHAR 2528
ENCODING 9512
SWIDTH 1000 0
DWIDTH 25 0
BBX 14 25 0 -4
BITMAP
003C
003C
003C
003C
003C
003C
003C
003C
003C
003C
003C
FFFC
003C
003C
003C
003C
003C
003C
003C
003C
003C
003C
003C
003C
003C
ENDCHAR
STARTCHAR 2529
ENCODING 9513
SWIDTH 1000 0
DWIDTH 25 0
BBX 14 25 0 -4
BITMAP
003C
003C
003C
003C
003C
003C
003C
003C
003C
003C
FFFC
FFFC
FFFC
0018
0018
0018
0018
0018
0018
0018
0018
0018
0018
0018
0018
ENDCHAR
STARTCHAR 252A
ENCODING 9514
SWIDTH 1000 0
DWIDTH 25 0
BBX 14 25 0 -4
BITMAP
0018
0018
0018
0018
0018
0018
0018
0018
0018
0018
0018
FFFC
003C
003C
003C
003C
003C
003C
003C
003C
003C
003C
003C
003C
003C
ENDCHAR
STARTCHAR 252B
ENCODING 9515
SWIDTH 1000 0
DWIDTH 25 0
BBX 14 25 0 -4
BITMAP
003C
003C
003C
003C
003C
003C
003C
003C
003C
003C
FFFC
FFFC
FFFC
003C
003C
003C
003C
003C
003C
003C
003C
003C
003C
003C
003C
ENDCHAR
STARTCHAR 252C
ENCODING 9516
SWIDTH 1000 0
DWIDTH 25 0
BBX 25 14 0 -4
BITMAP
FFFFFF80
00180000
00180000
00180000
00180000
00180000
00180000
00180000
00180000
00180000
00180000
00180000
00180000
00180000
ENDCHAR
STARTCHAR 252D
ENCODING 9517
SWIDTH 1000 0
DWIDTH 25 0
BBX 25 15 0 -4
BITMAP
FFF80000
FFFFFF80
FFF80000
00180000
00180000
00180000
00180000
00180000
00180000
00180000
00180000
00180000
00180000
00180000
00180000
ENDCHAR
STARTCHAR 252E
ENCODING 9518
SWIDTH 1000 0
DWIDTH 25 0
BBX 25 15 0 -4
BITMAP
001FFF80
FFFFFF80
001FFF80
00180000
00180000
00180000
00180000
00180000
00180000
00180000
00180000
00180000
00180000
00180000
00180000
ENDCHAR
STARTCHAR 252F
ENCODING 9519
SWIDTH 1000 0
DWIDTH 25 0
BBX 25 15 0 -4
BITMAP
FFFFFF80
FFFFFF80
FFFFFF80
00180000
00180000
00180000
00180000
00180000
00180000
00180000
00180000
00180000
00180000
00180000
00180000
ENDCHAR
STARTCHAR 2530
ENCODING 9520
SWIDTH 1000 0
DWIDTH 25 0
BBX 25 14 0 -4
BITMAP
FFFFFF80
003C0000
003C0000
003C0000
003C0000
003C0000
003C0000
003C0000
003C0000
003C0000
003C0000
003C0000
003C0000
003C0000
ENDCHAR
STARTCHAR 2531
ENCODING 9521
SWIDTH 1000 0
DWIDTH 25 0
BBX 25 15 0 -4
BITMAP
FFFC0000
FFFFFF80
FFFC0000
003C0000
003C0000
003C0000
003C0000
003C0000
003C0000
003C0000
003C0000
003C0000
003C0000
003C0000
003C0000
ENDCHAR
STARTCHAR 2532
ENCODING 9522
SWIDTH 1000 0
DWIDTH 25 0
BBX 25 15 0 -4
BITMAP
001FFF80
FFFFFF80
001FFF80
001E0000
001E0000
001E0000
001E0000
001E0000
001E0000
001E0000
001E0000
001E0000
001E0000
001E0000
001E0000
ENDCHAR
STARTCHAR 2533
ENCODING 9523
SWIDTH 1000 0
DWIDTH 25 0
BBX 25 15 0 -4
BITMAP
FFFFFF80
FFFFFF80
FFFFFF80
003C0000
003C0000
003C0000
003C0000
003C0000
003C0000
003C0000
003C0000
003C0000
003C0000
003C0000
003C0000
ENDCHAR
STARTCHAR 2534
ENCODING 9524
SWIDTH 1000 0
DWIDTH 25 0
BBX 25 12 0 9
BITMAP
00180000
00180000
00180000
00180000
00180000
00180000
00180000
00180000
00180000
00180000
00180000
FFFFFF80
ENDCHAR
STARTCHAR 2535
ENCODING 9525
SWIDTH 1000 0
DWIDTH 25 0
BBX 25 13 0 8
BITMAP
00180000
00180000
00180000
00180000
00180000
00180000
00180000
00180000
00180000
00180000
FFF80000
FFFFFF80
FFF80000
ENDCHAR
STARTCHAR 2536
ENCODING 9526
SWIDTH 1000 0
DWIDTH 25 0
BBX 25 13 0 8
BITMAP
00180000
00180000
00180000
00180000
00180000
00180000
00180000
00180000
00180000
00180000
001FFF80
FFFFFF80
001FFF80
ENDCHAR
STARTCHAR 2537
ENCODING 9527
SWIDTH 1000 0
DWIDTH 25 0
BBX 25 13 0 8
BITMAP
00180000
00180000
00180000
00180000
00180000
00180000
00180000
00180000
00180000
00180000
FFFFFF80
FFFFFF80
FFFFFF80
ENDCHAR
STARTCHAR 2538
ENCODING 9528
SWIDTH 1000 0
DWIDTH 25 0
BBX 25 12 0 9
BITMAP
003C0000
003C0000
003C0000
003C0000
003C0000
003C0000
003C0000
003C0000
003C0000
003C0000
003C0000
FFFFFF80
ENDCHAR
STARTCHAR 2539
ENCODING 9529
SWIDTH 1000 0
DWIDTH 25 0
BBX 25 13 0 8
BITMAP
003C0000
003C0000
003C0000
003C0000
003C0000
003C0000
003C0000
003C0000
003C0000
003C0000
FFFC0000
FFFFFF80
FFFC0000
ENDCHAR
STARTCHAR 253A
ENCODING 9530
SWIDTH 1000 0
DWIDTH 25 0
BBX 25 13 0 8
BITMAP
003C0000
003C0000
003C0000
003C0000
003C0000
003C0000
003C0000
003C0000
003C0000
003C0000
003FFF80
FFFFFF80
003FFF80
ENDCHAR
STARTCHAR 253B
ENCODING 9531
SWIDTH 1000 0
DWIDTH 25 0
BBX 25 13 0 8
BITMAP
003C0000
003C0000
003C0000
003C0000
003C0000
003C0000
003C0000
003C0000
003C0000
003C0000
FFFFFF80
FFFFFF80
FFFFFF80
ENDCHAR
STARTCHAR 253C
ENCODING 9532
SWIDTH 1000 0
DWIDTH 25 0
BBX 25 25 0 -4
BITMAP
00180000
00180000
00180000
00180000
00180000
00180000
00180000
00180000
00180000
00180000
00180000
FFFFFF80
00180000
00180000
00180000
00180000
00180000
00180000
00180000
00180000
00180000
00180000
00180000
00180000
00180000
ENDCHAR
STARTCHAR 253D
ENCODING 9533
SWIDTH 1000 0
DWIDTH 25 0
BBX 25 25 0 -4
BITMAP
00180000
00180000
00180000
00180000
00180000
00180000
00180000
00180000
00180000
00180000
FFF80000
FFFFFF80
FFF80000
00180000
00180000
00180000
00180000
00180000
00180000
00180000
00180000
00180000
00180000
00180000
00180000
ENDCHAR
STARTCHAR 253E
ENCODING 9534
SWIDTH 1000 0
DWIDTH 25 0
BBX 25 25 0 -4
BITMAP
00180000
00180000
00180000
00180000
00180000
00180000
00180000
00180000
00180000
00180000
001FFF80
FFFFFF80
001FFF80
00180000
00180000
00180000
00180000
00180000
00180000
00180000
00180000
00180000
00180000
00180000
00180000
ENDCHAR
STARTCHAR 253F
ENCODING 9535
SWIDTH 1000 0
DWIDTH 25 0
BBX 25 25 0 -4
BITMAP
00180000
00180000
00180000
00180000
00180000
00180000
00180000
00180000
00180000
00180000
FFFFFF80
FFFFFF80
FFFFFF80
00180000
00180000
00180000
00180000
00180000
00180000
00180000
00180000
00180000
00180000
00180000
00180000
ENDCHAR
STARTCHAR 2540
ENCODING 9536
SWIDTH 1000 0
DWIDTH 25 0
BBX 25 25 0 -4
BITMAP
003C0000
003C0000
003C0000
003C0000
003C0000
003C0000
003C0000
003C0000
003C0000
003C0000
003C0000
FFFFFF80
00180000
00180000
00180000
00180000
00180000
00180000
00180000
00180000
00180000
00180000
00180000
00180000
00180000
ENDCHAR
STARTCHAR 2541
ENCODING 9537
SWIDTH 1000 0
DWIDTH 25 0
BBX 25 25 0 -4
BITMAP
00180000
00180000
00180000
00180000
00180000
00180000
00180000
00180000
00180000
00180000
00180000
FFFFFF80
003C0000
003C0000
003C0000
003C0000
003C0000
003C0000
003C0000
003C0000
003C0000
003C0000
003C0000
003C0000
003C0000
ENDCHAR
STARTCHAR 2542
ENCODING 9538
SWIDTH 1000 0
DWIDTH 25 0
BBX 25 25 0 -4
BITMAP
003C0000
003C0000
003C0000
003C0000
003C0000
003C0000
003C0000
003C0000
003C0000
003C0000
003C0000
FFFFFF80
003C0000
003C0000
003C0000
003C0000
003C0000
003C0000
003C0000
003C0000
003C0000
003C0000
003C0000
003C0000
003C0000
ENDCHAR
STARTCHAR 2543
ENCODING 9539
SWIDTH 1000 0
DWIDTH 25 0
BBX 25 25 0 -4
BITMAP
003C0000
003C0000
003C0000
003C0000
003C0000
003C0000
003C0000
003C0000
003C0000
003C0000
FFFC0000
FFFFFF80
FFFC0000
00180000
00180000
00180000
00180000
00180000
00180000
00180000
00180000
00180000
00180000
00180000
00180000
ENDCHAR
STARTCHAR 2544
ENCODING 9540
SWIDTH 1000 0
DWIDTH 25 0
BBX 25 25 0 -4
BITMAP
003C0000
003C0000
003C0000
003C0000
003C0000
003C0000
003C0000
003C0000
003C0000
003C0000
003FFF80
FFFFFF80
003FFF80
00180000
00180000
00180000
00180000
00180000
00180000
00180000
00180000
00180000
00180000
00180000
00180000
ENDCHAR
STARTCHAR 2545
ENCODING 9541
SWIDTH 1000 0
DWIDTH 25 0
BBX 25 25 0 -4
BITMAP
00180000
00180000
00180000
00180000
00180000
00180000
00180000
00180000
00180000
00180000
FFFC0000
FFFFFF80
FFFC0000
003C0000
003C0000
003C0000
003C0000
003C0000
003C0000
003C0000
003C0000
003C0000
003C0000
003C0000
003C0000
ENDCHAR
STARTCHAR 2546
ENCODING 9542
SWIDTH 1000 0
DWIDTH 25 0
BBX 25 25 0 -4
BITMAP
00180000
00180000
00180000
00180000
00180000
00180000
00180000
00180000
00180000
00180000
001FFF80
FFFFFF80
003FFF80
003C0000
003C0000
003C0000
003C0000
003C0000
003C0000
003C0000
003C0000
003C0000
003C0000
003C0000
003C0000
ENDCHAR
STARTCHAR 2547
ENCODING 9543
SWIDTH 1000 0
DWIDTH 25 0
BBX 25 25 0 -4
BITMAP
003C0000
003C0000
003C0000
003C0000
003C0000
003C0000
003C0000
003C0000
003C0000
003C0000
FFFFFF80
FFFFFF80
FFFFFF80
00180000
00180000
00180000
00180000
00180000
00180000
00180000
00180000
00180000
00180000
00180000
00180000
ENDCHAR
STARTCHAR 2548
ENCODING 9544
SWIDTH 1000 0
DWIDTH 25 0
BBX 25 25 0 -4
BITMAP
00180000
00180000
00180000
00180000
00180000
00180000
00180000
00180000
00180000
00180000
FFFFFF80
FFFFFF80
FFFFFF80
003C0000
003C0000
003C0000
003C0000
003C0000
003C0000
003C0000
003C0000
003C0000
003C0000
003C0000
003C0000
ENDCHAR
STARTCHAR 2549
ENCODING 9545
SWIDTH 1000 0
DWIDTH 25 0
BBX 25 25 0 -4
BITMAP
003C0000
003C0000
003C0000
003C0000
003C0000
003C0000
003C0000
003C0000
003C0000
003C0000
FFFC0000
FFFFFF80
FFFC0000
003C0000
003C0000
003C0000
003C0000
003C0000
003C0000
003C0000
003C0000
003C0000
003C0000
003C0000
003C0000
ENDCHAR
STARTCHAR 254A
ENCODING 9546
SWIDTH 1000 0
DWIDTH 25 0
BBX 25 25 0 -4
BITMAP
003C0000
003C0000
003C0000
003C0000
003C0000
003C0000
003C0000
003C0000
003C0000
003C0000
003FFF80
FFFFFF80
003FFF80
003C0000
003C0000
003C0000
003C0000
003C0000
003C0000
003C0000
003C0000
003C0000
003C0000
003C0000
003C0000
ENDCHAR
STARTCHAR 254B
ENCODING 9547
SWIDTH 1000 0
DWIDTH 25 0
BBX 25 25 0 -4
BITMAP
003C0000
003C0000
003C0000
003C0000
003C0000
003C0000
003C0000
003C0000
003C0000
003C0000
FFFFFF80
FFFFFF80
FFFFFF80
003C0000
003C0000
003C0000
003C0000
003C0000
003C0000
003C0000
003C0000
003C0000
003C0000
003C0000
003C0000
ENDCHAR
STARTCHAR 2581
ENCODING 9601
SWIDTH 1000 0
DWIDTH 25 0
BBX 13 4 0 -4
BITMAP
FFF8
FFF8
FFF8
FFF8
ENDCHAR
STARTCHAR 2582
ENCODING 9602
SWIDTH 1000 0
DWIDTH 25 0
BBX 13 7 0 -4
BITMAP
FFF8
FFF8
FFF8
FFF8
FFF8
FFF8
FFF8
ENDCHAR
STARTCHAR 2583
ENCODING 9603
SWIDTH 1000 0
DWIDTH 25 0
BBX 13 10 0 -4
BITMAP
FFF8
FFF8
FFF8
FFF8
FFF8
FFF8
FFF8
FFF8
FFF8
FFF8
ENDCHAR
STARTCHAR 2584
ENCODING 9604
SWIDTH 1000 0
DWIDTH 25 0
BBX 13 13 0 -4
BITMAP
FFF8
FFF8
FFF8
FFF8
FFF8
FFF8
FFF8
FFF8
FFF8
FFF8
FFF8
FFF8
FFF8
ENDCHAR
STARTCHAR 2585
ENCODING 9605
SWIDTH 1000 0
DWIDTH 25 0
BBX 13 16 0 -4
BITMAP
FFF8
FFF8
FFF8
FFF8
FFF8
FFF8
FFF8
FFF8
FFF8
FFF8
FFF8
FFF8
FFF8
FFF8
FFF8
FFF8
ENDCHAR
STARTCHAR 2586
ENCODING 9606
SWIDTH 1000 0
DWIDTH 25 0
BBX 13 19 0 -4
BITMAP
FFF8
FFF8
FFF8
FFF8
FFF8
FFF8
FFF8
FFF8
FFF8
FFF8
FFF8
FFF8
FFF8
FFF8
FFF8
FFF8
FFF8
FFF8
FFF8
ENDCHAR
STARTCHAR 2587
ENCODING 9607
SWIDTH 1000 0
DWIDTH 25 0
BBX 13 22 0 -4
BITMAP
FFF8
FFF8
FFF8
FFF8
FFF8
FFF8
FFF8
FFF8
FFF8
FFF8
FFF8
FFF8
FFF8
FFF8
FFF8
FFF8
FFF8
FFF8
FFF8
FFF8
FFF8
FFF8
ENDCHAR
STARTCHAR 2588
ENCODING 9608
SWIDTH 1000 0
DWIDTH 25 0
BBX 13 25 0 -4
BITMAP
FFF8
FFF8
FFF8
FFF8
FFF8
FFF8
FFF8
FFF8
FFF8
FFF8
FFF8
FFF8
FFF8
FFF8
FFF8
FFF8
FFF8
FFF8
FFF8
FFF8
FFF8
FFF8
FFF8
FFF8
FFF8
ENDCHAR
STARTCHAR 2589
ENCODING 9609
SWIDTH 1000 0
DWIDTH 25 0
BBX 10 25 0 -4
BITMAP
FFC0
FFC0
FFC0
FFC0
FFC0
FFC0
FFC0
FFC0
FFC0
FFC0
FFC0
FFC0
FFC0
FFC0
FFC0
FFC0
FFC0
FFC0
FFC0
FFC0
FFC0
FFC0
FFC0
FFC0
FFC0
ENDCHAR
STARTCHAR 258A
ENCODING 9610
SWIDTH 1000 0
DWIDTH 25 0
BBX 9 25 0 -4
BITMAP
FF80
FF80
FF80
FF80
FF80
FF80
FF80
FF80
FF80
FF80
FF80
FF80
FF80
FF80
FF80
FF80
FF80
FF80
FF80
FF80
FF80
FF80
FF80
FF80
FF80
ENDCHAR
STARTCHAR 258B
ENCODING 9611
SWIDTH 1000 0
DWIDTH 25 0
BBX 7 25 0 -4
BITMAP
FE
FE
FE
FE
FE
FE
FE
FE
FE
FE
FE
FE
FE
FE
FE
FE
FE
FE
FE
FE
FE
FE
FE
FE
FE
ENDCHAR
STARTCHAR 258C
ENCODING 9612
SWIDTH 1000 0
DWIDTH 25 0
BBX 6 25 0 -4
BITMAP
FC
FC
FC
FC
FC
FC
FC
FC
FC
FC
FC
FC
FC
FC
FC
FC
FC
FC
FC
FC
FC
FC
FC
FC
FC
ENDCHAR
STARTCHAR 258D
ENCODING 9613
SWIDTH 1000 0
DWIDTH 25 0
BBX 4 25 0 -4
BITMAP
F0
F0
F0
F0
F0
F0
F0
F0
F0
F0
F0
F0
F0
F0
F0
F0
F0
F0
F0
F0
F0
F0
F0
F0
F0
ENDCHAR
STARTCHAR 258E
ENCODING 9614
SWIDTH 1000 0
DWIDTH 25 0
BBX 3 25 0 -4
BITMAP
E0
E0
E0
E0
E0
E0
E0
E0
E0
E0
E0
E0
E0
E0
E0
E0
E0
E0
E0
E0
E0
E0
E0
E0
E0
ENDCHAR
STARTCHAR 258F
ENCODING 9615
SWIDTH 1000 0
DWIDTH 25 0
BBX 1 25 0 -4
BITMAP
80
80
80
80
80
80
80
80
80
80
80
80
80
80
80
80
80
80
80
80
80
80
80
80
80
ENDCHAR
STARTCHAR 25A0
ENCODING 9632
SWIDTH 1000 0
DWIDTH 25 0
BBX 23 22 1 -2
BITMAP
FFFFFE
FFFFFE
FFFFFE
FFFFFE
FFFFFE
FFFFFE
FFFFFE
FFFFFE
FFFFFE
FFFFFE
FFFFFE
FFFFFE
FFFFFE
FFFFFE
FFFFFE
FFFFFE
FFFFFE
FFFFFE
FFFFFE
FFFFFE
FFFFFE
FFFFFE
ENDCHAR
STARTCHAR 25A1
ENCODING 9633
SWIDTH 1000 0
DWIDTH 25 0
BBX 23 22 1 -2
BITMAP
FFFFFE
800002
800002
800002
800002
800002
800002
800002
800002
800002
800002
800002
800002
800002
800002
800002
800002
800002
800002
800002
800002
FFFFFE
ENDCHAR
STARTCHAR 25B2
ENCODING 9650
SWIDTH 1000 0
DWIDTH 25 0
BBX 24 20 0 0
BITMAP
001800
001800
003C00
003C00
007E00
007E00
00FF00
01FF80
01FF80
03FFC0
03FFC0
07FFE0
07FFE0
0FFFF0
1FFFF8
1FFFF8
3FFFFC
3FFFFC
7FFFFE
FFFFFF
ENDCHAR
STARTCHAR 25B3
ENCODING 9651
SWIDTH 1000 0
DWIDTH 25 0
BBX 24 20 0 0
BITMAP
001800
001800
002C00
002C00
004200
004200
008100
010080
010080
020040
020040
040020
040020
080010
100008
100008
200004
200004
400002
FFFFFF
ENDCHAR
STARTCHAR 25BC
ENCODING 9660
SWIDTH 1000 0
DWIDTH 25 0
BBX 24 20 0 -2
BITMAP
FFFFFF
7FFFFE
3FFFFC
3FFFFC
1FFFF8
1FFFF8
0FFFF0
07FFE0
07FFE0
03FFC0
03FFC0
01FF80
01FF80
00FF00
007E00
007E00
003C00
003C00
001800
001800
ENDCHAR
STARTCHAR 25BD
ENCODING 9661
SWIDTH 1000 0
DWIDTH 25 0
BBX 24 20 0 -2
BITMAP
FFFFFF
400002
200004
200004
100008
100008
080010
040020
040020
020040
020040
010080
010080
008100
004200
004200
002C00
002C00
001800
001800
ENDCHAR
STARTCHAR 25C6
ENCODING 9670
SWIDTH 1000 0
DWIDTH 25 0
BBX 24 23 0 -2
BITMAP
001800
003C00
007E00
00FF00
01FF80
03FFC0
07FFE0
0FFFF0
1FFFF8
3FFFFC
7FFFFE
FFFFFF
7FFFFE
3FFFFC
1FFFF8
0FFFF0
07FFE0
03FFC0
01FF80
00FF00
007E00
003C00
001800
ENDCHAR
STARTCHAR 25C7
ENCODING 9671
SWIDTH 1000 0
DWIDTH 25 0
BBX 24 23 0 -2
BITMAP
001800
002C00
004200
008100
010080
020040
040020
080010
100008
200004
400002
800001
400002
200004
100008
080010
040020
020040
010080
008100
004200
002C00
001800
ENDCHAR
STARTCHAR 25CB
ENCODING 9675
SWIDTH 1000 0
DWIDTH 25 0
BBX 23 22 1 -2
BITMAP
00FE00
030180
0C0060
100010
200008
200008
400004
400004
800002
800002
800002
800002
800002
800002
400004
400004
200008
200008
100010
0C0060
030180
00FE00
ENDCHAR
STARTCHAR 25CE
ENCODING 9678
SWIDTH 1000 0
DWIDTH 25 0
BBX 23 22 1 -2
BITMAP
00FE00
030180
0C0060
100010
200008
207C08
418304
420084
820082
840042
840042
840042
840042
820082
420084
418304
207C08
200008
100010
0C0060
030180
00FE00
ENDCHAR
STARTCHAR 25CF
ENCODING 9679
SWIDTH 1000 0
DWIDTH 25 0
BBX 23 22 1 -2
BITMAP
00FE00
03FF80
0FFFE0
1FFFF0
3FFFF8
3FFFF8
7FFFFC
7FFFFC
FFFFFE
FFFFFE
FFFFFE
FFFFFE
FFFFFE
FFFFFE
7FFFFC
7FFFFC
3FFFF8
3FFFF8
1FFFF0
0FFFE0
03FF80
00FE00
ENDCHAR
STARTCHAR 25EF
ENCODING 9711
SWIDTH 1000 0
DWIDTH 25 0
BBX 23 22 1 -2
BITMAP
00FE00
030180
0C0060
100010
200008
200008
400004
400004
800002
800002
800002
800002
800002
800002
400004
400004
200008
200008
100010
0C0060
030180
00FE00
ENDCHAR
STARTCHAR 2605
ENCODING 9733
SWIDTH 1000 0
DWIDTH 25 0
BBX 22 21 1 -1
BITMAP
003000
003000
007800
007800
007800
00FC00
00FC00
01FE00
FFFFFC
3FFFF0
1FFFE0
07FFC0
03FF00
07FF80
07FF80
07DF80
0F87C0
0F03C0
1C00E0
180060
300030
ENDCHAR
STARTCHAR 2606
ENCODING 9734
SWIDTH 1000 0
DWIDTH 25 0
BBX 22 22 1 -2
BITMAP
003000
003000
005800
005800
005800
008400
008400
010200
FF03FC
200010
100020
0C00C0
020100
020100
043080
045880
088440
090240
120120
1C00A0
300070
200010
ENDCHAR
STARTCHAR 2640
ENCODING 9792
SWIDTH 1000 0
DWIDTH 25 0
BBX 16 22 4 -2
BITMAP
03C0
0C30
1008
1008
2004
2004
2004
1008
1008
0C30
03C0
0180
0180
FFFF
0180
0180
0180
0180
0180
0180
0180
0180
ENDCHAR
STARTCHAR 2642
ENCODING 9794
SWIDTH 1000 0
DWIDTH 25 0
BBX 21 21 2 -1
BITMAP
000FF8
000018
000028
000048
000088
000108
000208
000408
000808
003000
0E6000
318000
406000
406000
803000
803000
803000
406000
406000
318000
0E0000
ENDCHAR
STARTCHAR 266A
ENCODING 9834
SWIDTH 1000 0
DWIDTH 25 0
BBX 17 25 4 -4
BITMAP
00C000
00E000
00E000
00F000
00D800
00CC00
00C600
00C300
00C180
00C080
00C080
00C080
00C100
00C200
00C400
00C000
00C000
00C000
0FC000
3F8000
7F8000
FE0000
FC0000
700000
700000
ENDCHAR
STARTCHAR 266D
ENCODING 9837
SWIDTH 1000 0
DWIDTH 25 0
BBX 11 25 8 -4
BITMAP
8000
8000
8000
8000
8000
8000
8000
8000
8000
8F80
9CC0
A060
C060
8060
8060
8060
80C0
80C0
8180
8300
8E00
9C00
A000
C000
C000
ENDCHAR
STARTCHAR 266F
ENCODING 9839
SWIDTH 1000 0
DWIDTH 25 0
BBX 19 23 3 -2
BITMAP
000400
040400
040400
040400
040400
0407E0
07FFE0
FFFC00
FC0400
040400
040400
040400
040400
0407E0
07FFE0
FFFC00
FC0400
040400
040400
040400
040400
040400
040000
ENDCHAR
STARTCHAR 3000
ENCODING 12288
SWIDTH 1000 0
DWIDTH 25 0
BBX 0 0 0 0
BITMAP
ENDCHAR
STARTCHAR 3001
ENCODING 12289
SWIDTH 1000 0
DWIDTH 25 0
BBX 6 7 3 -4
BITMAP
80
60
30
18
1C
0C
0C
ENDCHAR
STARTCHAR 3002
ENCODING 12290
SWIDTH 1000 0
DWIDTH 25 0
BBX 6 7 3 -4
BITMAP
30
48
84
84
48
30
30
ENDCHAR
STARTCHAR 3003
ENCODING 12291
SWIDTH 1000 0
DWIDTH 25 0
BBX 13 14 5 1
BITMAP
0810
0C18
0C18
0C18
0C18
1830
1830
1830
1020
3060
2040
2040
4180
8300
ENDCHAR
STARTCHAR 3005
ENCODING 12293
SWIDTH 1000 0
DWIDTH 25 0
BBX 18 17 3 1
BITMAP
020000
03C000
030000
030180
03FFC0
060180
060300
0C0600
0C0400
1A0800
111000
20E000
407000
801800
001C00
000E00
000600
ENDCHAR
STARTCHAR 3006
ENCODING 12294
SWIDTH 1000 0
DWIDTH 25 0
BBX 25 25 0 -4
BITMAP
00000100
00000180
00000380
00000F00
00001C00
00007000
0000C000
00010000
03CE0000
04380000
082E0000
08430000
1081C000
1100E000
13006000
36000000
2C000000
28000000
38000000
30000000
70000000
60000000
E0000000
C0000000
C0000000
ENDCHAR
STARTCHAR 3007
ENCODING 12295
SWIDTH 1000 0
DWIDTH 25 0
BBX 23 20 1 -1
BITMAP
007C00
03C780
0E00E0
180030
300018
60000C
400004
C00006
800002
800002
800002
800002
C00006
400004
60000C
300018
180030
0E00E0
03C780
007C00
ENDCHAR
STARTCHAR 3008
ENCODING 12296
SWIDTH 1000 0
DWIDTH 25 0
BBX 10 25 11 -4
BITMAP
0040
0040
0080
0100
0200
0200
0400
0800
0800
1000
6000
C000
C000
6000
1000
0800
0800
0400
0200
0200
0100
0080
0040
0040
0040
ENDCHAR
STARTCHAR 3009
ENCODING 12297
SWIDTH 1000 0
DWIDTH 25 0
BBX 10 25 4 -4
BITMAP
8000
8000
4000
2000
1000
1000
0800
0400
0400
0200
0180
00C0
00C0
0180
0200
0400
0400
0800
1000
1000
2000
4000
8000
8000
8000
ENDCHAR
STARTCHAR 300A
ENCODING 12298
SWIDTH 1000 0
DWIDTH 25 0
BBX 13 25 10 -4
BITMAP
0088
0088
0110
0220
0220
0440
0840
0880
3100
3100
6200
8400
8400
6200
3100
3100
0880
0440
0440
0220
0220
0110
0088
0088
0088
ENDCHAR
STARTCHAR 300B
ENCODING 12299
SWIDTH 1000 0
DWIDTH 25 0
BBX 13 25 2 -4
BITMAP
8800
8800
4400
2200
2200
1100
1080
0880
0460
0460
0230
0108
0108
0230
0460
0460
0880
1100
1100
2200
2200
4400
8800
8800
8800
ENDCHAR
STARTCHAR 300C
ENCODING 12300
SWIDTH 1000 0
DWIDTH 25 0
BBX 6 17 14 4
BITMAP
FC
80
80
80
80
80
80
80
80
80
80
80
80
80
80
80
80
ENDCHAR
STARTCHAR 300D
ENCODING 12301
SWIDTH 1000 0
DWIDTH 25 0
BBX 6 18 5 -4
BITMAP
04
04
04
04
04
04
04
04
04
04
04
04
04
04
04
04
FC
FC
ENDCHAR
STARTCHAR 300E
ENCODING 12302
SWIDTH 1000 0
DWIDTH 25 0
BBX 8 17 14 4
BITMAP
FF
81
81
9F
90
90
90
90
90
90
90
90
90
90
90
90
F0
ENDCHAR
STARTCHAR 300F
ENCODING 12303
SWIDTH 1000 0
DWIDTH 25 0
BBX 8 18 3 -4
BITMAP
0F
09
09
09
09
09
09
09
09
09
09
09
09
F9
81
81
FF
FF
ENDCHAR
STARTCHAR 3010
ENCODING 12304
SWIDTH 1000 0
DWIDTH 25 0
BBX 6 25 14 -4
BITMAP
FC
F8
F0
F0
E0
E0
E0
E0
C0
C0
C0
C0
C0
C0
C0
C0
E0
E0
E0
E0
F0
F0
F8
FC
FC
ENDCHAR
STARTCHAR 3011
ENCODING 12305
SWIDTH 1000 0
DWIDTH 25 0
BBX 6 25 5 -4
BITMAP
FC
7C
3C
3C
1C
1C
1C
1C
0C
0C
0C
0C
0C
0C
0C
0C
1C
1C
1C
1C
3C
3C
7C
FC
FC
ENDCHAR
STARTCHAR 3012
ENCODING 12306
SWIDTH 1000 0
DWIDTH 25 0
BBX 21 20 2 -2
BITMAP
FFFFF8
FFFFF8
000000
000000
000000
000000
FFFFF8
FFFFF8
007000
007000
007000
007000
007000
007000
007000
007000
007000
007000
007000
007000
ENDCHAR
STARTCHAR 3013
ENCODING 12307
SWIDTH 1000 0
DWIDTH 25 0
BBX 23 14 1 2
BITMAP
FFFFFE
FFFFFE
FFFFFE
FFFFFE
000000
000000
000000
000000
000000
000000
FFFFFE
FFFFFE
FFFFFE
FFFFFE
ENDCHAR
STARTCHAR 3014
ENCODING 12308
SWIDTH 1000 0
DWIDTH 25 0
BBX 7 25 14 -4
BITMAP
06
18
60
80
80
80
80
80
80
80
80
80
80
80
80
80
80
80
80
80
80
60
18
06
06
ENDCHAR
STARTCHAR 3015
ENCODING 12309
SWIDTH 1000 0
DWIDTH 25 0
BBX 7 25 4 -4
BITMAP
C0
30
0C
02
02
02
02
02
02
02
02
02
02
02
02
02
02
02
02
02
02
0C
30
C0
C0
ENDCHAR
STARTCHAR 301C
ENCODING 12316
SWIDTH 1000 0
DWIDTH 25 0
BBX 25 6 0 6
BITMAP
1F800000
60E00000
803C0000
001F0080
0003C300
0000FC00
ENDCHAR
STARTCHAR 301D
ENCODING 12317
SWIDTH 1000 0
DWIDTH 25 0
BBX 10 5 14 15
BITMAP
39C0
3180
6300
4200
8400
ENDCHAR
STARTCHAR 301F
ENCODING 12319
SWIDTH 1000 0
DWIDTH 25 0
BBX 10 5 1 -2
BITMAP
39C0
3180
6300
4200
8400
ENDCHAR
STARTCHAR 3041
ENCODING 12353
SWIDTH 1000 0
DWIDTH 25 0
BBX 17 18 4 -2
BITMAP
060000
038000
038000
023800
47F000
3E0000
14C000
04C000
07FC00
0CC700
15C100
358180
658180
460180
CE0180
5A0300
620600
003800
ENDCHAR
STARTCHAR 3042
ENCODING 12354
SWIDTH 1000 0
DWIDTH 25 0
BBX 21 25 2 -4
BITMAP
030000
01E000
018000
018600
41BF00
3FF800
0B0000
030800
030C00
020C00
02FF00
0738C0
0A3060
127030
226030
428018
430018
C30018
830030
C58030
598060
7180C0
400180
000600
000600
ENDCHAR
STARTCHAR 3043
ENCODING 12355
SWIDTH 1000 0
DWIDTH 25 0
BBX 17 13 4 -1
BITMAP
800000
401800
600400
600200
600300
400100
420180
440D80
640380
280180
380000
380000
180000
ENDCHAR
STARTCHAR 3044
ENCODING 12356
SWIDTH 1000 0
DWIDTH 25 0
BBX 21 18 2 0
BITMAP
800000
400000
400300
400080
600040
600060
600030
600030
600018
6000F8
608038
610018
310000
320000
360000
1C0000
1E0000
0C0000
ENDCHAR
STARTCHAR 3045
ENCODING 12357
SWIDTH 1000 0
DWIDTH 25 0
BBX 11 18 7 -2
BITMAP
1000
0C00
0F80
0780
0000
0000
8F80
FCC0
7060
2060
0060
0060
0060
00C0
00C0
0180
0100
0E00
ENDCHAR
STARTCHAR 3046
ENCODING 12358
SWIDTH 1000 0
DWIDTH 25 0
BBX 14 25 5 -4
BITMAP
0800
07C0
03E0
0040
0000
0000
0000
03E0
9F10
F818
700C
200C
000C
000C
000C
000C
0018
0018
0038
0030
0060
01C0
0380
0C00
0C00
ENDCHAR
STARTCHAR 3047
ENCODING 12359
SWIDTH 1000 0
DWIDTH 25 0
BBX 15 18 6 -2
BITMAP
0600
0300
03C0
00E0
0000
00C0
4760
38E0
33C0
0700
0600
0E00
1800
3600
6300
E380
C0FE
007C
ENDCHAR
STARTCHAR 3048
ENCODING 12360
SWIDTH 1000 0
DWIDTH 25 0
BBX 21 23 2 -2
BITMAP
010000
00F800
007C00
000800
000000
000000
003C00
10EE00
0FBE00
0E3800
047000
00E000
018000
010000
030000
060000
0D8000
186000
307000
707000
E03800
E03FF8
000FF0
ENDCHAR
STARTCHAR 3049
ENCODING 12361
SWIDTH 1000 0
DWIDTH 25 0
BBX 17 17 4 -2
BITMAP
100000
0C0000
0E0000
098F00
0BC180
8F8180
780200
680000
08FC00
0B8600
0C0300
180300
380300
E98300
68C600
183800
180000
ENDCHAR
STARTCHAR 304A
ENCODING 12362
SWIDTH 1000 0
DWIDTH 25 0
BBX 23 22 1 -2
BITMAP
060000
030000
038060
030018
03300C
03780E
83F03E
7F0002
3B0000
130000
0207E0
023C38
02C018
03000C
06000C
1A000C
F2300C
621818
360638
0E01E0
070000
060000
ENDCHAR
STARTCHAR 304B
ENCODING 12363
SWIDTH 1000 0
DWIDTH 25 0
BBX 24 22 1 -1
BITMAP
030000
01C000
01C000
018000
018000
010000
01F800
0304C0
8F0630
FA0218
72020C
26060E
040606
0C061F
080607
181C03
1A1C00
311C00
31B800
60F800
E0F000
C0C000
ENDCHAR
STARTCHAR 304C
ENCODING 12364
SWIDTH 1000 0
DWIDTH 25 0
BBX 25 22 0 -1
BITMAP
03000000
01C00400
01C00300
01802180
01801980
01000C00
01F80C00
030CC000
8F0E3000
FA021800
72020C00
260E0E00
040E0600
0C0E1F00
080E0700
181C0300
1A1C0000
311C0000
31B80000
60F80000
E0E00000
C0C00000
ENDCHAR
STARTCHAR 304D
ENCODING 12365
SWIDTH 1000 0
DWIDTH 25 0
BBX 16 25 5 -4
BITMAP
0F00
0780
0390
038C
0198
81F0
7FC4
3F67
002E
403C
3FF0
0F08
000C
0006
0006
1FFB
200F
4003
4000
2000
3000
1C00
0FF0
03F0
03F0
ENDCHAR
STARTCHAR 304E
ENCODING 12366
SWIDTH 1000 0
DWIDTH 25 0
BBX 20 25 4 -4
BITMAP
0E0080
078060
039430
038B30
019980
81F180
7FC000
3EE600
002E00
403C00
3FF000
0E0800
000C00
000600
000600
1FFB00
200F00
400300
400000
200000
300000
1C0000
0FF000
03F000
03F000
ENDCHAR
STARTCHAR 304F
ENCODING 12367
SWIDTH 1000 0
DWIDTH 25 0
BBX 12 25 5 -4
BITMAP
0380
01E0
01E0
03C0
0380
0700
0C00
1800
3000
6000
8000
8000
4000
3000
1800
0C00
0700
0380
01C0
01E0
0060
0070
0030
0020
0020
ENDCHAR
STARTCHAR 3050
ENCODING 12368
SWIDTH 1000 0
DWIDTH 25 0
BBX 18 25 5 -4
BITMAP
038000
01E000
01E000
03C000
038200
070180
0C10C0
180CC0
300600
600600
800000
800000
400000
300000
180000
0C0000
070000
038000
01C000
01E000
006000
007000
003000
002000
002000
ENDCHAR
STARTCHAR 3051
ENCODING 12369
SWIDTH 1000 0
DWIDTH 25 0
BBX 23 24 2 -4
BITMAP
600300
300180
3801C0
380180
300180
300180
2001BC
6107FE
60FF80
403980
400180
C00180
840180
880180
C80180
D80180
D00300
500300
700300
700600
300400
300800
003000
003000
ENDCHAR
STARTCHAR 3052
ENCODING 12370
SWIDTH 1000 0
DWIDTH 25 0
BBX 24 25 1 -4
BITMAP
000008
600306
3001A3
3801DB
38018C
30018C
300180
2001BC
6107FE
60FF80
403980
400180
C00180
840180
880180
C80180
D80180
D00300
500300
700300
700600
300400
301800
003000
003000
ENDCHAR
STARTCHAR 3053
ENCODING 12371
SWIDTH 1000 0
DWIDTH 25 0
BBX 18 20 3 -1
BITMAP
100000
080000
07FC00
03FE00
007000
00C000
010000
000000
000000
000000
000000
000000
000000
800000
800000
800000
400000
300080
1FFFC0
07FF80
ENDCHAR
STARTCHAR 3054
ENCODING 12372
SWIDTH 1000 0
DWIDTH 25 0
BBX 22 22 3 -1
BITMAP
000020
000018
10010C
0800CC
07FC60
03FE60
007000
00C000
010000
000000
000000
000000
000000
000000
000000
800000
800000
800000
400000
300080
1FFFC0
07FF80
ENDCHAR
STARTCHAR 3055
ENCODING 12373
SWIDTH 1000 0
DWIDTH 25 0
BBX 16 23 4 -2
BITMAP
0380
0600
0780
03C8
01CE
00FC
83F0
7F98
1C08
000C
0006
0006
07F7
081F
1003
2000
2000
1000
1000
0C00
07C0
03FC
003C
ENDCHAR
STARTCHAR 3056
ENCODING 12374
SWIDTH 1000 0
DWIDTH 25 0
BBX 21 23 3 -2
BITMAP
030040
060230
070198
03C8D8
01CEC0
00FC00
83F000
7F1800
1C0800
000C00
000600
000600
07F700
081F00
100300
200000
200000
100000
100000
0C0000
07C000
03FC00
007C00
ENDCHAR
STARTCHAR 3057
ENCODING 12375
SWIDTH 1000 0
DWIDTH 25 0
BBX 17 23 5 -2
BITMAP
C00000
600000
700000
700000
700000
600000
600000
600000
600000
600000
600000
600000
600000
400000
400000
400000
400080
400100
400600
601C00
607800
3FE000
1F8000
ENDCHAR
STARTCHAR 3058
ENCODING 12376
SWIDTH 1000 0
DWIDTH 25 0
BBX 17 23 5 -2
BITMAP
C00000
600000
700800
700600
704300
603300
601800
601800
600000
600000
600000
600000
600000
400000
400000
400000
400080
400100
400600
601C00
607800
3FE000
1F8000
ENDCHAR
STARTCHAR 3059
ENCODING 12377
SWIDTH 1000 0
DWIDTH 25 0
BBX 25 25 0 -4
BITMAP
001C0000
000F0000
00038000
00030000
00030000
00020000
001FFF00
83FA1F80
FE020000
78020000
207E0000
00CF0000
00830000
00830000
00830000
00C30000
007E0000
000E0000
000E0000
000C0000
001C0000
00180000
00200000
00C00000
00C00000
ENDCHAR
STARTCHAR 305A
ENCODING 12378
SWIDTH 1000 0
DWIDTH 25 0
BBX 25 25 0 -4
BITMAP
001C0800
000F4600
0003B300
00031B00
00031800
00020000
001FFF00
83FA0F80
FE020000
78020000
207E0000
00CF0000
00830000
00830000
00830000
00C30000
007E0000
000E0000
000E0000
000C0000
001C0000
00180000
00200000
00C00000
00C00000
ENDCHAR
STARTCHAR 305B
ENCODING 12379
SWIDTH 1000 0
DWIDTH 25 0
BBX 24 22 0 -1
BITMAP
000180
0000C0
0000E0
0600C0
0300C0
0380C0
0300C0
0300CE
031FFF
07F8C0
FF00C0
730180
230180
030F80
030300
030200
010000
010000
018000
00C000
007FE0
001FE0
ENDCHAR
STARTCHAR 305C
ENCODING 12380
SWIDTH 1000 0
DWIDTH 25 0
BBX 25 22 0 -1
BITMAP
00000400
00030300
0001A180
06019980
0301CC00
03818C00
03018000
03019E00
031FFF00
07F98000
FF030000
73030000
231B0000
030E0000
030E0000
030C0000
01000000
01000000
01800000
00C00000
007FE000
001FE000
ENDCHAR
STARTCHAR 305D
ENCODING 12381
SWIDTH 1000 0
DWIDTH 25 0
BBX 20 24 2 -4
BITMAP
007800
05EC00
078E00
033C00
007800
007000
00E000
0081E0
013FF0
02FC00
8F0800
7C3000
306000
006000
008000
008000
008000
00E000
00E000
007000
007800
003C00
000C00
000C00
ENDCHAR
STARTCHAR 305E
ENCODING 12382
SWIDTH 1000 0
DWIDTH 25 0
BBX 22 24 2 -4
BITMAP
007800
05EC20
078E18
033C8C
00786C
007030
00E030
0081C0
013FE0
02FE00
8F0800
7C3000
306000
006000
008000
008000
008000
00E000
00E000
007000
007800
003C00
000C00
000C00
ENDCHAR
STARTCHAR 305F
ENCODING 12383
SWIDTH 1000 0
DWIDTH 25 0
BBX 21 22 2 -2
BITMAP
060000
030000
038000
038000
030000
027000
87F780
FF01E0
740070
240070
0C0080
080000
180000
180000
300000
300000
606000
E03000
E03800
400E10
0007F8
0001F8
ENDCHAR
STARTCHAR 3060
ENCODING 12384
SWIDTH 1000 0
DWIDTH 25 0
BBX 23 23 1 -2
BITMAP
000010
06000C
030086
038066
038030
030030
027000
87F780
FF01E0
740070
240070
0C0080
080000
180000
180000
300000
300000
604000
E03000
E03800
401E10
0007F8
0001F8
ENDCHAR
STARTCHAR 3061
ENCODING 12385
SWIDTH 1000 0
DWIDTH 25 0
BBX 21 23 1 -2
BITMAP
030000
01C000
018000
019800
013C00
83F800
7F8000
3D0000
130000
020000
060000
0607E0
043870
06C018
0F0018
0C0018
0C0018
000038
000030
000060
0001C0
001F00
00F000
ENDCHAR
STARTCHAR 3062
ENCODING 12386
SWIDTH 1000 0
DWIDTH 25 0
BBX 22 23 1 -2
BITMAP
030000
01C020
018018
01990C
013CCC
83F860
7F8060
3D0000
0B0000
020000
060000
0607E0
043870
06C018
0F0018
0C0018
0C0018
000038
000030
000060
0001C0
001F00
00F000
ENDCHAR
STARTCHAR 3063
ENCODING 12387
SWIDTH 1000 0
DWIDTH 25 0
BBX 17 11 3 -1
BITMAP
00FE00
070300
9C0180
780180
300180
000380
000300
000600
000C00
007000
03C000
ENDCHAR
STARTCHAR 3064
ENCODING 12388
SWIDTH 1000 0
DWIDTH 25 0
BBX 24 15 0 0
BITMAP
000FF0
00FC0C
87C006
7F0003
3C0003
080003
000003
000007
000006
00000E
00000C
000018
000030
0000E0
001F00
ENDCHAR
STARTCHAR 3065
ENCODING 12389
SWIDTH 1000 0
DWIDTH 25 0
BBX 24 21 0 0
BITMAP
000008
000046
000033
00001B
000018
000000
003FE0
01F818
8F800C
7E0006
3C0006
080006
000006
00000E
00000C
00001C
000018
000030
000060
0001C0
003E00
ENDCHAR
STARTCHAR 3066
ENCODING 12390
SWIDTH 1000 0
DWIDTH 25 0
BBX 20 21 1 -2
BITMAP
0000E0
001FF0
00F380
878600
FE1C00
783800
303000
004000
004000
008000
008000
008000
008000
008000
00C000
004000
007000
003800
001E00
000780
000380
ENDCHAR
STARTCHAR 3067
ENCODING 12391
SWIDTH 1000 0
DWIDTH 25 0
BBX 24 21 1 -2
BITMAP
0000E0
001FF0
00F388
878606
FE1C43
783833
303018
004018
004000
008000
008000
008000
008000
008000
00C000
004000
007000
003800
001E00
000780
000380
ENDCHAR
STARTCHAR 3068
ENCODING 12392
SWIDTH 1000 0
DWIDTH 25 0
BBX 15 23 6 -2
BITMAP
3000
1800
1E00
1E00
1800
1800
1800
1800
1830
0878
08F0
0FC0
0F00
1800
3000
6000
4000
8000
8000
8000
400C
7FFE
1FF8
ENDCHAR
STARTCHAR 3069
ENCODING 12393
SWIDTH 1000 0
DWIDTH 25 0
BBX 17 23 5 -2
BITMAP
300400
182300
1C1980
1C0D80
180C00
180000
180000
180000
183000
087800
09F000
0FC000
0F0000
180000
300000
600000
400000
800000
800000
800000
400C00
7FFE00
1FF800
ENDCHAR
STARTCHAR 306A
ENCODING 12394
SWIDTH 1000 0
DWIDTH 25 0
BBX 21 23 1 -2
BITMAP
060000
038000
038000
037000
02F1C0
8FC070
7F0038
7600F8
040100
0C0200
080200
180200
180200
300200
700300
600300
000300
01FF00
0307C0
0203F0
020338
01FE18
007C00
ENDCHAR
STARTCHAR 306B
ENCODING 12395
SWIDTH 1000 0
DWIDTH 25 0
BBX 20 21 3 -1
BITMAP
600000
300000
380000
300000
301F80
70FFC0
610300
600400
400000
C00000
C00000
C00000
C80000
D00000
D00000
D10000
E0C000
607800
601FF0
7007E0
300000
ENDCHAR
STARTCHAR 306C
ENCODING 12396
SWIDTH 1000 0
DWIDTH 25 0
BBX 24 21 1 0
BITMAP
008000
004000
007000
007800
107000
104000
107FE0
10F038
134018
16C00C
0C800C
19800C
39000C
6D000C
46000C
C60018
8F1FD8
CB3878
D9303E
7038E7
601F83
ENDCHAR
STARTCHAR 306D
ENCODING 12397
SWIDTH 1000 0
DWIDTH 25 0
BBX 25 25 0 -4
BITMAP
06000000
03000000
03800000
03800000
03000000
03000000
0300F000
02031C00
020C0C00
07180600
4F200600
7B400600
36800600
2B000600
16000600
16000C00
2A03CC00
360E7800
760C1E00
6E0C1F80
CE03F180
C700E000
06000000
04000000
04000000
ENDCHAR
STARTCHAR 306E
ENCODING 12398
SWIDTH 1000 0
DWIDTH 25 0
BBX 22 18 2 -1
BITMAP
00FF80
0380E0
0EE030
18F018
30E018
61801C
61800C
C1000C
C3000C
82000C
86000C
C40018
6C0018
680030
380060
300040
000180
000600
ENDCHAR
STARTCHAR 306F
ENCODING 12399
SWIDTH 1000 0
DWIDTH 25 0
BBX 23 22 1 -2
BITMAP
600700
3001C0
3800E0
3800C0
3000C0
300088
6000FC
6087FC
607F80
400080
C00080
C00080
880080
880080
9000C0
D000C0
D07FC0
70C0F8
7080DE
7080CE
307F80
003F00
ENDCHAR
STARTCHAR 3070
ENCODING 12400
SWIDTH 1000 0
DWIDTH 25 0
BBX 24 23 1 -2
BITMAP
000008
601E06
3003A3
3801DB
38018C
30018C
300110
6001F8
611FF8
60FF00
400100
C00100
C00100
880100
880100
900180
D00180
D0FF80
7181F0
7101BC
71019C
30FF00
007E00
ENDCHAR
STARTCHAR 3071
ENCODING 12401
SWIDTH 1000 0
DWIDTH 25 0
BBX 24 22 1 -2
BITMAP
601E0E
300391
3801D1
380191
30018E
300110
6001F8
611FF8
60FF00
400100
C00100
C00100
880100
880100
900180
D00180
D0FF80
7181F0
7101BC
71019C
30FF00
007E00
ENDCHAR
STARTCHAR 3072
ENCODING 12402
SWIDTH 1000 0
DWIDTH 25 0
BBX 22 20 2 -2
BITMAP
060000
8F0000
7E00C0
2400C0
0800C0
0800C0
1800A0
1000A0
300120
300130
300218
60061C
60040C
600C0C
603800
607000
60E000
638000
3F0000
3C0000
ENDCHAR
STARTCHAR 3073
ENCODING 12403
SWIDTH 1000 0
DWIDTH 25 0
BBX 24 22 1 -2
BITMAP
000008
000006
060023
8F001B
7E00CC
2400CC
0800C0
0800C0
1800A0
1000A0
300120
300130
300218
60061C
60040C
601C0C
603800
607000
60C000
638000
3F0000
3C0000
ENDCHAR
STARTCHAR 3074
ENCODING 12404
SWIDTH 1000 0
DWIDTH 25 0
BBX 24 21 1 -2
BITMAP
00000E
060011
8F0011
7E00D1
2400CE
0800C0
0800C0
1800A0
1000A0
300120
300130
300218
60061C
60040C
601C0C
603800
607000
60C000
638000
3F0000
3C0000
ENDCHAR
STARTCHAR 3075
ENCODING 12405
SWIDTH 1000 0
DWIDTH 25 0
BBX 25 21 0 -1
BITMAP
00400000
00200000
001C0000
001F0000
003F0000
00600000
00800000
00800000
00C00000
00600000
00200000
003FF000
00581C00
009C0600
030E0300
860E0F80
9C0E0380
784E0180
703E0000
201E0000
001C0000
ENDCHAR
STARTCHAR 3076
ENCODING 12406
SWIDTH 1000 0
DWIDTH 25 0
BBX 25 21 0 -1
BITMAP
00400000
00200000
001C0800
001F0600
003F2300
00601B00
00800C00
00800C00
00C00000
00600000
00200000
003FF000
00581C00
009C0600
030E0300
860E0F80
9C0E0380
784E0180
703E0000
201E0000
001C0000
ENDCHAR
STARTCHAR 3077
ENCODING 12407
SWIDTH 1000 0
DWIDTH 25 0
BBX 25 21 0 -1
BITMAP
00400000
00200000
001C1C00
001F2200
003F2200
00602200
00801C00
00800000
00C00000
00600000
00200000
003FF000
00581C00
009C0600
030E0300
860E0F80
9C0E0380
784E0180
703E0000
201E0000
001C0000
ENDCHAR
STARTCHAR 3078
ENCODING 12408
SWIDTH 1000 0
DWIDTH 25 0
BBX 25 12 0 4
BITMAP
01C00000
02200000
02380000
061C0000
040E0000
8C030000
58018000
7800C000
30007000
30003E00
00000F80
00000380
ENDCHAR
STARTCHAR 3079
ENCODING 12409
SWIDTH 1000 0
DWIDTH 25 0
BBX 25 17 0 4
BITMAP
00008000
00006000
000C3000
00033000
00018000
01C18000
02200000
02380000
061C0000
040E0000
8C030000
58018000
7800C000
30007000
30003E00
00000F80
00000380
ENDCHAR
STARTCHAR 307A
ENCODING 12410
SWIDTH 1000 0
DWIDTH 25 0
BBX 25 16 0 4
BITMAP
0000E000
00011000
00011000
00011000
01C0E000
02200000
02380000
061C0000
040E0000
8C030000
58018000
7800C000
30007000
30003E00
00000F80
00000380
ENDCHAR
STARTCHAR 307B
ENCODING 12411
SWIDTH 1000 0
DWIDTH 25 0
BBX 24 22 1 -2
BITMAP
600000
300070
3807F8
38FFC0
3000C0
3000C0
6000F8
6101F8
60FFC0
4038C0
C000C0
C000C0
C800C0
8800C0
9000C0
D000C0
507FE0
7080FC
7080DF
7081C3
307F80
303E00
ENDCHAR
STARTCHAR 307C
ENCODING 12412
SWIDTH 1000 0
DWIDTH 25 0
BBX 24 22 1 -2
BITMAP
600008
300046
3807F3
387F9B
30018C
30018C
6001F8
6103F8
60FF80
403980
C00180
C00180
C80180
880180
900180
D00180
507FC0
7081F8
70819E
70818E
307F00
301E00
ENDCHAR
STARTCHAR 307D
ENCODING 12413
SWIDTH 1000 0
DWIDTH 25 0
BBX 24 23 1 -2
BITMAP
00000E
600011
300051
3807F1
387F8E
300180
300180
6001F8
6103F8
60FF80
403980
C00180
C00180
C80180
880180
900180
D00180
507FC0
7081F8
70819E
70818E
307F00
301E00
ENDCHAR
STARTCHAR 307E
ENCODING 12414
SWIDTH 1000 0
DWIDTH 25 0
BBX 18 23 3 -2
BITMAP
03C000
00E000
00F000
00E600
80FF00
7FFE00
1FE000
00E800
00C400
20CE00
20FC00
1FF800
0FC000
00C000
00E000
00E000
00E000
00E000
3FF000
41FE00
40E7C0
3FC1C0
0F0000
ENDCHAR
STARTCHAR 307F
ENCODING 12415
SWIDTH 1000 0
DWIDTH 25 0
BBX 24 23 1 -4
BITMAP
001C00
08FE00
0F9E00
073C00
043800
003000
0070C0
004060
00C070
008060
0FFC60
3B07E0
6201F8
4400DE
8C0187
C80183
580300
700300
300600
000400
001800
007000
007000
ENDCHAR
STARTCHAR 3080
ENCODING 12416
SWIDTH 1000 0
DWIDTH 25 0
BBX 23 22 1 -2
BITMAP
0C0000
070000
078000
067060
87F018
7E000C
76000C
240006
04001E
140006
3E0000
460000
460000
660000
3C0040
140020
0C0020
080020
080060
0C03C0
07FF80
03FC00
ENDCHAR
STARTCHAR 3081
ENCODING 12417
SWIDTH 1000 0
DWIDTH 25 0
BBX 22 21 1 -1
BITMAP
004000
003000
003800
083800
083000
083000
08FFC0
0BB070
0F7018
0C4018
1C400C
34C00C
64800C
47800C
C3000C
878018
8DC018
58C030
700060
6001C0
001E00
ENDCHAR
STARTCHAR 3082
ENCODING 12418
SWIDTH 1000 0
DWIDTH 25 0
BBX 15 23 4 -2
BITMAP
0600
0380
03C0
0380
0380
4600
4600
2C00
7CC0
9E20
8E10
9810
5008
780C
3E04
3786
3006
3006
3006
100C
181C
0FF8
07E0
ENDCHAR
STARTCHAR 3083
ENCODING 12419
SWIDTH 1000 0
DWIDTH 25 0
BBX 19 17 2 -2
BITMAP
018000
006000
007000
1FF000
318F00
3078C0
11E060
0F0060
0E0060
9B38C0
F18780
60E000
206000
007000
003800
003800
003800
ENDCHAR
STARTCHAR 3084
ENCODING 12420
SWIDTH 1000 0
DWIDTH 25 0
BBX 25 24 0 -4
BITMAP
00180000
000C0000
00020000
00030000
03FF0000
043CFC00
0C038700
0C1C0380
06780180
01C00180
03820300
8E818E00
7C407800
38600000
00380000
00180000
001C0000
000E0000
000E0000
00030000
00038000
00018000
00018000
00018000
ENDCHAR
STARTCHAR 3085
ENCODING 12421
SWIDTH 1000 0
DWIDTH 25 0
BBX 16 17 5 -4
BITMAP
01C0
C360
63F8
6464
6466
CC63
D463
D463
D463
6466
6464
6358
01E0
0380
0300
1C00
1C00
ENDCHAR
STARTCHAR 3086
ENCODING 12422
SWIDTH 1000 0
DWIDTH 25 0
BBX 22 24 1 -4
BITMAP
003800
804400
408600
609FC0
717630
618318
610318
63030C
C3030C
C5030C
C9030C
88830C
90830C
D08618
704618
604670
603FE0
201F80
001800
003800
003000
004000
018000
018000
ENDCHAR
STARTCHAR 3087
ENCODING 12423
SWIDTH 1000 0
DWIDTH 25 0
BBX 13 17 6 -2
BITMAP
1800
0F00
0780
0700
0730
06F8
07C0
0600
0600
0600
0600
0700
0700
7FE0
C778
8718
7E00
ENDCHAR
STARTCHAR 3088
ENCODING 12424
SWIDTH 1000 0
DWIDTH 25 0
BBX 19 23 3 -2
BITMAP
03C000
00F000
00F000
00E000
00E000
00E000
00C180
00CF80
00FE00
00C000
00C000
00C000
00C000
00E000
00E000
00E000
00E000
1FF000
60FE00
80E7C0
C0E1E0
7FC060
1F0000
ENDCHAR
STARTCHAR 3089
ENCODING 12425
SWIDTH 1000 0
DWIDTH 25 0
BBX 17 23 4 -2
BITMAP
0C0000
038000
01C000
01E000
07E000
080000
100000
200000
200000
200000
200000
200000
20FE00
638300
6C0180
780180
F00180
600380
000300
000600
000C00
003000
03C000
ENDCHAR
STARTCHAR 308A
ENCODING 12426
SWIDTH 1000 0
DWIDTH 25 0
BBX 13 24 5 -4
BITMAP
C000
6000
67E0
6830
6830
5018
D018
E018
E018
C018
C018
C018
C018
C018
4018
0030
0030
0030
0060
0060
01C0
0180
0700
0700
ENDCHAR
STARTCHAR 308B
ENCODING 12427
SWIDTH 1000 0
DWIDTH 25 0
BBX 17 22 4 -2
BITMAP
00E000
23F000
3E3800
1CF000
09E000
01C000
038000
020000
060000
0C0000
09F800
160600
380300
700180
E00180
C00180
000180
07C300
0CE300
081600
083C00
07F000
ENDCHAR
STARTCHAR 308C
ENCODING 12428
SWIDTH 1000 0
DWIDTH 25 0
BBX 25 25 0 -4
BITMAP
06000000
03000000
03800000
03800000
03000000
0300C000
03036000
020C3000
07183000
0F203000
BA403000
72803000
27003000
1B006000
12006000
1E006000
2A006000
3A006000
5A006080
E6006300
C6003E00
06001800
06000000
04000000
04000000
ENDCHAR
STARTCHAR 308D
ENCODING 12429
SWIDTH 1000 0
DWIDTH 25 0
BBX 19 22 3 -2
BITMAP
107800
19FC00
0F1C00
0E7000
04E000
01C000
010000
030000
040000
04FE00
0B0380
1400C0
380060
700060
E00060
C00060
0000C0
0000C0
000180
000700
001C00
03E000
ENDCHAR
STARTCHAR 308E
ENCODING 12430
SWIDTH 1000 0
DWIDTH 25 0
BBX 17 18 4 -2
BITMAP
0C0000
060000
060000
060000
040000
0E0000
9E1C00
68E700
698300
1A0180
2C0180
380180
480180
E80300
A80300
180600
183800
180000
ENDCHAR
STARTCHAR 308F
ENCODING 12431
SWIDTH 1000 0
DWIDTH 25 0
BBX 23 25 1 -4
BITMAP
060000
030000
038000
038000
030000
030000
020000
020000
0701F0
0F0618
9E380C
724006
228006
130006
160006
0E0006
1E000C
34000C
740018
EE0030
CE00C0
060700
060000
040000
040000
ENDCHAR
STARTCHAR 3090
ENCODING 12432
SWIDTH 1000 0
DWIDTH 25 0
BBX 21 21 2 -1
BITMAP
007000
11F800
0F3C00
0E7800
047000
00E000
00E000
008000
013FC0
01E070
070030
0A0018
160018
340018
6C0018
480018
D87C30
90E730
F081E0
70F1C0
007F00
ENDCHAR
STARTCHAR 3091
ENCODING 12433
SWIDTH 1000 0
DWIDTH 25 0
BBX 23 23 1 -2
BITMAP
003800
04F400
079E00
033E00
017000
004000
009F80
01F0C0
038060
060060
0E0060
0CF8C0
019D80
010700
00FC00
008000
0100F0
020308
0E1C0C
193806
71F006
E1C07E
C1800C
ENDCHAR
STARTCHAR 3092
ENCODING 12434
SWIDTH 1000 0
DWIDTH 25 0
BBX 19 23 3 -2
BITMAP
060000
03C000
03C000
031800
82FC00
7FE000
760000
240000
0C0100
0800C0
1F00E0
71C3E0
E1CF00
C1D800
01E000
03C000
05C000
090000
180000
100000
180180
0FFF80
03FF00
ENDCHAR
STARTCHAR 3093
ENCODING 12435
SWIDTH 1000 0
DWIDTH 25 0
BBX 23 22 1 -2
BITMAP
003800
001C00
001C00
003C00
003800
007800
007000
007000
00C000
008000
018000
010000
020000
07C000
0C7002
087002
187004
303808
603818
E03870
C01FE0
000780
ENDCHAR
STARTCHAR 309B
ENCODING 12443
SWIDTH 1000 0
DWIDTH 25 0
BBX 7 6 0 15
BITMAP
10
0C
86
66
30
30
ENDCHAR
STARTCHAR 309C
ENCODING 12444
SWIDTH 1000 0
DWIDTH 25 0
BBX 5 5 1 15
BITMAP
70
88
88
88
70
ENDCHAR
STARTCHAR 309D
ENCODING 12445
SWIDTH 1000 0
DWIDTH 25 0
BBX 10 10 7 5
BITMAP
8000
4000
2000
3000
1C00
0F00
0780
07C0
1CC0
2000
ENDCHAR
STARTCHAR 309E
ENCODING 12446
SWIDTH 1000 0
DWIDTH 25 0
BBX 14 13 7 5
BITMAP
0020
0018
010C
80CC
4060
2060
3000
1C00
0F00
0780
07C0
1CC0
2000
ENDCHAR
STARTCHAR 30A1
ENCODING 12449
SWIDTH 1000 0
DWIDTH 25 0
BBX 15 13 5 -2
BITMAP
0038
87FC
FF0E
741C
23B0
03C0
0380
0700
0700
0400
0C00
0800
1000
ENDCHAR
STARTCHAR 30A2
ENCODING 12450
SWIDTH 1000 0
DWIDTH 25 0
BBX 21 20 2 -2
BITMAP
000380
803EE0
C3F070
7F80F8
3C61C0
107200
003C00
003800
003800
003800
003800
007000
007000
007000
006000
00E000
008000
008000
010000
020000
ENDCHAR
STARTCHAR 30A3
ENCODING 12451
SWIDTH 1000 0
DWIDTH 25 0
BBX 11 16 5 -2
BITMAP
0180
01E0
01E0
03C0
0380
0700
0F80
1B80
3380
C380
0380
0380
0380
0380
0380
0380
ENDCHAR
STARTCHAR 30A4
ENCODING 12452
SWIDTH 1000 0
DWIDTH 25 0
BBX 15 23 3 -2
BITMAP
0008
0008
001E
001C
0018
0070
0070
00E0
01C0
03F0
06E0
0CE0
18E0
30E0
C0E0
00E0
00E0
00E0
00E0
00E0
00E0
00E0
00C0
ENDCHAR
STARTCHAR 30A5
ENCODING 12453
SWIDTH 1000 0
DWIDTH 25 0
BBX 14 16 6 -2
BITMAP
0E00
0780
0700
0710
87F8
DF1C
F818
C038
C030
C030
C060
0060
00C0
0080
0300
0E00
ENDCHAR
STARTCHAR 30A6
ENCODING 12454
SWIDTH 1000 0
DWIDTH 25 0
BBX 18 21 4 -1
BITMAP
078000
03C000
01C000
018200
018700
C3FF80
7FC1C0
780180
600300
600300
600300
600600
600600
600C00
000C00
001800
003000
00E000
01C000
018000
060000
ENDCHAR
STARTCHAR 30A7
ENCODING 12455
SWIDTH 1000 0
DWIDTH 25 0
BBX 16 11 4 0
BITMAP
0018
23FC
3F8C
19E0
01C0
01C0
0180
0180
81FE
7F8F
3800
ENDCHAR
STARTCHAR 30A8
ENCODING 12456
SWIDTH 1000 0
DWIDTH 25 0
BBX 22 17 1 0
BITMAP
0003C0
207FE0
1FF060
0F3C00
043800
003800
003800
003800
003800
003800
003000
003010
0031F8
81FFFC
7F8004
3C0000
100000
ENDCHAR
STARTCHAR 30A9
ENCODING 12457
SWIDTH 1000 0
DWIDTH 25 0
BBX 15 16 4 -2
BITMAP
03C0
00E0
00E0
00CC
41FE
7FC6
3BC0
16C0
06C0
0CC0
18C0
14C0
22C0
41E0
81E0
00C0
ENDCHAR
STARTCHAR 30AA
ENCODING 12458
SWIDTH 1000 0
DWIDTH 25 0
BBX 20 22 2 -2
BITMAP
003800
000E00
000700
000600
000600
000600
000FE0
81FFF0
7F7600
3C7600
10E600
00E600
018600
030600
060600
0C0600
188600
306600
C03E00
003E00
000C00
000800
ENDCHAR
STARTCHAR 30AB
ENCODING 12459
SWIDTH 1000 0
DWIDTH 25 0
BBX 20 20 1 -1
BITMAP
00F000
007800
007800
007000
007080
0047C0
21FCE0
3F4070
1CC060
0980C0
0180C0
0300C0
0300C0
060180
060180
0C4300
183300
303E00
201E00
C01C00
ENDCHAR
STARTCHAR 30AC
ENCODING 12460
SWIDTH 1000 0
DWIDTH 25 0
BBX 25 21 0 -1
BITMAP
00000400
00E00300
00782180
00781980
00600C00
00608C00
004FC000
21FCE000
3F407000
1CC06000
0980C000
0180C000
0300C000
0300C000
06018000
06018000
0C430000
18230000
303E0000
201E0000
C01C0000
ENDCHAR
STARTCHAR 30AD
ENCODING 12461
SWIDTH 1000 0
DWIDTH 25 0
BBX 21 22 2 -2
BITMAP
070000
018000
01E000
018200
008F00
00FF80
41E000
67E000
3E7000
1870F0
0073F8
007E00
01F800
87B800
7E3800
780C00
200C00
000C00
000C00
000600
000600
000600
ENDCHAR
STARTCHAR 30AE
ENCODING 12462
SWIDTH 1000 0
DWIDTH 25 0
BBX 22 23 2 -2
BITMAP
000020
070018
01810C
01E0CC
018260
008F60
00FF00
41E000
67E000
3E7000
1870F0
0073F8
007E00
01F800
87B800
7E3800
780C00
200C00
000C00
000C00
000600
000600
000600
ENDCHAR
STARTCHAR 30AF
ENCODING 12463
SWIDTH 1000 0
DWIDTH 25 0
BBX 16 22 4 -2
BITMAP
0600
0380
03C0
0380
060E
07FF
0F87
0C0E
180C
301C
2018
C030
0030
00E0
01C0
01C0
0380
0600
0C00
1800
3000
C000
ENDCHAR
STARTCHAR 30B0
ENCODING 12464
SWIDTH 1000 0
DWIDTH 25 0
BBX 21 23 3 -2
BITMAP
000040
060030
030218
03C198
0300C0
060EC0
07FF00
0F0700
0C0E00
180C00
301C00
201800
C07000
007000
00E000
01C000
01C000
030000
060000
0C0000
180000
300000
C00000
ENDCHAR
STARTCHAR 30B1
ENCODING 12465
SWIDTH 1000 0
DWIDTH 25 0
BBX 20 21 3 -2
BITMAP
0C0000
060000
070000
060000
060000
0C07E0
0FFFF0
0DD800
180C00
181C00
301800
201800
407000
807000
00E000
00E000
01C000
010000
020000
040000
180000
ENDCHAR
STARTCHAR 30B2
ENCODING 12466
SWIDTH 1000 0
DWIDTH 25 0
BBX 23 23 2 -2
BITMAP
000010
00000C
0C0086
060066
070030
060030
060000
0C07E0
0FFFF0
0DB800
180C00
183C00
303800
203800
407000
807000
00E000
00E000
018000
010000
020000
040000
180000
ENDCHAR
STARTCHAR 30B3
ENCODING 12467
SWIDTH 1000 0
DWIDTH 25 0
BBX 19 15 2 1
BITMAP
000100
807F80
7FF0C0
3F00E0
1800C0
0000C0
000180
000180
000180
000180
000300
407F00
3FE700
1E0300
080000
ENDCHAR
STARTCHAR 30B4
ENCODING 12468
SWIDTH 1000 0
DWIDTH 25 0
BBX 23 18 2 1
BITMAP
000010
00008C
000066
000236
80FF30
7FE180
3E01C0
180180
000180
000300
000300
000300
000300
000600
40FE00
3F8E00
1E0600
080000
ENDCHAR
STARTCHAR 30B5
ENCODING 12469
SWIDTH 1000 0
DWIDTH 25 0
BBX 23 24 1 -4
BITMAP
001C00
000700
060380
038300
01C300
018300
01837C
019FFE
83FB06
7F8300
3D8300
118300
018300
018600
010600
000600
000400
001C00
001800
003800
003000
004000
008000
008000
ENDCHAR
STARTCHAR 30B6
ENCODING 12470
SWIDTH 1000 0
DWIDTH 25 0
BBX 24 25 1 -4
BITMAP
000008
001C06
000743
0603B3
038318
01C318
018300
01837C
019FFE
83FB06
7F8300
3D8300
118300
018300
018600
010600
000600
000400
001C00
001800
003800
003000
004000
008000
008000
ENDCHAR
STARTCHAR 30B7
ENCODING 12471
SWIDTH 1000 0
DWIDTH 25 0
BBX 21 19 2 0
BITMAP
100000
0C0000
070000
038000
000000
400000
300008
1E0010
0E0020
0000C0
000180
000300
000E00
007800
81F000
478000
7E0000
3C0000
100000
ENDCHAR
STARTCHAR 30B8
ENCODING 12472
SWIDTH 1000 0
DWIDTH 25 0
BBX 23 20 2 0
BITMAP
000010
10000C
0C0086
070066
038030
000030
400000
300000
1E0010
0E0020
0000C0
000180
000300
000E00
007800
81F000
478000
7E0000
3C0000
100000
ENDCHAR
STARTCHAR 30B9
ENCODING 12473
SWIDTH 1000 0
DWIDTH 25 0
BBX 19 17 3 0
BITMAP
000E00
41FF00
3FC600
1E0E00
080C00
001800
001800
007000
007000
00E800
01C400
030300
060180
0C00C0
1800E0
300060
C00060
ENDCHAR
STARTCHAR 30BA
ENCODING 12474
SWIDTH 1000 0
DWIDTH 25 0
BBX 22 21 3 0
BITMAP
000020
000018
00010C
0000CC
000E60
41FF60
3FC600
1E0E00
080C00
001800
001800
007000
007000
00E800
01C400
030300
060180
0C00C0
1800E0
300060
C00060
ENDCHAR
STARTCHAR 30BB
ENCODING 12475
SWIDTH 1000 0
DWIDTH 25 0
BBX 22 20 1 0
BITMAP
060000
038000
01C000
018000
018000
018020
0181F0
019F38
01F83C
8780E0
7F8180
3D8200
118000
018000
018000
008000
00C000
007000
003FF0
0007F0
ENDCHAR
STARTCHAR 30BC
ENCODING 12476
SWIDTH 1000 0
DWIDTH 25 0
BBX 25 21 0 0
BITMAP
00000400
06000300
03802180
01C01980
01800C00
01800C00
01802000
0181F000
019F3800
01F83C00
8780E000
7F818000
3D820000
11800000
01800000
01800000
00800000
00C00000
00600000
003FF000
000FF000
ENDCHAR
STARTCHAR 30BD
ENCODING 12477
SWIDTH 1000 0
DWIDTH 25 0
BBX 19 21 3 -2
BITMAP
000180
0000C0
8000E0
6000E0
3000C0
3800C0
1801C0
180180
000180
000300
000300
000600
000600
000C00
000800
001800
007000
006000
00C000
010000
060000
ENDCHAR
STARTCHAR 30BE
ENCODING 12478
SWIDTH 1000 0
DWIDTH 25 0
BBX 23 23 2 -2
BITMAP
000010
00000C
000046
000336
800198
6001D8
3001C0
380180
180380
180300
000300
000600
000600
000C00
000C00
003800
003000
007000
00E000
008000
010000
020000
0C0000
ENDCHAR
STARTCHAR 30BF
ENCODING 12479
SWIDTH 1000 0
DWIDTH 25 0
BBX 16 22 4 -2
BITMAP
0600
0380
03C0
0380
060E
07FF
0F87
0C0E
180C
379C
23D8
C1B0
0030
00E0
01C0
01C0
0380
0600
0C00
1800
3000
C000
ENDCHAR
STARTCHAR 30C0
ENCODING 12480
SWIDTH 1000 0
DWIDTH 25 0
BBX 21 23 3 -2
BITMAP
000040
060030
030218
03C198
0300C0
060EC0
07FF00
0F0700
0C0E00
180C00
371C00
23D800
C17000
007000
00E000
01C000
01C000
030000
060000
0C0000
180000
300000
C00000
ENDCHAR
STARTCHAR 30C1
ENCODING 12481
SWIDTH 1000 0
DWIDTH 25 0
BBX 23 24 1 -4
BITMAP
000400
000700
003E00
007C00
01F000
0E3800
001C00
001C08
001FFC
81FCFE
7F9C00
3C1C00
101C00
001C00
003800
003800
003800
007000
004000
00C000
008000
010000
020000
020000
ENDCHAR
STARTCHAR 30C2
ENCODING 12482
SWIDTH 1000 0
DWIDTH 25 0
BBX 24 25 1 -4
BITMAP
000008
000446
000733
003E1B
007C18
01F000
0E3800
001C00
001C10
001FF8
81FCFC
7F9C00
3C1C00
101C00
001C00
003800
003800
003800
007000
004000
00C000
008000
010000
020000
020000
ENDCHAR
STARTCHAR 30C3
ENCODING 12483
SWIDTH 1000 0
DWIDTH 25 0
BBX 15 15 4 -4
BITMAP
1018
0C0C
860E
660C
301C
3018
0018
0030
0020
00E0
01C0
0180
0200
0C00
0C00
ENDCHAR
STARTCHAR 30C4
ENCODING 12484
SWIDTH 1000 0
DWIDTH 25 0
BBX 20 21 2 -2
BITMAP
0400C0
020060
030070
818070
418060
618060
3000E0
3000C0
3000C0
000180
000180
000300
000600
000600
000C00
003800
007000
00E000
018000
030000
0C0000
ENDCHAR
STARTCHAR 30C5
ENCODING 12485
SWIDTH 1000 0
DWIDTH 25 0
BBX 24 23 1 -2
BITMAP
000008
000046
040033
02001B
030198
8180C0
4180E0
6180C0
3001C0
300180
300180
000300
000300
000600
000600
001C00
001800
003800
007000
00C000
018000
030000
0C0000
ENDCHAR
STARTCHAR 30C6
ENCODING 12486
SWIDTH 1000 0
DWIDTH 25 0
BBX 22 22 1 -4
BITMAP
103F80
0FFFC0
078000
020000
000000
0003F8
81FFFC
7FB800
3C1C00
101C00
001C00
001C00
003800
003800
003800
007000
007000
00C000
008000
010000
020000
020000
ENDCHAR
STARTCHAR 30C7
ENCODING 12487
SWIDTH 1000 0
DWIDTH 25 0
BBX 24 25 1 -4
BITMAP
000008
000006
000043
103F33
0FFF98
078018
020000
000000
0003FC
81FFFE
7FB800
3C1C00
101C00
001C00
001C00
003800
003800
003800
007000
007000
00C000
008000
010000
020000
020000
ENDCHAR
STARTCHAR 30C8
ENCODING 12488
SWIDTH 1000 0
DWIDTH 25 0
BBX 14 22 7 -2
BITMAP
E000
3000
3C00
3C00
3000
3000
3000
3000
3F80
30E0
3078
301C
300C
3000
3000
3000
3000
3000
3000
3000
3000
2000
ENDCHAR
STARTCHAR 30C9
ENCODING 12489
SWIDTH 1000 0
DWIDTH 25 0
BBX 16 22 7 -2
BITMAP
E008
3006
3C43
3C33
3018
3018
3000
3000
3F80
30E0
3078
301C
300C
3000
3000
3000
3000
3000
3000
3000
3000
2000
ENDCHAR
STARTCHAR 30CA
ENCODING 12490
SWIDTH 1000 0
DWIDTH 25 0
BBX 22 22 1 -2
BITMAP
007000
003C00
001E00
001C00
001C00
001C00
001DF0
003FFC
83FC3C
7F1C00
3C1C00
103C00
003800
003800
003800
007000
007000
004000
00C000
018000
010000
060000
ENDCHAR
STARTCHAR 30CB
ENCODING 12491
SWIDTH 1000 0
DWIDTH 25 0
BBX 22 15 1 1
BITMAP
000100
103F80
1FFFC0
0F0040
040000
000000
000000
000000
000000
000010
0007F8
81FFFC
FF8004
7C0000
200000
ENDCHAR
STARTCHAR 30CC
ENCODING 12492
SWIDTH 1000 0
DWIDTH 25 0
BBX 17 19 3 -1
BITMAP
000200
007F00
43E380
3F0700
1C0600
000C00
0C0C00
031800
01D000
00F000
00F800
01CC00
01CE00
030700
060300
0C0000
180000
200000
C00000
ENDCHAR
STARTCHAR 30CD
ENCODING 12493
SWIDTH 1000 0
DWIDTH 25 0
BBX 20 23 2 -2
BITMAP
020000
01E000
00F000
007000
000400
003E00
21F700
1F8700
0E0E00
040C00
003800
007800
00F700
01F1C0
0370E0
0E7070
187030
E07000
007000
007000
007000
007000
006000
ENDCHAR
STARTCHAR 30CE
ENCODING 12494
SWIDTH 1000 0
DWIDTH 25 0
BBX 17 21 2 -1
BITMAP
000600
000300
000380
000300
000700
000600
000600
000E00
000C00
003C00
003800
007000
007000
00E000
018000
030000
060000
0C0000
180000
300000
C00000
ENDCHAR
STARTCHAR 30CF
ENCODING 12495
SWIDTH 1000 0
DWIDTH 25 0
BBX 22 15 1 1
BITMAP
0C0000
060200
070100
070080
0600C0
060060
0E0030
0C0038
0C0018
18001C
18000C
30000C
20000C
400000
800000
ENDCHAR
STARTCHAR 30D0
ENCODING 12496
SWIDTH 1000 0
DWIDTH 25 0
BBX 23 19 1 1
BITMAP
000010
00000C
000086
000066
0C0030
060230
070100
070080
0600C0
060060
0E0030
0C0038
0C0018
18001C
18000C
30000C
20000C
400000
800000
ENDCHAR
STARTCHAR 30D1
ENCODING 12497
SWIDTH 1000 0
DWIDTH 25 0
BBX 22 18 1 1
BITMAP
000038
000044
000044
0C0044
060238
070100
070080
0600C0
060060
0E0030
0C0038
0C0018
18001C
18000C
30000C
20000C
400000
800000
ENDCHAR
STARTCHAR 30D2
ENCODING 12498
SWIDTH 1000 0
DWIDTH 25 0
BBX 17 19 4 0
BITMAP
C00000
700000
380000
300000
300000
300800
301E00
30FC00
33E000
3E0000
300000
300000
300000
300000
300000
300000
180380
1FFF80
07FE00
ENDCHAR
STARTCHAR 30D3
ENCODING 12499
SWIDTH 1000 0
DWIDTH 25 0
BBX 21 20 3 0
BITMAP
000040
C00030
700218
380198
3000C0
3000C0
300800
301E00
30FC00
33E000
3E0000
300000
300000
300000
300000
300000
300000
180380
1FFF80
07FE00
ENDCHAR
STARTCHAR 30D4
ENCODING 12500
SWIDTH 1000 0
DWIDTH 25 0
BBX 21 19 3 0
BITMAP
C00070
700088
380088
300088
300070
300800
301E00
30FC00
33E000
3E0000
300000
300000
300000
300000
300000
300000
180380
1FFF80
07FE00
ENDCHAR
STARTCHAR 30D5
ENCODING 12501
SWIDTH 1000 0
DWIDTH 25 0
BBX 17 19 3 -1
BITMAP
000200
001F00
C1F380
7F0380
3C0300
100700
000600
000600
000600
000C00
000C00
001800
001800
007000
00E000
01C000
030000
060000
180000
ENDCHAR
STARTCHAR 30D6
ENCODING 12502
SWIDTH 1000 0
DWIDTH 25 0
BBX 23 22 2 -1
BITMAP
000010
00000C
000086
000266
003F30
C1F3B0
7F0380
3C0300
100700
000600
000600
000600
000C00
000C00
003800
003800
007000
00E000
018000
030000
060000
180000
ENDCHAR
STARTCHAR 30D7
ENCODING 12503
SWIDTH 1000 0
DWIDTH 25 0
BBX 23 21 2 -1
BITMAP
00001C
000022
000222
003F22
C1F39C
7F0380
3C0300
100700
000600
000600
000600
000C00
000C00
003800
003800
007000
00E000
018000
030000
060000
180000
ENDCHAR
STARTCHAR 30D8
ENCODING 12504
SWIDTH 1000 0
DWIDTH 25 0
BBX 23 11 1 4
BITMAP
018000
024000
023800
061C00
0C0600
0C0300
9801C0
7800E0
700078
60003E
00000E
ENDCHAR
STARTCHAR 30D9
ENCODING 12505
SWIDTH 1000 0
DWIDTH 25 0
BBX 23 16 1 4
BITMAP
000100
0000C0
001860
000660
000300
018300
024000
023800
061C00
0C0600
0C0300
9801C0
7800E0
700078
60003E
00000E
ENDCHAR
STARTCHAR 30DA
ENCODING 12506
SWIDTH 1000 0
DWIDTH 25 0
BBX 23 15 1 4
BITMAP
0001C0
000220
000220
000220
0181C0
024000
023800
061C00
0C0600
0C0300
9801C0
7800E0
700078
60003E
00000E
ENDCHAR
STARTCHAR 30DB
ENCODING 12507
SWIDTH 1000 0
DWIDTH 25 0
BBX 21 21 2 -1
BITMAP
018000
00F000
007800
007000
007000
007000
0073F0
81FFF8
7F7000
3C7000
107000
007080
087040
087060
087030
187038
307018
727018
61F000
00F000
00E000
ENDCHAR
STARTCHAR 30DC
ENCODING 12508
SWIDTH 1000 0
DWIDTH 25 0
BBX 23 22 2 -1
BITMAP
000010
01800C
00F086
007866
007030
007030
007000
0073F0
81FFF8
7F7000
3C7000
107000
007080
087040
087060
087030
187038
307018
727018
61F000
00F000
00E000
ENDCHAR
STARTCHAR 30DD
ENCODING 12509
SWIDTH 1000 0
DWIDTH 25 0
BBX 22 21 2 -1
BITMAP
018038
00F044
007844
007044
007038
007000
0073F0
81FFF8
7F7000
3C7000
107000
007080
087040
087060
087030
187038
307018
727018
61F000
00F000
00E000
ENDCHAR
STARTCHAR 30DE
ENCODING 12510
SWIDTH 1000 0
DWIDTH 25 0
BBX 21 15 2 1
BITMAP
000040
0007E0
81FC70
FF80F8
7C01C0
300300
000600
0C0C00
033000
01E000
00F000
007800
003C00
003C00
000C00
ENDCHAR
STARTCHAR 30DF
ENCODING 12511
SWIDTH 1000 0
DWIDTH 25 0
BBX 13 22 5 -2
BITMAP
6000
1800
0F00
03C0
01E0
0070
0030
3000
0C00
0780
03C0
01C0
0000
8000
7000
1C00
0700
03C0
01E0
0070
0038
0018
ENDCHAR
STARTCHAR 30E0
ENCODING 12512
SWIDTH 1000 0
DWIDTH 25 0
BBX 22 20 1 -1
BITMAP
00C000
007800
003C00
003800
007800
007000
007000
00C000
00C200
00C100
008080
0180C0
010060
010030
0200F8
021F98
87F81C
7F000C
3C000C
100000
ENDCHAR
STARTCHAR 30E1
ENCODING 12513
SWIDTH 1000 0
DWIDTH 25 0
BBX 18 20 3 -1
BITMAP
000600
000300
000380
000700
000600
1C0600
030C00
01EC00
007800
007C00
007600
00E700
00E380
01C1C0
0300C0
0600C0
0C0000
180000
300000
C00000
ENDCHAR
STARTCHAR 30E2
ENCODING 12514
SWIDTH 1000 0
DWIDTH 25 0
BBX 22 20 1 -1
BITMAP
000100
203F80
1FFFC0
0FC000
04C000
00C000
00C010
00C3F8
81FFFC
7FF000
3CC000
10C000
00C000
00C000
00C000
00C000
00C000
007030
007FF0
001FE0
ENDCHAR
STARTCHAR 30E3
ENCODING 12515
SWIDTH 1000 0
DWIDTH 25 0
BBX 16 16 4 -4
BITMAP
1C00
0E00
0606
023F
03E7
8F8C
7B88
7190
21E0
00C0
00E0
00E0
0030
0030
0030
0030
ENDCHAR
STARTCHAR 30E4
ENCODING 12516
SWIDTH 1000 0
DWIDTH 25 0
BBX 22 22 1 -2
BITMAP
070000
038000
018000
018000
018070
0083F8
00BE1C
00F03C
03C060
8E4080
7C7100
383200
103800
003800
003800
001C00
001C00
001C00
001E00
000600
000600
000600
ENDCHAR
STARTCHAR 30E5
ENCODING 12517
SWIDTH 1000 0
DWIDTH 25 0
BBX 18 11 3 0
BITMAP
001000
10F800
0FDC00
0E1800
001800
001000
007000
007000
83FFC0
7F03C0
380000
ENDCHAR
STARTCHAR 30E6
ENCODING 12518
SWIDTH 1000 0
DWIDTH 25 0
BBX 22 15 1 1
BITMAP
000200
107F00
1FF380
0F0300
040600
000600
000600
001C00
001C00
001800
0038F8
81FFFC
FFC00C
7C0000
200000
ENDCHAR
STARTCHAR 30E7
ENCODING 12519
SWIDTH 1000 0
DWIDTH 25 0
BBX 13 12 6 -1
BITMAP
0060
87F0
7F38
3030
0030
47E0
3E60
1860
0060
87C0
7EC0
30C0
ENDCHAR
STARTCHAR 30E8
ENCODING 12520
SWIDTH 1000 0
DWIDTH 25 0
BBX 18 19 3 -1
BITMAP
000300
80FF80
7FE1C0
3E0180
100180
000180
000300
000300
41FF00
3FC300
1C0200
000600
000600
000600
000E00
83FE00
7F0600
380000
100000
ENDCHAR
STARTCHAR 30E9
ENCODING 12521
SWIDTH 1000 0
DWIDTH 25 0
BBX 18 21 2 -2
BITMAP
000400
103E00
0FFF00
078000
020000
000380
000EC0
83F1C0
7F01C0
3C0180
100300
000300
000600
000600
000C00
000C00
003800
007000
00E000
018000
060000
ENDCHAR
STARTCHAR 30EA
ENCODING 12522
SWIDTH 1000 0
DWIDTH 25 0
BBX 13 24 6 -4
BITMAP
00C0
C070
6038
7030
6030
6030
6030
6030
6030
6030
6030
6030
6030
6060
0060
0060
00C0
00C0
0380
0300
0600
0800
1000
1000
ENDCHAR
STARTCHAR 30EB
ENCODING 12523
SWIDTH 1000 0
DWIDTH 25 0
BBX 23 20 1 -1
BITMAP
00C000
007800
0C3C00
063800
073800
063800
063800
063802
063804
06380C
063818
0C3830
0C3860
0C38C0
183B80
183F00
307E00
203C00
401800
800000
ENDCHAR
STARTCHAR 30EC
ENCODING 12524
SWIDTH 1000 0
DWIDTH 25 0
BBX 19 21 4 -1
BITMAP
C00000
700000
380000
380000
300000
300000
300000
300000
300000
300020
300040
300080
300300
300600
301C00
30F000
33E000
3F8000
7C0000
380000
100000
ENDCHAR
STARTCHAR 30ED
ENCODING 12525
SWIDTH 1000 0
DWIDTH 25 0
BBX 18 17 3 0
BITMAP
000300
C07F80
63FDC0
7C0180
600180
600380
600300
300300
300300
300300
300600
300600
300600
300600
3FFF00
300300
200000
ENDCHAR
STARTCHAR 30EE
ENCODING 12526
SWIDTH 1000 0
DWIDTH 25 0
BBX 14 15 5 -4
BITMAP
C070
7FF8
781C
6018
6038
6030
0030
0060
0060
01C0
0180
0300
0400
0800
0800
ENDCHAR
STARTCHAR 30EF
ENCODING 12527
SWIDTH 1000 0
DWIDTH 25 0
BBX 18 19 3 -1
BITMAP
000600
C01F00
63FF80
7F01C0
600380
600300
600300
600700
600600
600600
400C00
000C00
001800
001800
007000
00E000
01C000
030000
0C0000
ENDCHAR
STARTCHAR 30F0
ENCODING 12528
SWIDTH 1000 0
DWIDTH 25 0
BBX 22 22 1 -2
BITMAP
003800
001C00
001E00
001C00
001C00
001CE0
107FF0
0FFC10
071C00
021C00
031C00
031CF8
82FFFC
7FDC04
3E1C00
181C00
001C00
001C00
001C00
001C00
001C00
001800
ENDCHAR
STARTCHAR 30F1
ENCODING 12529
SWIDTH 1000 0
DWIDTH 25 0
BBX 23 17 1 0
BITMAP
000100
101F80
0FFBC0
078180
020300
00F200
007C00
003800
003800
003800
003000
003000
003008
803FFC
7FF87E
3F0000
180000
ENDCHAR
STARTCHAR 30F2
ENCODING 12530
SWIDTH 1000 0
DWIDTH 25 0
BBX 19 21 2 -2
BITMAP
000100
000780
81FCC0
7F80E0
3E00C0
1801C0
000180
000180
40FF80
3FE300
1E0300
080600
000600
000C00
000800
003800
007000
006000
008000
010000
060000
ENDCHAR
STARTCHAR 30F3
ENCODING 12531
SWIDTH 1000 0
DWIDTH 25 0
BBX 21 18 2 1
BITMAP
200000
100000
1C0000
0F0000
070000
000008
000010
000020
000040
000180
000300
000E00
003C00
00F000
87E000
7F0000
3C0000
180000
ENDCHAR
STARTCHAR 30F4
ENCODING 12532
SWIDTH 1000 0
DWIDTH 25 0
BBX 23 25 2 -4
BITMAP
000010
03000C
018086
01E066
018030
018330
C1FF80
7F81C0
7C0180
600380
600300
600300
600300
600600
400600
000C00
000C00
003800
007000
006000
008000
010000
020000
040000
040000
ENDCHAR
STARTCHAR 30F5
ENCODING 12533
SWIDTH 1000 0
DWIDTH 25 0
BBX 15 16 5 -4
BITMAP
0C00
0780
0718
87FC
FF0E
770C
270C
0C0C
0C0C
0C18
1B18
1198
2070
4060
8060
8060
ENDCHAR
STARTCHAR 30F6
ENCODING 12534
SWIDTH 1000 0
DWIDTH 25 0
BBX 15 17 4 -4
BITMAP
3000
1C00
1800
183C
1FFE
35C0
30E0
60F0
40E0
80E0
01C0
01C0
0380
0600
0C00
3000
3000
ENDCHAR
STARTCHAR 30FB
ENCODING 12539
SWIDTH 1000 0
DWIDTH 25 0
BBX 4 3 10 7
BITMAP
F0
F0
F0
ENDCHAR
STARTCHAR 30FC
ENCODING 12540
SWIDTH 1000 0
DWIDTH 25 0
BBX 23 4 1 7
BITMAP
800000
7FFFFC
3FFFFE
180000
ENDCHAR
STARTCHAR 30FD
ENCODING 12541
SWIDTH 1000 0
DWIDTH 25 0
BBX 9 9 8 5
BITMAP
8000
6000
3800
1C00
0E00
0300
0380
0180
0180
ENDCHAR
STARTCHAR 30FE
ENCODING 12542
SWIDTH 1000 0
DWIDTH 25 0
BBX 13 13 8 4
BITMAP
0040
0030
0218
0198
80C0
60C0
3800
1C00
0E00
0300
0380
0180
0180
ENDCHAR
STARTCHAR 3231
ENCODING 12849
SWIDTH 1000 0
DWIDTH 25 0
BBX 23 25 1 -4
BITMAP
080020
100010
273388
263B08
663B4C
46BFE4
7FF304
C63306
CF4366
CEFFF6
CE8706
D6C786
D6DF86
E61B46
C63B66
C63376
C64326
468324
460304
66030C
260308
260308
100010
080020
080020
ENDCHAR
STARTCHAR 3232
ENCODING 12850
SWIDTH 1000 0
DWIDTH 25 0
BBX 23 25 1 -4
BITMAP
080020
100010
20F008
20C008
60C0CC
4FFFE4
40C004
C18006
C10306
C3FF86
C38306
C58306
C9FF06
D18306
C18306
C1FF06
C18306
418304
418304
61830C
21BF08
218608
100010
080020
080020
ENDCHAR
STARTCHAR 3239
ENCODING 12857
SWIDTH 1000 0
DWIDTH 25 0
BBX 23 25 1 -4
BITMAP
080020
100010
211E08
21DD88
619CCC
431CC4
431C24
C6FFF6
C61C06
CE1C06
CE1C06
D61C06
E60606
C60606
C60606
C60626
C60326
460324
4601C4
6601CC
2600E8
260068
100010
080020
080020
ENDCHAR
STARTCHAR 32A4
ENCODING 12964
SWIDTH 1000 0
DWIDTH 25 0
BBX 23 22 1 -2
BITMAP
00FE00
030180
0C0060
100010
203C08
203808
403804
403804
803982
803FC2
803802
803802
803802
803802
403804
4038C4
2FFFE8
200008
100010
0C0060
030180
00FE00
ENDCHAR
STARTCHAR 32A5
ENCODING 12965
SWIDTH 1000 0
DWIDTH 25 0
BBX 23 22 1 -2
BITMAP
00FE00
030180
0C0060
100010
203C08
203808
4438C4
47FFE4
8638C2
8638C2
8638C2
87FFC2
8638C2
803802
403804
403804
203808
203808
100010
0C0060
030180
00FE00
ENDCHAR
STARTCHAR 32A6
ENCODING 12966
SWIDTH 1000 0
DWIDTH 25 0
BBX 23 22 1 -2
BITMAP
00FE00
030180
0C0060
100010
2000C8
2FFFE8
403804
403804
803E02
8039C2
8038C2
803802
803802
803802
403804
403804
203808
203808
100010
0C0060
030180
00FE00
ENDCHAR
STARTCHAR 32A7
ENCODING 12967
SWIDTH 1000 0
DWIDTH 25 0
BBX 23 22 1 -2
BITMAP
00FE00
030180
0C0060
100010
207808
207008
4070C4
4FFFE4
80C002
80C002
818302
83FF82
843802
983802
403804
403984
23FFC8
200008
100010
0C0060
030180
00FE00
ENDCHAR
STARTCHAR 32A8
ENCODING 12968
SWIDTH 1000 0
DWIDTH 25 0
BBX 23 22 1 -2
BITMAP
00FE00
030180
0C0060
100010
207808
207008
4070C4
4FFFE4
80C002
80C002
818302
83FF82
858302
998302
418304
418304
21FF08
218308
100010
0C0060
030180
00FE00
ENDCHAR
STARTCHAR 3303
ENCODING 13059
SWIDTH 1000 0
DWIDTH 25 0
BBX 24 24 0 -4
BITMAP
00C000
8FA000
7C7800
30E000
058000
061800
061FFE
060FFF
060200
0C0000
0C0000
081C00
118E00
20CF00
00CE00
00CE08
00CE10
00CE20
008EC0
019F80
010F00
020200
040000
040000
ENDCHAR
STARTCHAR 330D
ENCODING 13069
SWIDTH 1000 0
DWIDTH 25 0
BBX 24 25 0 -4
BITMAP
1C0000
0C0000
0C4E1C
8FE3F6
FC7B06
6C6306
186104
18618C
10C18C
30C18C
2781FC
43810C
810000
31C000
18E000
18CC00
18CFFE
18C3FF
18C100
018000
018000
030000
020000
0C0000
0C0000
ENDCHAR
STARTCHAR 3314
ENCODING 13076
SWIDTH 1000 0
DWIDTH 25 0
BBX 24 22 0 -1
BITMAP
300000
180000
180000
180000
0B8000
0F8000
FC0000
6C0000
0C0000
05C000
0FEE0E
FE03FF
660306
060306
020306
030306
03010C
03010C
03010C
00010C
0001FC
000104
ENDCHAR
STARTCHAR 3318
ENCODING 13080
SWIDTH 1000 0
DWIDTH 25 0
BBX 24 25 0 -4
BITMAP
100C00
1C2E18
19BBFC
1FD9C0
31801C
318FF7
2303C6
63000C
46000C
860018
0C0010
080020
1038C0
201C00
401C00
001C00
001800
003900
002080
002040
0043E0
03FE30
01C030
010030
010030
ENDCHAR
STARTCHAR 3322
ENCODING 13090
SWIDTH 1000 0
DWIDTH 25 0
BBX 24 25 0 -4
BITMAP
300C00
180300
1C61C0
19F8C0
9E6001
F88002
59000C
180C38
1803E0
183B80
0FF900
07E000
000F80
003E00
01F800
001CE0
087FF0
07DC00
031C00
001800
003800
002000
004000
018000
018000
ENDCHAR
STARTCHAR 3323
ENCODING 13091
SWIDTH 1000 0
DWIDTH 25 0
BBX 24 25 0 -4
BITMAP
300C00
180300
1C61C0
19F8C0
9E6001
F88002
59000C
180C38
1803E0
183B80
0FF900
07E000
002000
003C00
003800
003800
003F00
0039E0
003860
003800
003800
003800
003800
003800
003800
ENDCHAR
STARTCHAR 3326
ENCODING 13094
SWIDTH 1000 0
DWIDTH 25 0
BBX 22 25 2 -4
BITMAP
C06000
623000
713800
61B800
618000
600000
780000
6E0000
670000
630000
600600
60E300
607380
607300
607300
607300
007304
007308
006310
00E360
0087C0
010380
020100
040000
040000
ENDCHAR
STARTCHAR 3327
ENCODING 13095
SWIDTH 1000 0
DWIDTH 25 0
BBX 21 22 3 -1
BITMAP
C00000
600000
700000
600000
600000
600000
7C0000
670000
630000
610000
606000
601800
600E00
600608
600010
000020
000040
00C180
006700
007E00
001800
001000
ENDCHAR
STARTCHAR 332B
ENCODING 13099
SWIDTH 1000 0
DWIDTH 25 0
BBX 24 23 0 -2
BITMAP
003800
324C00
194C00
19B800
188C00
18CFFE
30C3FF
306100
206000
406000
800000
000060
600030
304038
333E30
BF9E30
FB007C
7200B7
348333
327E30
3F7830
1F2030
000030
ENDCHAR
STARTCHAR 3336
ENCODING 13110
SWIDTH 1000 0
DWIDTH 25 0
BBX 25 25 0 -4
BITMAP
00010000
0401C000
0A018C00
0901FE00
19818C00
90C31800
70C21800
606C3000
20606000
00004000
00008000
20010000
380E0000
33003000
3F801800
33019C00
6300D800
5600D880
9EFCD900
0CFC9900
08019A00
10011C00
20021800
400C0000
400C0000
ENDCHAR
STARTCHAR 333B
ENCODING 13115
SWIDTH 1000 0
DWIDTH 25 0
BBX 24 23 0 -2
BITMAP
003800
004C00
004C00
063800
090200
0883FE
98C1FF
706080
307800
203C00
001C00
000020
008010
007898
003848
020060
01C020
00C040
000180
021E00
03FC00
01E000
008000
ENDCHAR
STARTCHAR 3349
ENCODING 13129
SWIDTH 1000 0
DWIDTH 25 0
BBX 23 24 0 -4
BITMAP
300000
0C0000
070000
038000
018000
000018
30030C
0C018E
0701CC
03018C
00018C
C0018C
38018C
0C018C
07010C
03800C
01800C
000018
000018
000010
000030
000020
0000C0
0000C0
ENDCHAR
STARTCHAR 334A
ENCODING 13130
SWIDTH 1000 0
DWIDTH 25 0
BBX 25 25 0 -4
BITMAP
1C003000
078E1800
01831C00
00031800
1C031800
07031800
03031800
00001800
00003000
3C003000
0F002000
03804000
00808000
02403000
09601800
65819C00
3400D800
3600D800
327ED880
237E9900
6301BE00
43011C00
83020800
000C0000
000C0000
ENDCHAR
STARTCHAR 334D
ENCODING 13133
SWIDTH 1000 0
DWIDTH 25 0
BBX 24 25 0 -4
BITMAP
010000
01C000
418000
230000
1A1800
0C1FFE
0E0FFF
1B0200
118000
218000
400000
B800C0
1C0060
180E70
180360
1C0360
1B0361
19C362
18CE64
180E68
180C70
181860
182000
004000
004000
ENDCHAR
STARTCHAR 3351
ENCODING 13137
SWIDTH 1000 0
DWIDTH 25 0
BBX 22 25 2 -4
BITMAP
060000
C30000
638000
630000
630400
630220
636330
023130
063860
040860
0800C0
300180
300600
180180
1838C0
180CE0
1C0CC0
1B0CC0
198CC4
1988C8
1838F0
1831E0
1860C0
188000
188000
ENDCHAR
STARTCHAR 3357
ENCODING 13143
SWIDTH 1000 0
DWIDTH 25 0
BBX 21 24 1 -4
BITMAP
004000
C3F000
7F7000
607200
60C110
60D998
418498
018630
030230
020060
04C0C0
087300
107800
007000
007000
007C00
007300
007380
007180
007000
007000
007000
007000
007000
ENDCHAR
STARTCHAR 337B
ENCODING 13179
SWIDTH 1000 0
DWIDTH 25 0
BBX 25 20 0 -1
BITMAP
00C00C00
7FE00E00
06000F00
46420D00
267BFF80
36630C00
36C30C00
36836D00
0703FD80
063B6D80
FFFF6D80
06036D00
06036F00
06036E00
060E6680
060FEE80
060CCF00
061C1B00
06183380
0620C180
ENDCHAR
STARTCHAR 337C
ENCODING 13180
SWIDTH 1000 0
DWIDTH 25 0
BBX 25 22 0 -2
BITMAP
00602000
1FF87000
0361E000
9B6F8000
FB619300
DB619F80
DA619B00
DA6FFB00
DDE19B00
F8C39B00
D803DB00
DA6FBB00
DBEDBB00
DB6D9B00
FB799B00
DB619F00
C3619B00
03619800
03618000
03E18000
03618000
03618000
ENDCHAR
STARTCHAR 337D
ENCODING 13181
SWIDTH 1000 0
DWIDTH 25 0
BBX 25 22 0 -2
BITMAP
07000300
060FFF80
06003000
06003000
06603000
FFF83000
0603B000
06033000
06033200
06033F00
0D033000
0D033000
0D033000
0D033000
0D833000
18833000
18833000
10C33000
30E33000
20633300
407FFF80
80200000
ENDCHAR
STARTCHAR 337E
ENCODING 13182
SWIDTH 1000 0
DWIDTH 25 0
BBX 25 22 0 -2
BITMAP
026C1000
03FB1C00
9B619800
FB619800
DB781000
DB6E1400
DBE31200
DB632300
FB60FF80
DB60B180
DB61A000
DBE10000
DB632300
FB7F3F80
DB6F3300
03633300
02633300
02633300
06633300
04633F00
0BE3B300
10C1B300
ENDCHAR
STARTCHAR 338E
ENCODING 13198
SWIDTH 1000 0
DWIDTH 25 0
BBX 24 16 0 -2
BITMAP
000003
6CC0F7
FFE10C
66630C
66630C
666108
6662F0
666200
666300
6661F8
6660FE
666307
666203
EEFB03
0001FE
00007C
ENDCHAR
STARTCHAR 338F
ENCODING 13199
SWIDTH 1000 0
DWIDTH 25 0
BBX 23 21 1 -2
BITMAP
600000
E00000
600000
600000
600000
600006
6001EE
63C218
610618
620618
640210
7805E0
680400
6C0600
6603F0
6301FC
61860E
60C406
F3F606
0003FC
0000F8
ENDCHAR
STARTCHAR 339C
ENCODING 13212
SWIDTH 1000 0
DWIDTH 25 0
BBX 25 13 0 0
BITMAP
6CC36600
FFEFFF00
66633300
66633300
66633300
66633300
66633300
66633300
66633300
66633300
66633300
66633300
F77BBB80
ENDCHAR
STARTCHAR 339D
ENCODING 13213
SWIDTH 1000 0
DWIDTH 25 0
BBX 23 13 1 0
BITMAP
1C1D98
633FFC
419CCC
C19CCC
C01CCC
C01CCC
C01CCC
C01CCC
C09CCC
C09CCC
611CCC
761CCC
1C3EEE
ENDCHAR
STARTCHAR 339E
ENCODING 13214
SWIDTH 1000 0
DWIDTH 25 0
BBX 24 19 0 0
BITMAP
600000
E00000
600000
600000
600000
600000
600ECC
63DFFE
610E66
620E66
640E66
780E66
680E66
6C0E66
660E66
630E66
618E66
60CE66
F3FF77
ENDCHAR
STARTCHAR 33A1
ENCODING 13217
SWIDTH 1000 0
DWIDTH 25 0
BBX 23 20 1 0
BITMAP
00003C
000066
000066
00000C
000018
000022
00003E
3383FE
FCDCC0
307060
307060
307060
307060
307060
307060
307060
307060
307060
307060
FDFDF8
ENDCHAR
STARTCHAR 33C4
ENCODING 13252
SWIDTH 1000 0
DWIDTH 25 0
BBX 22 13 1 0
BITMAP
1C00E0
630318
41820C
C1860C
C00600
C00600
C00600
C00600
C08604
C08604
610308
7603B0
1C00E0
ENDCHAR
STARTCHAR 33CD
ENCODING 13261
SWIDTH 1000 0
DWIDTH 25 0
BBX 25 18 0 0
BITMAP
F3CF9E00
61030800
62031000
62031000
64032000
68034000
68034000
7803C000
68034000
6C036000
6C036000
66033000
66033000
63031800
63031800
61BB0D80
61BB0D80
F3CF9E00
ENDCHAR
STARTCHAR 4E00
ENCODING 19968
SWIDTH 1000 0
DWIDTH 25 0
BBX 25 3 0 9
BITMAP
00000200
00000700
FFFFFF80
ENDCHAR
STARTCHAR 4E01
ENCODING 19969
SWIDTH 1000 0
DWIDTH 25 0
BBX 25 24 0 -4
BITMAP
00000300
FFFFFF80
001C0000
001C0000
001C0000
001C0000
001C0000
001C0000
001C0000
001C0000
001C0000
001C0000
001C0000
001C0000
001C0000
001C0000
001C0000
001C0000
001C0000
001C0000
001C0000
00FC0000
00380000
00380000
ENDCHAR
STARTCHAR 4E03
ENCODING 19971
SWIDTH 1000 0
DWIDTH 25 0
BBX 25 23 0 -2
BITMAP
03800000
03000000
03000000
03000000
03000000
03000000
03000300
03000780
03007800
03038000
037C0000
0F800000
F3000000
03000000
03000000
03000000
03000000
03000800
03000800
03000800
03000C00
03FFFC00
01FFF800
ENDCHAR
STARTCHAR 4E07
ENCODING 19975
SWIDTH 1000 0
DWIDTH 25 0
BBX 25 24 0 -4
BITMAP
00000300
FFFFFF80
00600000
00600000
00600000
00600000
00601800
007FFC00
00601800
00C01800
00C01800
00C01800
00C01800
01801800
01803000
01003000
03003000
02006000
06006000
0400C000
081FC000
10038000
60030000
60030000
ENDCHAR
STARTCHAR 4E08
ENCODING 19976
SWIDTH 1000 0
DWIDTH 25 0
BBX 25 25 0 -4
BITMAP
001E0000
001C0000
001C0000
001C0000
001C0000
001C0300
FFFFFF80
001C0000
011C0000
011C0000
011C0000
009C0000
009C0000
005C0000
00780000
00380000
007C0000
006E0000
00C30000
0181C000
0300F000
0C003F80
30000F00
C0000300
C0000300
ENDCHAR
STARTCHAR 4E09
ENCODING 19977
SWIDTH 1000 0
DWIDTH 25 0
BBX 25 21 0 -1
BITMAP
00000C00
3FFFFE00
00000000
00000000
00000000
00000000
00000000
00000000
00003000
0FFFF800
00000000
00000000
00000000
00000000
00000000
00000000
00000000
00000000
00000000
00000300
FFFFFF80
ENDCHAR
STARTCHAR 4E0A
ENCODING 19978
SWIDTH 1000 0
DWIDTH 25 0
BBX 25 23 0 -2
BITMAP
001E0000
001C0000
001C0000
001C0000
001C0000
001C0000
001C0000
001C0000
001C0000
001C0C00
001FFE00
001C0000
001C0000
001C0000
001C0000
001C0000
001C0000
001C0000
001C0000
001C0000
001C0000
001C0300
FFFFFF80
ENDCHAR
STARTCHAR 4E0B
ENCODING 19979
SWIDTH 1000 0
DWIDTH 25 0
BBX 25 24 0 -4
BITMAP
00000300
FFFFFF80
00380000
00380000
00380000
003E0000
00398000
00386000
00383800
00381C00
00380C00
00380000
00380000
00380000
00380000
00380000
00380000
00380000
00380000
00380000
00380000
00380000
00380000
00380000
ENDCHAR
STARTCHAR 4E0D
ENCODING 19981
SWIDTH 1000 0
DWIDTH 25 0
BBX 25 24 0 -4
BITMAP
00000300
FFFFFF80
000F0000
000E0000
001C0000
00380000
003E0000
007CC000
00DC3000
019C1C00
031C0E00
061C0700
0C1C0300
301C0000
C01C0000
001C0000
001C0000
001C0000
001C0000
001C0000
001C0000
001C0000
001C0000
001C0000
ENDCHAR
STARTCHAR 4E0E
ENCODING 19982
SWIDTH 1000 0
DWIDTH 25 0
BBX 25 25 0 -4
BITMAP
03800000
03000000
03000000
03003000
03FFF800
03000000
03000000
0300C000
03FFE000
0600C000
0600C000
0000C000
0000C300
FFFFFF80
0000C000
0000C000
00018000
00018000
00018000
00030000
000F0000
00FE0000
003C0000
00380000
00380000
ENDCHAR
STARTCHAR 4E10
ENCODING 19984
SWIDTH 1000 0
DWIDTH 25 0
BBX 25 24 0 -4
BITMAP
00000300
FFFFFF80
001C0000
001C0000
0E1C0C00
0C1FFE00
0C1C0000
0C1C0000
0C1C0000
0C1C0C00
1FFFFE00
18000C00
18000C00
00000C00
00000C00
00000C00
00001800
00001800
00001800
00003000
000FF000
0001E000
0000C000
0000C000
ENDCHAR
STARTCHAR 4E11
ENCODING 19985
SWIDTH 1000 0
DWIDTH 25 0
BBX 25 23 0 -2
BITMAP
0000C000
1FFFE000
00C0C000
00C0C000
00C0C000
00C0C000
00C0C000
00C0C000
00C0C000
00C0C300
FFFFFF80
0180C000
0180C000
0180C000
0180C000
0180C000
0180C000
0180C000
0180C000
0180C000
0180C000
0180C300
FFFFFF80
ENDCHAR
STARTCHAR 4E14
ENCODING 19988
SWIDTH 1000 0
DWIDTH 25 0
BBX 25 23 0 -2
BITMAP
0200C000
03FFE000
0300C000
0300C000
0300C000
0300C000
0300C000
03FFC000
0300C000
0300C000
0300C000
0300C000
0300C000
0300C000
03FFC000
0300C000
0300C000
0300C000
0300C000
0300C000
0300C000
0300C300
FFFFFF80
ENDCHAR
STARTCHAR 4E15
ENCODING 19989
SWIDTH 1000 0
DWIDTH 25 0
BBX 25 22 0 -2
BITMAP
00000600
7FFFFF00
001E0000
001C0000
003C0000
003B0000
0060C000
00DE7000
019C1C00
031C0E00
061C0700
0C1C0300
301C0000
C01C0000
001C0000
001C0000
001C0000
001C0000
001C0000
001C0000
00000300
FFFFFF80
ENDCHAR
STARTCHAR 4E16
ENCODING 19990
SWIDTH 1000 0
DWIDTH 25 0
BBX 25 25 0 -4
BITMAP
001E3800
071C3000
061C3000
061C3000
061C3000
061C3000
061C3000
061C3300
FFFFFF80
061C3000
061C3000
061C3000
061C3000
061C3000
061FF000
061C3000
061C3000
06000000
06000000
06000000
06000000
06000600
07FFFF00
06000000
06000000
ENDCHAR
STARTCHAR 4E17
ENCODING 19991
SWIDTH 1000 0
DWIDTH 25 0
BBX 25 25 0 -4
BITMAP
0E1E1C00
0C1C1800
0C1C1800
0C1C1800
0C1C1800
0C1C1800
0C1C1800
0C1C1800
0C1C1B00
FFFFFF80
0C1C1800
0C1C1800
0C1C1800
0C1C1800
0C1C1800
0C1C1800
0C1C1800
0C1C1800
0C1C1800
0C1C1800
0C1C1800
0C1C1800
0FFFF800
0C001800
0C001800
ENDCHAR
STARTCHAR 4E18
ENCODING 19992
SWIDTH 1000 0
DWIDTH 25 0
BBX 25 23 0 -2
BITMAP
00003000
0000F800
0003C000
023E0000
03C00000
03000000
03000000
03000000
03000000
03000C00
03FFFE00
03018000
03018000
03018000
03018000
03018000
03018000
03018000
03018000
03018000
03018000
03018300
FFFFFF80
ENDCHAR
STARTCHAR 4E19
ENCODING 19993
SWIDTH 1000 0
DWIDTH 25 0
BBX 25 24 0 -4
BITMAP
00000300
FFFFFF80
001C0000
001C0000
001C0000
101C0C00
1FFFFE00
181C0C00
181C0C00
183A0C00
18398C00
1860CC00
18C06C00
19806C00
1E006C00
18000C00
18000C00
18000C00
18000C00
18000C00
18000C00
18007C00
18001800
18001800
ENDCHAR
STARTCHAR 4E1E
ENCODING 19998
SWIDTH 1000 0
DWIDTH 25 0
BBX 25 23 0 -2
BITMAP
00006000
0FFFF000
0000C000
00198000
001A0000
019C0800
7FDE0E00
019D1C00
019D3000
031CC000
031C8000
061C4000
061C6000
0C1C3000
081C1C00
101C0F80
201C0700
401C0300
80FC0000
00380000
00000000
00000600
7FFFFF00
ENDCHAR
STARTCHAR 4E21
ENCODING 20001
SWIDTH 1000 0
DWIDTH 25 0
BBX 25 24 0 -4
BITMAP
00000300
FFFFFF80
001C0000
001C0000
001C0000
201C0600
3FFFFF00
301C0600
301C0600
339C7600
331C6600
331C6600
331C6600
331C6600
331C6600
331C6600
33FFE600
33006600
33000600
30000600
30000600
30003E00
30000C00
30000C00
ENDCHAR
STARTCHAR 4E26
ENCODING 20006
SWIDTH 1000 0
DWIDTH 25 0
BBX 25 23 0 -2
BITMAP
04004000
03007000
01806000
01C0C000
00C08000
00010600
7FFFFF00
00C30000
00C30000
00C30800
20C30E00
10C30C00
18C30C00
08C31800
0CC31000
0CC33000
0CC32000
0CC34000
00C38000
00C30000
00C30000
00C30300
FFFFFF80
ENDCHAR
STARTCHAR 4E2A
ENCODING 20010
SWIDTH 1000 0
DWIDTH 25 0
BBX 25 25 0 -4
BITMAP
001C0000
003C0000
003A0000
007B0000
00618000
00C0C000
01806000
03003800
061E1F80
0C1C0700
301C0100
C01C0000
001C0000
001C0000
001C0000
001C0000
001C0000
001C0000
001C0000
001C0000
001C0000
001C0000
001C0000
001C0000
001C0000
ENDCHAR
STARTCHAR 4E2D
ENCODING 20013
SWIDTH 1000 0
DWIDTH 25 0
BBX 22 25 2 -4
BITMAP
007800
007000
007000
007000
007000
807018
FFFFFC
C07018
C07018
C07018
C07018
C07018
C07018
FFFFF8
C07018
C07018
007000
007000
007000
007000
007000
007000
007000
007000
007000
ENDCHAR
STARTCHAR 4E31
ENCODING 20017
SWIDTH 1000 0
DWIDTH 25 0
BBX 23 25 1 -4
BITMAP
01C700
018600
018600
E1860E
C1860C
C1860C
C1860C
C1860C
C1860C
C1860C
C1860C
C1860C
C1860C
FF87FC
C1860C
C3060C
030600
030600
060600
060600
0C0600
080600
100600
600600
600600
ENDCHAR
STARTCHAR 4E32
ENCODING 20018
SWIDTH 1000 0
DWIDTH 25 0
BBX 22 25 2 -4
BITMAP
007800
007000
007000
407030
7FFFF8
607030
607030
607030
7FFFF0
607030
007000
807018
FFFFFC
C07018
C07018
C07018
C07018
FFFFF8
C07018
007000
007000
007000
007000
007000
007000
ENDCHAR
STARTCHAR 4E36
ENCODING 20022
SWIDTH 1000 0
DWIDTH 25 0
BBX 14 16 5 2
BITMAP
8000
6000
3000
1800
0C00
0700
0780
03C0
01E0
01E0
0070
0078
0038
003C
003C
0018
ENDCHAR
STARTCHAR 4E38
ENCODING 20024
SWIDTH 1000 0
DWIDTH 25 0
BBX 25 25 0 -4
BITMAP
00780000
00600000
00600000
00600000
00606000
7FFFF000
00606000
00606000
00606000
18606000
06606000
03606000
01C06000
00C06000
00E06000
01B86000
019C6000
031C6000
030E6100
060E6100
0C006100
18006180
30007F80
C0003F00
C0003F00
ENDCHAR
STARTCHAR 4E39
ENCODING 20025
SWIDTH 1000 0
DWIDTH 25 0
BBX 25 25 0 -4
BITMAP
04006000
07FFF000
06006000
06006000
06806000
06606000
06386000
061C6000
061C6000
06006000
06006300
FFFFFF80
06006000
06006000
06006000
06006000
06006000
0C006000
0C006000
0C006000
18006000
18006000
3003E000
C000C000
C000C000
ENDCHAR
STARTCHAR 4E3B
ENCODING 20027
SWIDTH 1000 0
DWIDTH 25 0
BBX 25 23 0 -2
BITMAP
00C00000
003C0000
001E0000
000E0000
00000C00
3FFFFE00
001C0000
001C0000
001C0000
001C0000
001C0000
001C1800
1FFFFC00
001C0000
001C0000
001C0000
001C0000
001C0000
001C0000
001C0000
001C0000
001C0300
FFFFFF80
ENDCHAR
STARTCHAR 4E3C
ENCODING 20028
SWIDTH 1000 0
DWIDTH 25 0
BBX 25 25 0 -4
BITMAP
01C0E000
0180C000
0180C000
0180C000
0180C600
7FFFFF00
01C0C000
01A0C000
01B8C000
019CC000
019CC000
0180C000
0180C300
FFFFFF80
0180C000
0300C000
0300C000
0300C000
0600C000
0600C000
0C00C000
1800C000
3000C000
C000C000
C000C000
ENDCHAR
STARTCHAR 4E3F
ENCODING 20031
SWIDTH 1000 0
DWIDTH 25 0
BBX 15 25 2 -4
BITMAP
000E
000C
000C
000C
000C
000C
000C
000C
000C
000C
000C
0038
0038
0038
0038
0070
0070
00E0
00E0
0180
0300
0600
1800
E000
E000
ENDCHAR
STARTCHAR 4E42
ENCODING 20034
SWIDTH 1000 0
DWIDTH 25 0
BBX 25 25 0 -4
BITMAP
0000E000
0400C000
0400C000
0400C000
0200C000
0200C000
03018000
01018000
01818000
00830000
00C30000
00430000
006E0000
003E0000
001C0000
003E0000
003B0000
00638000
00C1C000
0180F000
03007C00
06001F80
18000F00
E0000300
E0000300
ENDCHAR
STARTCHAR 4E43
ENCODING 20035
SWIDTH 1000 0
DWIDTH 25 0
BBX 25 25 0 -4
BITMAP
0000C000
7FFFE000
00C0C000
00C0C000
00C0C000
00C0C000
00C0C000
00C0C300
00C1FF80
00C18300
00C18300
01800300
01800300
01800300
01800300
03000300
03000600
02000600
06000600
04000C00
08001C00
1001F800
20007000
C0006000
C0006000
ENDCHAR
STARTCHAR 4E45
ENCODING 20037
SWIDTH 1000 0
DWIDTH 25 0
BBX 25 25 0 -4
BITMAP
00400000
00780000
00600000
00600000
00C0C000
00FFE000
00C0C000
0180C000
01818000
03018000
02030000
04030000
080E0000
101D0000
201C8000
00388000
00604000
00C06000
01803000
03001800
06001C00
0C000F80
30000700
C0000300
C0000300
ENDCHAR
STARTCHAR 4E4B
ENCODING 20043
SWIDTH 1000 0
DWIDTH 25 0
BBX 25 23 0 -2
BITMAP
001E0000
001C0000
001C0000
001C1800
7FFFFC00
00003800
00007000
00006000
0000C000
00018000
00030000
000E0000
001C0000
00380000
08600000
09800000
1A000000
14000000
32000000
61800000
E0F80000
603FFF80
2003FF00
ENDCHAR
STARTCHAR 4E4D
ENCODING 20045
SWIDTH 1000 0
DWIDTH 25 0
BBX 25 25 0 -4
BITMAP
01000000
01C00000
01800000
03000300
03FFFF80
031C0000
061C0000
041C0000
0C1C0C00
081FFE00
101C0000
201C0000
401C0000
801C0600
001FFF00
001C0000
001C0000
001C0000
001C0000
001C0000
001C0000
001C0000
001C0000
001C0000
001C0000
ENDCHAR
STARTCHAR 4E4E
ENCODING 20046
SWIDTH 1000 0
DWIDTH 25 0
BBX 25 25 0 -4
BITMAP
00003800
0001FC00
003FC000
3FFC0000
101C1000
081C1C00
041C3800
061C3000
031C6000
031C4000
001C8300
FFFFFF80
001C0000
001C0000
001C0000
001C0000
001C0000
001C0000
001C0000
001C0000
001C0000
001C0000
00FC0000
00380000
00380000
ENDCHAR
STARTCHAR 4E4F
ENCODING 20047
SWIDTH 1000 0
DWIDTH 25 0
BBX 25 25 0 -4
BITMAP
00001C00
0001FE00
007FC000
3FC00000
001E0000
001C0000
001C3000
FFFFF800
00007000
0000E000
0000C000
00018000
00030000
000E0000
001C0000
08380000
08600000
18800000
15000000
32000000
61800000
E0E00000
607FFF80
201FFF00
201FFF00
ENDCHAR
STARTCHAR 4E55
ENCODING 20053
SWIDTH 1000 0
DWIDTH 25 0
BBX 25 25 0 -4
BITMAP
00001C00
0000FE00
081FE000
0FEE0000
0C0E0000
0C0E0300
0FFFFF80
0C0E0000
0C0E0000
0C0E0300
0FFFFF80
0C0E0000
0C0E0000
0E0E0C00
1BFFFE00
1B0E0C00
1B0E0C00
130E0C00
330E0C00
230E0C00
430E7C00
830E1800
000E0000
000E0000
000E0000
ENDCHAR
STARTCHAR 4E56
ENCODING 20054
SWIDTH 1000 0
DWIDTH 25 0
BBX 25 25 0 -4
BITMAP
00003000
0001F800
003FC000
1FFC0000
001C0000
001C0300
FFFFFF80
001C0000
001C0000
01DCE000
019CC000
7F9CC200
019CC700
019CCE00
019CF800
039CC000
0D9CC100
F99CC100
719CC180
419CFF80
019C7F00
001C0000
001C0000
001C0000
001C0000
ENDCHAR
STARTCHAR 4E57
ENCODING 20055
SWIDTH 1000 0
DWIDTH 25 0
BBX 25 25 0 -4
BITMAP
00003800
0003FC00
0FFF0000
001C0000
001C0600
7FFFFF00
031C6000
031C6000
031C6300
FFFFFF80
031C6000
031C6000
031C6600
7FFFFF00
007E0000
00DD0000
00DC8000
019CC000
031C6000
061C3800
0C1C1F80
301C0700
C01C0300
001C0000
001C0000
ENDCHAR
STARTCHAR 4E58
ENCODING 20056
SWIDTH 1000 0
DWIDTH 25 0
BBX 25 25 0 -4
BITMAP
00007000
000FF800
1FFE0000
001C0000
001C0300
FFFFFF80
001C0000
01DCE400
019CC700
FF9CCE00
019CF800
019CC100
0F9CC180
F9BEFF80
61BE7F00
407D0000
00DD8000
019CC000
031C7000
0E1C3F80
381C0F00
C01C0300
001C0000
001C0000
001C0000
ENDCHAR
STARTCHAR 4E59
ENCODING 20057
SWIDTH 1000 0
DWIDTH 25 0
BBX 24 22 0 -2
BITMAP
000060
FFFFF0
0001C0
000380
000F00
001E00
003C00
007800
00E000
01C000
038000
070000
0E0000
0C0000
180000
180002
300002
300002
380003
180003
1FFFFF
07FFFE
ENDCHAR
STARTCHAR 4E5D
ENCODING 20061
SWIDTH 1000 0
DWIDTH 25 0
BBX 25 25 0 -4
BITMAP
00E00000
00C00000
00C00000
00C00000
00C00000
00C0C000
FFFFE000
00C0C000
00C0C000
00C0C000
00C0C000
00C0C000
00C0C000
0180C000
0180C000
0180C000
0180C100
0300C100
0300C100
0600C180
0C00C180
1800FF80
30007F00
C0000000
C0000000
ENDCHAR
STARTCHAR 4E5E
ENCODING 20062
SWIDTH 1000 0
DWIDTH 25 0
BBX 24 25 0 -4
BITMAP
010000
01C000
018000
030006
03FFFF
060000
0C0000
0800C0
17FFE0
200380
401E00
803C00
006000
00C000
018000
030000
060000
0C0002
0C0002
180002
180002
180003
0FFFFF
07FFFE
07FFFE
ENDCHAR
STARTCHAR 4E5F
ENCODING 20063
SWIDTH 1000 0
DWIDTH 25 0
BBX 25 25 0 -4
BITMAP
001E0000
001C0000
071C0000
061C0000
061C3000
061C7800
061DB000
061E3000
063C3000
06DC3000
071C3000
0E1C3000
361C3000
C61C3000
061C3000
061DF000
061C6000
061C0100
061C0100
06000100
06000100
06000180
07FFFF80
03FFFF00
03FFFF00
ENDCHAR
STARTCHAR 4E62
ENCODING 20066
SWIDTH 1000 0
DWIDTH 25 0
BBX 24 25 1 -4
BITMAP
0E0700
0C0600
0C0600
0C0600
ECF600
CCC600
CCC600
CCC600
CCC600
CCC600
CCC600
CCC600
CCC600
CCC600
CCC600
CCC600
CCC600
FFC602
C0C602
C0C602
C00603
000603
0007FF
0003FE
0003FE
ENDCHAR
STARTCHAR 4E71
ENCODING 20081
SWIDTH 1000 0
DWIDTH 25 0
BBX 25 25 0 -4
BITMAP
001CE000
007EC000
01E0C000
0F00C000
F300C000
0300C000
0300C000
031CC000
FFFEC000
0300C000
0300C000
0300C000
0300C000
2338C000
3FFCC000
3038C000
3038C000
3038C100
3038C100
3038C100
3038C100
3FF8C180
3038FF80
30387F00
30387F00
ENDCHAR
STARTCHAR 4E73
ENCODING 20083
SWIDTH 1000 0
DWIDTH 25 0
BBX 25 25 0 -4
BITMAP
0039C000
00FD8000
07A18000
FC3D8000
48398000
26618000
36418000
30818000
01398000
FFFD8000
00618000
02C18000
03018000
033D8000
0FC18000
FF018000
73018000
43018000
03018100
03018100
03018100
03018180
1F01FF80
0600FF00
0600FF00
ENDCHAR
STARTCHAR 4E7E
ENCODING 20094
SWIDTH 1000 0
DWIDTH 25 0
BBX 25 25 0 -4
BITMAP
07010000
0601C000
06618000
FFF98000
06030300
0603FF80
46620000
7FEE0000
606C0C00
607BFE00
7FE01C00
60603800
60607000
6060E000
7FE1C000
66618000
06030000
06630100
FFFE0100
060E0100
060E0180
060FFF80
0603FF00
06000000
06000000
ENDCHAR
STARTCHAR 4E80
ENCODING 20096
SWIDTH 1000 0
DWIDTH 25 0
BBX 25 25 0 -4
BITMAP
01000000
01830000
03FF8000
03030000
060C3000
0FFFF800
1E1C3000
361C3000
C7FFF000
061C3000
061C3000
07FFF000
101C0C00
1FFFFE00
181C0C00
181C0C00
1FFFFC00
181C0C00
181C0C00
1FFFFD00
181C0D00
181C0180
001FFF80
000FFF00
000FFF00
ENDCHAR
STARTCHAR 4E82
ENCODING 20098
SWIDTH 1000 0
DWIDTH 25 0
BBX 25 25 0 -4
BITMAP
0078E000
03FEC000
FF98C000
443CC000
3338C000
2240C000
7FFCC000
0860C000
06C0C000
431CC000
7FFEC000
661CC000
649CC000
7FDCC000
6CDCC000
601CC000
6FDCC000
659CC100
631CC100
66DCC100
78DCC100
601CC180
60FCFF80
60387F00
60387F00
ENDCHAR
STARTCHAR 4E85
ENCODING 20101
SWIDTH 1000 0
DWIDTH 25 0
BBX 8 25 7 -4
BITMAP
0F
0E
0E
0E
0E
0E
0E
0E
0E
0E
0E
0E
0E
0E
0E
0E
0E
0E
0E
0E
0E
0E
FE
3C
3C
ENDCHAR
STARTCHAR 4E86
ENCODING 20102
SWIDTH 1000 0
DWIDTH 25 0
BBX 23 24 1 -4
BITMAP
00000C
FFFFFE
000038
000060
003180
003600
003800
003800
003800
003800
003800
003800
003800
003800
003800
003800
003800
003800
003800
003800
003800
01F800
007000
007000
ENDCHAR
STARTCHAR 4E88
ENCODING 20104
SWIDTH 1000 0
DWIDTH 25 0
BBX 25 25 0 -4
BITMAP
00001800
1FFFFC00
00806000
0040C000
00210000
003A0000
001C0000
00180300
FFFFFF80
001C0600
001C0800
001C1000
001C2000
001C0000
001C0000
001C0000
001C0000
001C0000
001C0000
001C0000
001C0000
001C0000
00FC0000
00380000
00380000
ENDCHAR
STARTCHAR 4E89
ENCODING 20105
SWIDTH 1000 0
DWIDTH 25 0
BBX 25 25 0 -4
BITMAP
00800000
00E00000
01C18000
01FFC000
03018000
06020000
080C1800
1FFFFC00
201C1800
C01C1800
001C1B00
FFFFFF80
001C1800
001C1800
001C1800
1FFFF800
001C1800
001C1800
001C0000
001C0000
001C0000
001C0000
00FC0000
00380000
00380000
ENDCHAR
STARTCHAR 4E8A
ENCODING 20106
SWIDTH 1000 0
DWIDTH 25 0
BBX 25 25 0 -4
BITMAP
001E0000
001C0000
001C0600
7FFFFF00
041C4000
031C7000
019C6000
011C9800
0FFFFC00
001C1800
001C1800
001C1B00
FFFFFF80
001C1800
001C1800
001C1800
0FFFF800
001C1800
001C0000
001C0000
001C0000
001C0000
00FC0000
00380000
00380000
ENDCHAR
STARTCHAR 4E8B
ENCODING 20107
SWIDTH 1000 0
DWIDTH 25 0
BBX 25 25 0 -4
BITMAP
001E0000
001C0300
FFFFFF80
001C0000
041C3000
07FFF800
061C3000
061C3000
07FFF000
061C3000
001C0C00
1FFFFE00
001C0C00
001C0D00
FFFFFF80
001C0C00
001C0C00
1FFFFC00
001C0C00
001C0000
001C0000
001C0000
00FC0000
00380000
00380000
ENDCHAR
STARTCHAR 4E8C
ENCODING 20108
SWIDTH 1000 0
DWIDTH 25 0
BBX 25 19 0 0
BITMAP
00001800
1FFFFC00
00000000
00000000
00000000
00000000
00000000
00000000
00000000
00000000
00000000
00000000
00000000
00000000
00000000
00000000
00000000
00000300
FFFFFF80
ENDCHAR
STARTCHAR 4E8E
ENCODING 20110
SWIDTH 1000 0
DWIDTH 25 0
BBX 25 24 0 -4
BITMAP
00000C00
3FFFFE00
001C0000
001C0000
001C0000
001C0000
001C0300
FFFFFF80
001C0000
001C0000
001C0000
001C0000
001C0000
001C0000
001C0000
001C0000
001C0000
001C0000
001C0000
001C0000
001C0000
01FC0000
00780000
00780000
ENDCHAR
STARTCHAR 4E91
ENCODING 20113
SWIDTH 1000 0
DWIDTH 25 0
BBX 25 22 0 -2
BITMAP
00001800
1FFFFC00
00000000
00000000
00000000
00000000
00000300
FFFFFF80
003C0000
00380000
00380000
00600000
00600000
00408000
00C06000
00803000
01001C00
0100FE00
02FF0700
FFE00300
7C000300
40000000
ENDCHAR
STARTCHAR 4E92
ENCODING 20114
SWIDTH 1000 0
DWIDTH 25 0
BBX 25 22 0 -2
BITMAP
00000600
7FFFFF00
00C00000
00C00000
00C00000
00C00000
00C06000
01FFF000
01806000
01806000
01806000
0300C000
0300C000
0300C000
07FFC000
0600C000
0000C000
00018000
00018000
00018000
00018300
FFFFFF80
ENDCHAR
STARTCHAR 4E94
ENCODING 20116
SWIDTH 1000 0
DWIDTH 25 0
BBX 25 22 0 -2
BITMAP
00000600
7FFFFF00
00600000
00600000
00600000
00600000
00600000
00600000
00C06000
3FFFF000
00C06000
00C06000
00C06000
00C06000
00C06000
00C06000
01806000
01806000
01806000
01806000
01806300
FFFFFF80
ENDCHAR
STARTCHAR 4E95
ENCODING 20117
SWIDTH 1000 0
DWIDTH 25 0
BBX 25 25 0 -4
BITMAP
01C1C000
01818000
01818000
01818000
01818000
01818600
7FFFFF00
01818000
01818000
01818000
01818000
01818000
01818300
FFFFFF80
01818000
01818000
01818000
03018000
03018000
02018000
06018000
04018000
08018000
30018000
30018000
ENDCHAR
STARTCHAR 4E98
ENCODING 20120
SWIDTH 1000 0
DWIDTH 25 0
BBX 25 22 0 -2
BITMAP
00000600
7FFFFF00
00000000
00000000
02006000
03FFF000
03006000
03006000
03006000
03006000
03006000
03FFE000
03006000
03006000
03006000
03006000
03006000
03FFE000
03006000
00000000
00000300
FFFFFF80
ENDCHAR
STARTCHAR 4E99
ENCODING 20121
SWIDTH 1000 0
DWIDTH 25 0
BBX 25 22 0 -2
BITMAP
00000600
7FFFFF00
00C00000
00C00000
00C06000
00FFF000
00C06000
01806000
01A0C000
019CC000
030EC000
030EC000
03818000
06618000
06398000
0C3B0000
0C030000
00030000
00030000
000E0000
000E0300
FFFFFF80
ENDCHAR
STARTCHAR 4E9B
ENCODING 20123
SWIDTH 1000 0
DWIDTH 25 0
BBX 25 23 0 -2
BITMAP
038F0000
030E0000
3B0E0800
332E0E00
33FE1C00
330E7000
330F8000
330E0000
330E0100
333E0100
33CE0180
3F0FFF80
FC03FF00
70000000
40000000
00000000
00001800
1FFFFC00
00000000
00000000
00000000
00000300
FFFFFF80
ENDCHAR
STARTCHAR 4E9C
ENCODING 20124
SWIDTH 1000 0
DWIDTH 25 0
BBX 25 23 0 -2
BITMAP
00000600
7FFFFF00
00C18000
00C18000
00C18000
00C18000
10C18C00
1FFFFE00
18C18C00
18C18C00
18C18C00
18C18C00
18C18C00
1FFFFC00
18C18C00
18C18C00
00C18000
00C18000
00C18000
00C18000
00C18000
00C18300
FFFFFF80
ENDCHAR
STARTCHAR 4E9E
ENCODING 20126
SWIDTH 1000 0
DWIDTH 25 0
BBX 25 22 0 -2
BITMAP
00000600
7FFFFF00
00C18000
00C18000
00C18000
00C18000
10C18C00
1FC1FE00
18C18C00
18000C00
18000C00
18000C00
18C10C00
1FE1FC00
18C18C00
18C18C00
00C18000
00C18000
00C18000
00C18000
00C18300
FFFFFF80
ENDCHAR
STARTCHAR 4E9F
ENCODING 20127
SWIDTH 1000 0
DWIDTH 25 0
BBX 25 22 0 -2
BITMAP
00000C00
3FFFFE00
00C00000
00C00000
01800000
019C0000
03FE0000
031C0000
001C0C00
431FFE00
7F9C8C00
631C5800
631C5800
631C3000
631C3000
7F386800
6338CF80
60F98700
00EE0300
00C00000
00000300
FFFFFF80
ENDCHAR
STARTCHAR 4EA0
ENCODING 20128
SWIDTH 1000 0
DWIDTH 25 0
BBX 25 8 0 6
BITMAP
001E0000
001C0000
001C0000
001C0000
001C0000
001C0000
001C0300
FFFFFF80
ENDCHAR
STARTCHAR 4EA1
ENCODING 20129
SWIDTH 1000 0
DWIDTH 25 0
BBX 25 23 0 -2
BITMAP
001E0000
001C0000
001C0000
001C0000
001C0000
001C0300
FFFFFF80
03000000
03000000
03000000
03000000
03000000
03000000
03000000
03000000
03000000
03000000
03000000
03000000
03000000
03000000
03FFFC00
01FFFC00
ENDCHAR
STARTCHAR 4EA2
ENCODING 20130
SWIDTH 1000 0
DWIDTH 25 0
BBX 25 25 0 -4
BITMAP
001E0000
001C0000
001C0000
001C0300
FFFFFF80
00000000
00000000
01030000
01FF8000
01830000
01830000
01830000
01830000
01830000
01830000
03030000
03030000
03030000
06030100
06030100
0C030100
18030180
3003FF80
C001FF00
C001FF00
ENDCHAR
STARTCHAR 4EA4
ENCODING 20132
SWIDTH 1000 0
DWIDTH 25 0
BBX 25 25 0 -4
BITMAP
001E0000
001C0000
001C0000
001C0300
FFFFFF80
00000000
01010000
01C0C000
03803000
03011C00
0681CE00
18818600
60430000
00430000
002E0000
002E0000
001C0000
003E0000
00630000
00C1C000
0380F000
06003F80
18000F00
E0000100
E0000100
ENDCHAR
STARTCHAR 4EA5
ENCODING 20133
SWIDTH 1000 0
DWIDTH 25 0
BBX 25 25 0 -4
BITMAP
001E0000
001C0000
001C0300
FFFFFF80
00200000
003C0000
00390000
0061C000
04418000
03830000
01832000
00CE3800
00DC3000
00386000
00606000
00C0C000
01818000
06030000
380E8000
003C6000
00603000
01801800
06001C00
38000C00
38000C00
ENDCHAR
STARTCHAR 4EA6
ENCODING 20134
SWIDTH 1000 0
DWIDTH 25 0
BBX 25 25 0 -4
BITMAP
001E0000
001C0000
001C0000
001C0000
001C0300
FFFFFF80
00C18000
00C18000
08C1A000
0EC19000
0CC18800
0CC18C00
08C18600
18C18600
10C18300
31818300
21818300
41818000
83018000
03018000
06018000
0C018000
181F8000
60030000
60030000
ENDCHAR
STARTCHAR 4EA8
ENCODING 20136
SWIDTH 1000 0
DWIDTH 25 0
BBX 25 25 0 -4
BITMAP
001E0000
001C0000
001C0300
FFFFFF80
00000000
02006000
03FFF000
03006000
03006000
03FFE000
03006000
00000600
7FFFFF00
00001C00
0018F000
001B0000
001C0000
001C0000
001C0000
001C0000
001C0000
001C0000
00FC0000
00380000
00380000
ENDCHAR
STARTCHAR 4EAB
ENCODING 20139
SWIDTH 1000 0
DWIDTH 25 0
BBX 25 25 0 -4
BITMAP
001E0000
001C0000
001C0300
FFFFFF80
00000000
02006000
03FFF000
03006000
03006000
03FFE000
03006000
00000C00
1FFFFE00
00007800
0019C000
001E0300
FFFFFF80
001C0000
001C0000
001C0000
001C0000
001C0000
00FC0000
00380000
00380000
ENDCHAR
STARTCHAR 4EAC
ENCODING 20140
SWIDTH 1000 0
DWIDTH 25 0
BBX 25 25 0 -4
BITMAP
001E0000
001C0000
001C0000
001C0300
FFFFFF80
00000000
04003000
07FFF800
06003000
06003000
06003000
06003000
07FFF000
061C3000
001C0000
041C4000
071C2000
0E1C1800
0C1C0C00
181C0600
301C0700
C01C0300
00FC0000
00380000
00380000
ENDCHAR
STARTCHAR 4EAD
ENCODING 20141
SWIDTH 1000 0
DWIDTH 25 0
BBX 25 25 0 -4
BITMAP
001E0000
001C0000
001C0600
7FFFFF00
00000000
0100C000
01FFE000
0180C000
0180C000
01FFC000
2180C000
20000300
3FFFFF80
60000300
E0001A00
DFFFFC00
001C0000
001C0000
001C0000
001C0000
001C0000
001C0000
00FC0000
00380000
00380000
ENDCHAR
STARTCHAR 4EAE
ENCODING 20142
SWIDTH 1000 0
DWIDTH 25 0
BBX 25 25 0 -4
BITMAP
001E0000
001C0000
001C0300
FFFFFF80
00000000
0100C000
01FFE000
0180C000
0180C000
11FFC000
10000300
1FFFFF80
30000600
60800400
60E38800
00C30000
00C30000
01830000
01830100
03030100
06030100
0C030180
3003FF80
C001FF00
C001FF00
ENDCHAR
STARTCHAR 4EB0
ENCODING 20144
SWIDTH 1000 0
DWIDTH 25 0
BBX 25 25 0 -4
BITMAP
001E0000
001C0000
001C0300
FFFFFF80
00000000
02006000
03FFF000
03006000
03006000
03006000
03FFE000
03006000
03006000
03006000
03FFE000
031C6000
021C0000
079CC000
061C3000
0C1C1C00
181C0E00
301C0700
C0FC0300
00380000
00380000
ENDCHAR
STARTCHAR 4EB3
ENCODING 20147
SWIDTH 1000 0
DWIDTH 25 0
BBX 25 25 0 -4
BITMAP
001E0000
001C0600
7FFFFF00
00000000
0100C000
01FFE000
0180C000
0180C000
21FFC000
20000300
3FFFFF80
60010600
E00F8800
C07FC000
0FF80000
00380000
00380C00
7FFFFE00
00380100
00380100
00380100
00380180
003FFF80
001FFF00
001FFF00
ENDCHAR
STARTCHAR 4EB6
ENCODING 20150
SWIDTH 1000 0
DWIDTH 25 0
BBX 25 23 0 -2
BITMAP
001E0000
001C0600
7FFFFF00
00000000
07FFF800
06003000
067F3000
06633000
06633000
067F3000
06003000
07FFF000
06003000
01FFC000
0180C000
0180C000
01FFC000
0180C000
0180C000
01FFC000
0180C000
00000300
FFFFFF80
ENDCHAR
STARTCHAR 4EBA
ENCODING 20154
SWIDTH 1000 0
DWIDTH 25 0
BBX 25 25 0 -4
BITMAP
001E0000
001C0000
001C0000
001C0000
001C0000
001C0000
001C0000
001C0000
003A0000
003A0000
003A0000
003A0000
00610000
00610000
00408000
00C08000
0080C000
01806000
01003000
02003800
04001C00
08000F80
30000700
C0000300
C0000300
ENDCHAR
STARTCHAR 4EC0
ENCODING 20160
SWIDTH 1000 0
DWIDTH 25 0
BBX 25 25 0 -4
BITMAP
0201C000
03818000
03018000
03018000
07018000
06018000
06018000
0C018300
0DFFFF80
1C018000
1C018000
2C018000
4C018000
8C018000
0C018000
0C018000
0C018000
0C018000
0C018000
0C018000
0C018000
0C018000
0C018000
0C018000
0C018000
ENDCHAR
STARTCHAR 4EC1
ENCODING 20161
SWIDTH 1000 0
DWIDTH 25 0
BBX 25 25 0 -4
BITMAP
02000000
03800000
03000000
07000C00
067FFE00
06000000
0C000000
0C000000
1C000000
1C000000
2C000000
4C000000
8C000000
0C000000
0C000000
0C000000
0C000000
0C000000
0C000000
0C000300
0DFFFF80
0C000000
0C000000
0C000000
0C000000
ENDCHAR
STARTCHAR 4EC2
ENCODING 20162
SWIDTH 1000 0
DWIDTH 25 0
BBX 24 25 0 -4
BITMAP
020F00
038E00
030E00
030E00
070E00
060E06
07FFFF
0C0E06
0C0E06
1C0E06
1C0E06
2C0E06
4C0E06
8C0E06
0C1C06
0C1C06
0C1C06
0C1C0C
0C380C
0C380C
0C6018
0C41F8
0C8070
0F0060
0F0060
ENDCHAR
STARTCHAR 4EC4
ENCODING 20164
SWIDTH 1000 0
DWIDTH 25 0
BBX 25 24 0 -4
BITMAP
08000600
0FFFFF00
0C000000
0C000000
0C0F0000
0C0E0000
0C0E0000
0C0E0000
0C0E0000
0C0E0000
0C0E0000
0C0E0000
0C1D0000
0C1D0000
0C1C8000
181C8000
18384000
10386000
30603000
20C01C00
41800F80
83000700
0C000300
0C000300
ENDCHAR
STARTCHAR 4EC6
ENCODING 20166
SWIDTH 1000 0
DWIDTH 25 0
BBX 24 25 0 -4
BITMAP
010F00
01CE00
018E00
018E00
030E00
030E00
030E00
060E00
060FC0
0E0E78
0E0E1E
160E07
260E03
460E00
860E00
060E00
060E00
060E00
060E00
060E00
060E00
060E00
060E00
060E00
060E00
ENDCHAR
STARTCHAR 4EC7
ENCODING 20167
SWIDTH 1000 0
DWIDTH 25 0
BBX 25 25 0 -4
BITMAP
040F0000
070E0000
060E0000
060E0000
060E0000
0E0E3000
0DFFF800
0C0E3000
1C0E3000
1C0E3000
2C0E3000
2C0E3000
4C0E3000
8C0E3000
0C1C3000
0C1C3000
0C1C3000
0C1C3000
0C383100
0C383100
0C603100
0CC03180
0D803F80
0E001F00
0E001F00
ENDCHAR
STARTCHAR 4ECA
ENCODING 20170
SWIDTH 1000 0
DWIDTH 25 0
BBX 25 25 0 -4
BITMAP
00380000
00380000
006C0000
006C0000
00C20000
00C10000
01818000
0300C000
03036000
06FFB000
0C001C00
18000F80
3000C700
C7FFE200
00018000
00018000
00030000
00030000
000E0000
000E0000
001C0000
001C0000
00380000
00380000
00380000
ENDCHAR
STARTCHAR 4ECB
ENCODING 20171
SWIDTH 1000 0
DWIDTH 25 0
BBX 25 25 0 -4
BITMAP
00380000
00380000
006C0000
00620000
00C30000
00C18000
0180C000
03007000
07C1FF80
0D818F00
31818300
C1818000
01818000
01818000
01818000
01818000
01818000
01818000
03018000
03018000
06018000
04018000
18018000
60018000
60018000
ENDCHAR
STARTCHAR 4ECD
ENCODING 20173
SWIDTH 1000 0
DWIDTH 25 0
BBX 25 25 0 -4
BITMAP
02000000
03803000
037FF800
031C3000
061C3000
061C3000
061C3000
0C1C6000
0C1C6300
1C1C7F80
1C1C6300
2C1C0300
4C1C0300
8C1C0300
0C1C0300
0C380300
0C380600
0C380600
0C200600
0C600600
0C400C00
0C80FC00
0D003800
0E003000
0E003000
ENDCHAR
STARTCHAR 4ECE
ENCODING 20174
SWIDTH 1000 0
DWIDTH 25 0
BBX 25 25 0 -4
BITMAP
0381C000
03018000
03018000
03018000
03018000
03018000
03018000
03018000
03018000
03018000
03018000
03034000
06834000
06C34000
06632000
066E2000
0C6E3000
0C0E1000
081C1800
181C0C00
10380F80
20600700
40C00300
83000100
83000100
ENDCHAR
STARTCHAR 4ECF
ENCODING 20175
SWIDTH 1000 0
DWIDTH 25 0
BBX 24 25 0 -4
BITMAP
010100
01C1C0
018180
030180
030180
030180
060180
060300
0C0300
0C0300
1C0300
1C0200
2C0E00
4C0E00
8C0C20
0C0C10
0C1C08
0C1804
0C1806
0C21FE
0DFF83
0CF803
0C8003
0C0000
0C0000
ENDCHAR
STARTCHAR 4ED4
ENCODING 20180
SWIDTH 1000 0
DWIDTH 25 0
BBX 25 25 0 -4
BITMAP
02000000
03800600
037FFF00
07000E00
06001800
06012000
0C014000
0C018000
1C018000
1C018300
2FFFFF80
4C018000
8C018000
0C018000
0C018000
0C018000
0C018000
0C018000
0C018000
0C018000
0C018000
0C018000
0C1F8000
0C030000
0C030000
ENDCHAR
STARTCHAR 4ED5
ENCODING 20181
SWIDTH 1000 0
DWIDTH 25 0
BBX 25 25 0 -4
BITMAP
0201C000
03818000
03018000
03018000
07018000
06018000
06018000
0E018000
0E018300
17FFFF80
16018000
26018000
46018000
86018000
06018000
06018000
06018000
06018000
06018000
06018000
06018000
06018600
06FFFF00
06000000
06000000
ENDCHAR
STARTCHAR 4ED6
ENCODING 20182
SWIDTH 1000 0
DWIDTH 25 0
BBX 25 25 0 -4
BITMAP
0401C000
07018000
06798000
06618000
0E618C00
0C619E00
0C61AC00
1C61CC00
1C638C00
2C6D8C00
2C798C00
4CE18C00
8F618C00
0C61BC00
0C619800
0C618000
0C618000
0C600100
0C600100
0C600100
0C600180
0C7FFF80
0C3FFF00
0C000000
0C000000
ENDCHAR
STARTCHAR 4ED7
ENCODING 20183
SWIDTH 1000 0
DWIDTH 25 0
BBX 25 25 0 -4
BITMAP
0401C000
07018000
06018000
06018000
06018300
0FFFFF80
0C018000
0C418000
1C418000
1C418000
2C218000
2C218000
4C218000
8C198000
0C1D8000
0C0D8000
0C0F0000
0C030000
0C038000
0C0EE000
0C1C7F80
0C381F00
0CC00700
0F000100
0F000100
ENDCHAR
STARTCHAR 4ED8
ENCODING 20184
SWIDTH 1000 0
DWIDTH 25 0
BBX 25 25 0 -4
BITMAP
02003800
03803000
03003000
07003000
06003000
06003300
0DFFFF80
0C003000
1C003000
1C403000
2C383000
4C1C3000
8C0E3000
0C0E3000
0C003000
0C003000
0C003000
0C003000
0C003000
0C003000
0C003000
0C003000
0C01F000
0C006000
0C006000
ENDCHAR
STARTCHAR 4ED9
ENCODING 20185
SWIDTH 1000 0
DWIDTH 25 0
BBX 24 25 0 -4
BITMAP
0401C0
070180
060180
060180
0C0180
0CE187
0CC186
18C186
18C186
38C186
38C186
58C186
98C186
18C186
18C186
18C186
18C186
18C186
18C186
18C186
18C186
18FFFE
18C006
18C006
18C006
ENDCHAR
STARTCHAR 4EDD
ENCODING 20189
SWIDTH 1000 0
DWIDTH 25 0
BBX 25 22 0 -1
BITMAP
001C0000
001C0000
003A0000
003A0000
00610000
00608000
00C0C000
00C06000
01803000
03001C00
06000F80
0C006700
37FFF300
C01C0000
001C0000
001C0000
001C0000
001C0000
001C0000
001C0000
001C0300
FFFFFF80
ENDCHAR
STARTCHAR 4EDE
ENCODING 20190
SWIDTH 1000 0
DWIDTH 25 0
BBX 24 25 0 -4
BITMAP
040000
070000
060006
07FFFF
0C0E06
0C0E06
0C0E06
1D0E06
1CCE06
2C6E06
2C3E06
4C1E06
8C0F06
0C0F86
0C1DC6
0C1CC6
0C1CCC
0C380C
0C380C
0C201C
0C6018
0C41F8
0C8070
0F0060
0F0060
ENDCHAR
STARTCHAR 4EDF
ENCODING 20191
SWIDTH 1000 0
DWIDTH 25 0
BBX 25 25 0 -4
BITMAP
02000800
03801C00
03007E00
0303E000
06FF8000
06018000
06018000
0E018000
0E018000
16018300
17FFFF80
26018000
46018000
86018000
06018000
06018000
06018000
06018000
06018000
06018000
06018000
06018000
06018000
06018000
06018000
ENDCHAR
STARTCHAR 4EE3
ENCODING 20195
SWIDTH 1000 0
DWIDTH 25 0
BBX 25 25 0 -4
BITMAP
02038000
03832000
03031800
03030C00
06030C00
06030300
07FFFF80
0C030000
0C030000
1C030000
1C018000
2C018000
4C018000
8C018000
0C00C000
0C00C000
0C006000
0C006100
0C003100
0C003900
0C001D00
0C000F80
0C000780
0C000300
0C000300
ENDCHAR
STARTCHAR 4EE4
ENCODING 20196
SWIDTH 1000 0
DWIDTH 25 0
BBX 25 25 0 -4
BITMAP
00380000
00380000
006C0000
00620000
00C10000
00C18000
0180C000
03036000
06FFB800
0C001F80
18000700
30003100
CFFFF800
00383000
00383000
00383000
00383000
00383000
00383000
0039F000
00386000
00380000
00380000
00380000
00380000
ENDCHAR
STARTCHAR 4EE5
ENCODING 20197
SWIDTH 1000 0
DWIDTH 25 0
BBX 25 25 0 -4
BITMAP
0E001C00
0C001800
0C801800
0C401800
0C201800
0C381800
0C1C1800
0C1C1800
0C001800
0C001800
0C001800
0C001800
0C001800
0C001800
0C0C1800
0C181800
0C601800
0D803000
0F003800
FC006400
7000C300
40030380
001C0180
00E00180
00E00180
ENDCHAR
STARTCHAR 4EED
ENCODING 20205
SWIDTH 1000 0
DWIDTH 25 0
BBX 25 25 0 -4
BITMAP
04000000
07000000
06000600
07FFFF00
0E0E0600
0C8E0600
0C8E0600
1C8E0600
1C4E0600
2C4E0600
2C2E0600
4C3E0600
8C1C0600
0C1E0600
0C1F0C00
0C1DCC00
0C1CFC00
0C383F80
0C380F00
0C201D00
0C601800
0C41F800
0C80F000
0F006000
0F006000
ENDCHAR
STARTCHAR 4EEE
ENCODING 20206
SWIDTH 1000 0
DWIDTH 25 0
BBX 25 25 0 -4
BITMAP
02000000
03C00600
037FFF00
07600000
06600000
06600000
0C601800
0C7FFC00
1C6C1800
1C6C1800
2C6C3000
2C623000
4C623000
8C626000
0C616000
0C61C000
0C40C000
0CC1C000
0CC1A000
0C833000
0D8E1C00
0D1C0F80
0E380700
0CC00300
0CC00300
ENDCHAR
STARTCHAR 4EF0
ENCODING 20208
SWIDTH 1000 0
DWIDTH 25 0
BBX 25 25 0 -4
BITMAP
04020000
07038000
060F0000
065C8300
0C60FF80
0C60C300
0C60C300
1C60C300
1C60C300
2C60C300
2C60C300
4C60C300
8C60C300
0C60C300
0C60C300
0C62C300
0C7CC300
0FE0DF00
0DC0C600
0D00C000
0C00C000
0C00C000
0C00C000
0C00C000
0C00C000
ENDCHAR
STARTCHAR 4EF2
ENCODING 20210
SWIDTH 1000 0
DWIDTH 25 0
BBX 25 25 0 -4
BITMAP
0401C000
07018000
06018000
06018000
0E018000
0C818300
0CFFFF80
1CC18300
1CC18300
2CC18300
2CC18300
4CC18300
8CC18300
0CFFFF00
0CC18300
0CC18300
0C018000
0C018000
0C018000
0C018000
0C018000
0C018000
0C018000
0C018000
0C018000
ENDCHAR
STARTCHAR 4EF6
ENCODING 20214
SWIDTH 1000 0
DWIDTH 25 0
BBX 25 25 0 -4
BITMAP
0401C000
07018000
06418000
06798000
0E618000
0C618C00
0C7FFE00
1CC18000
1CC18000
2C818000
2D018000
4C018300
8FFFFF80
0C018000
0C018000
0C018000
0C018000
0C018000
0C018000
0C018000
0C018000
0C018000
0C018000
0C018000
0C018000
ENDCHAR
STARTCHAR 4EF7
ENCODING 20215
SWIDTH 1000 0
DWIDTH 25 0
BBX 25 25 0 -4
BITMAP
04030000
07030000
060E8000
060E8000
0E0E4000
0C1C6000
0C1C3800
1C381F80
1C600F00
2CDE7300
2F1C6000
4C1C6000
8C1C6000
0C1C6000
0C1C6000
0C1C6000
0C1C6000
0C386000
0C386000
0C206000
0C606000
0C406000
0C806000
0F006000
0F006000
ENDCHAR
STARTCHAR 4EFB
ENCODING 20219
SWIDTH 1000 0
DWIDTH 25 0
BBX 25 25 0 -4
BITMAP
02000000
03801C00
03007E00
0303E000
06FD8000
06018000
0C018000
0C018000
1C018000
1C018000
2C018300
4FFFFF80
8C018000
0C018000
0C018000
0C018000
0C018000
0C018000
0C018000
0C018000
0C018000
0C018600
0DFFFF00
0C000000
0C000000
ENDCHAR
STARTCHAR 4F01
ENCODING 20225
SWIDTH 1000 0
DWIDTH 25 0
BBX 25 23 0 -2
BITMAP
001C0000
003C0000
003A0000
00610000
00618000
00C0C000
01806000
03003000
061E1C00
0C1C0F80
181C0700
301C0100
C71C0000
061C1800
061FFC00
061C0000
061C0000
061C0000
061C0000
061C0000
061C0000
061C0300
FFFFFF80
ENDCHAR
STARTCHAR 4F09
ENCODING 20233
SWIDTH 1000 0
DWIDTH 25 0
BBX 25 25 0 -4
BITMAP
04038000
07030000
06030000
06030300
0FFFFF80
0C000000
0C000000
1C206000
1C3FF000
2C386000
2C386000
4C386000
8C386000
0C386000
0C386000
0C386000
0C386000
0C386100
0C386100
0C606100
0C606100
0CC06180
0C807F80
0F003F00
0F003F00
ENDCHAR
STARTCHAR 4F0A
ENCODING 20234
SWIDTH 1000 0
DWIDTH 25 0
BBX 25 25 0 -4
BITMAP
02000000
03800600
037FFF00
07018600
06018600
06018600
0C018600
0DFFFF80
1C018600
1C018600
2C018600
4C018600
8C018600
0CFFFE00
0C018600
0C018600
0C030000
0C030000
0C030000
0C0E0000
0C0E0000
0C1C0000
0C380000
0CC00000
0CC00000
ENDCHAR
STARTCHAR 4F0D
ENCODING 20237
SWIDTH 1000 0
DWIDTH 25 0
BBX 25 25 0 -4
BITMAP
02000000
03000600
03FFFF00
06030000
06030000
06030000
0C030000
0C030000
1C030000
1C0E1800
2DFFFC00
4C0E1800
8C0E1800
0C0E1800
0C0E1800
0C0E1800
0C0E1800
0C1C1800
0C1C1800
0C1C1800
0C1C1800
0C1C1B00
0FFFFF80
0C000000
0C000000
ENDCHAR
STARTCHAR 4F0E
ENCODING 20238
SWIDTH 1000 0
DWIDTH 25 0
BBX 25 25 0 -4
BITMAP
0201C000
03818000
03018000
07018300
06FFFF80
06018000
0C018000
0C018000
1C019800
1CFFFC00
2C181800
4C183000
8C0C3000
0C0C6000
0C026000
0C02C000
0C01C000
0C018000
0C034000
0C0E6000
0C1C3800
0C381F80
0CC00700
0F000300
0F000300
ENDCHAR
STARTCHAR 4F0F
ENCODING 20239
SWIDTH 1000 0
DWIDTH 25 0
BBX 25 25 0 -4
BITMAP
04038000
07032000
06031800
06030C00
0E030C00
0C030000
0C030300
1FFFFF80
1C030000
2C0E8000
2C0E8000
4C0E8000
8C0E4000
0C1C4000
0C1C6000
0C1C2000
0C183000
0C381000
0C201800
0C600C00
0C400E00
0C800780
0D000300
0E000100
0E000100
ENDCHAR
STARTCHAR 4F10
ENCODING 20240
SWIDTH 1000 0
DWIDTH 25 0
BBX 25 25 0 -4
BITMAP
040F0000
070E2000
060E1800
060E0C00
0E0E0C00
0C0E0300
0FFFFF80
1C030000
1C030800
2C030E00
2C030C00
4C019C00
8C019800
0C01B000
0C00F000
0C00E000
0C00E000
0C01B100
0C033100
0C0E1900
0C381D00
0CC00F80
0C000780
0C000300
0C000300
ENDCHAR
STARTCHAR 4F11
ENCODING 20241
SWIDTH 1000 0
DWIDTH 25 0
BBX 25 25 0 -4
BITMAP
0401C000
07018000
06018000
06018000
06018300
0DFFFF80
0C03C000
0C03C000
1C0FA000
1C0FA000
2C0DA000
2C1D9000
4C1D9000
8C399800
0C218C00
0C618C00
0C418600
0C818780
0D018300
0E018100
0C018000
0C018000
0C018000
0C018000
0C018000
ENDCHAR
STARTCHAR 4F1A
ENCODING 20250
SWIDTH 1000 0
DWIDTH 25 0
BBX 25 25 0 -4
BITMAP
001C0000
003C0000
003A0000
00790000
00618000
00C0C000
01806000
03003800
0600DF80
0DFFEF00
30000300
C0000000
00000C00
3FFFFE00
00780000
00600000
00600000
00C08000
00C06000
00803000
010FF800
3FFC0C00
1F000E00
10000600
10000600
ENDCHAR
STARTCHAR 4F1C
ENCODING 20252
SWIDTH 1000 0
DWIDTH 25 0
BBX 25 25 0 -4
BITMAP
041E0000
071C0000
061C0000
061C6000
0FFFF000
0C1C6000
0C1C6000
1C1C6100
1C386100
2C386180
2C607F80
4CC03F00
8F038000
0C030000
0C030300
0FFFFF80
0C030000
0C030000
0C030000
0C030000
0C030000
0C030000
0C030000
0C030000
0C030000
ENDCHAR
STARTCHAR 4F1D
ENCODING 20253
SWIDTH 1000 0
DWIDTH 25 0
BBX 25 25 0 -4
BITMAP
04000000
07000000
06000600
06FFFF00
0C000000
0C000000
0C000000
1C000000
1C000300
2DFFFF80
2C038000
4C030000
8C030000
0C030000
0C0E0000
0C0E0000
0C0C2000
0C0C1000
0C180800
0C180400
0C20FE00
0DFF8600
0CF80300
0C800300
0C800300
ENDCHAR
STARTCHAR 4F2F
ENCODING 20271
SWIDTH 1000 0
DWIDTH 25 0
BBX 24 25 0 -4
BITMAP
020100
0381C0
030180
030100
062206
063FFF
063806
0C3806
0C3806
1C3806
1C3806
2C3806
4C3FFE
8C3806
0C3806
0C3806
0C3806
0C3806
0C3806
0C3806
0C3806
0C3FFE
0C3806
0C3806
0C3806
ENDCHAR
STARTCHAR 4F30
ENCODING 20272
SWIDTH 1000 0
DWIDTH 25 0
BBX 25 25 0 -4
BITMAP
04038000
07030000
06030000
06030000
0E030000
0C030300
0FFFFF80
1C030000
1C030000
2C030000
2C030000
4C030000
8C030000
0C431800
0C7FFC00
0C601800
0C601800
0C601800
0C601800
0C601800
0C601800
0C601800
0C7FF800
0C601800
0C601800
ENDCHAR
STARTCHAR 4F34
ENCODING 20276
SWIDTH 1000 0
DWIDTH 25 0
BBX 25 25 0 -4
BITMAP
0401C000
07018800
06418E00
06398C00
0E1D9800
0C1D9000
0C01A000
1C018600
1CFFFF00
2C018000
2C018000
4C018000
8C018300
0DFFFF80
0C018000
0C018000
0C018000
0C018000
0C018000
0C018000
0C018000
0C018000
0C018000
0C018000
0C018000
ENDCHAR
STARTCHAR 4F36
ENCODING 20278
SWIDTH 1000 0
DWIDTH 25 0
BBX 25 25 0 -4
BITMAP
04030000
07030000
060E8000
060E8000
0E1C4000
0C1C2000
0C383000
1C205C00
1C5FEF80
2C800700
2D000300
4E000C00
8DFFFE00
0C030C00
0C030C00
0C030C00
0C030C00
0C030C00
0C030C00
0C037C00
0C031800
0C030000
0C030000
0C030000
0C030000
ENDCHAR
STARTCHAR 4F38
ENCODING 20280
SWIDTH 1000 0
DWIDTH 25 0
BBX 25 25 0 -4
BITMAP
0401C000
07018000
06018000
06018000
0E818300
0CFFFF80
0CC18300
1CC18300
1CC18300
2CFFFF00
2CC18300
4CC18300
8CC18300
0CC18300
0CFFFF00
0CC18300
0CC18300
0C018000
0C018000
0C018000
0C018000
0C018000
0C018000
0C018000
0C018000
ENDCHAR
STARTCHAR 4F3A
ENCODING 20282
SWIDTH 1000 0
DWIDTH 25 0
BBX 24 25 0 -4
BITMAP
020000
038006
037FFF
070006
060006
0600C6
0CFFE6
0C0006
1C0006
1C4186
2C7FC6
4C6186
8C6186
0C6186
0C6186
0C6186
0C7F86
0C6186
0C6006
0C0006
0C0006
0C0006
0C003E
0C000C
0C000C
ENDCHAR
STARTCHAR 4F3C
ENCODING 20284
SWIDTH 1000 0
DWIDTH 25 0
BBX 25 25 0 -4
BITMAP
04780E00
07600C00
06600C00
066C0C00
0E620C00
0C610C00
0C618C00
1C60CC00
1C60CC00
2C600C00
2C600C00
4C600C00
8C601800
0C601800
0C609800
0C631800
0C7C3000
0C783800
0FE06400
0D80C600
0D018300
0C030380
0C1C0180
0C600180
0C600180
ENDCHAR
STARTCHAR 4F3D
ENCODING 20285
SWIDTH 1000 0
DWIDTH 25 0
BBX 25 25 0 -4
BITMAP
08780000
0E600000
0C600000
0C600000
0C634300
1FFFFF80
18636300
18636300
18636300
38636300
38636300
58636300
58636300
98636300
18436300
18C36300
18C36300
18CE6300
188E6300
198E7F00
191E6300
197C6300
1A3C0000
1C380000
1C380000
ENDCHAR
STARTCHAR 4F43
ENCODING 20291
SWIDTH 1000 0
DWIDTH 25 0
BBX 24 25 0 -4
BITMAP
040000
078006
06FFFF
06C186
0CC186
0CC186
0CC186
18C186
18C186
38C186
38FFFE
58C186
98C186
18C186
18C186
18C186
18C186
18C186
18C186
18C186
18FFFE
18C006
18C006
180000
180000
ENDCHAR
STARTCHAR 4F46
ENCODING 20294
SWIDTH 1000 0
DWIDTH 25 0
BBX 25 25 0 -4
BITMAP
04000000
07200C00
063FFE00
06380C00
0E380C00
0C380C00
0C380C00
1C380C00
1C380C00
2C3FFC00
2C380C00
4C380C00
8C380C00
0C380C00
0C380C00
0C380C00
0C380C00
0C3FFC00
0C380C00
0C380C00
0C000000
0C000300
0DFFFF80
0C000000
0C000000
ENDCHAR
STARTCHAR 4F47
ENCODING 20295
SWIDTH 1000 0
DWIDTH 25 0
BBX 25 25 0 -4
BITMAP
0401C000
07018000
06418000
06418300
0E7FFF80
0CC00300
0D800200
1D800400
1C000300
3DFFFF80
2C018000
4C018000
8C018000
0C018000
0C018000
0C018000
0C018000
0C018000
0C018000
0C018000
0C018000
0C018000
0C1F8000
0C030000
0C030000
ENDCHAR
STARTCHAR 4F4D
ENCODING 20301
SWIDTH 1000 0
DWIDTH 25 0
BBX 25 25 0 -4
BITMAP
0201C000
03818000
03018000
07018000
06018600
07FFFF00
0C000000
0C001000
1C401C00
1C201800
2C201800
4C381800
8C181800
0C183000
0C1C3000
0C1C3000
0C1C2000
0C1C2000
0C1C6000
0C1C4000
0C004000
0C008300
0FFFFF80
0C000000
0C000000
ENDCHAR
STARTCHAR 4F4E
ENCODING 20302
SWIDTH 1000 0
DWIDTH 25 0
BBX 25 25 0 -4
BITMAP
04001800
07007C00
0641E000
067F8000
0C618000
0C618000
0C618000
1C618000
1C618300
2C7FFF80
2C60C000
4C60C000
8C60C000
0C60C000
0C606000
0C606000
0C616100
0C6E3100
0FF83100
0DC01900
0D001D00
0C00CF80
0DFFE780
0C000300
0C000300
ENDCHAR
STARTCHAR 4F4F
ENCODING 20303
SWIDTH 1000 0
DWIDTH 25 0
BBX 25 25 0 -4
BITMAP
040C0000
07030000
0601C000
0600C000
0E000600
0DFFFF00
0C018000
1C018000
1C018000
2C018000
2C018000
4C018C00
8CFFFE00
0C018000
0C018000
0C018000
0C018000
0C018000
0C018000
0C018000
0C018000
0C018300
0FFFFF80
0C000000
0C000000
ENDCHAR
STARTCHAR 4F50
ENCODING 20304
SWIDTH 1000 0
DWIDTH 25 0
BBX 25 25 0 -4
BITMAP
040F0000
070E0000
060E0000
060E0000
0C0E0000
0C0E0300
0FFFFF80
1C1C0000
1C1C0000
2C380000
2C380000
4C380000
8C600600
0C7FFF00
0CC18000
0C818000
0D018000
0E018000
0C018000
0C018000
0C018000
0C018300
0DFFFF80
0C000000
0C000000
ENDCHAR
STARTCHAR 4F51
ENCODING 20305
SWIDTH 1000 0
DWIDTH 25 0
BBX 25 25 0 -4
BITMAP
02020000
03838000
03030000
03030000
06030300
07FFFF80
060E0000
0C0E0000
0C0E0000
1C1C0000
1C1C0000
2C380C00
4C3FFE00
8C5C0C00
0C9C0C00
0D1C0C00
0E1C0C00
0C1C0C00
0C1C0C00
0C1C0C00
0C1C0C00
0C1FFC00
0C1C0C00
0C1C0C00
0C1C0C00
ENDCHAR
STARTCHAR 4F53
ENCODING 20307
SWIDTH 1000 0
DWIDTH 25 0
BBX 25 25 0 -4
BITMAP
04038000
07030000
06030000
06030000
0E030000
0C030300
0FFFFF80
1C1F8000
1C1F4000
2C1B4000
2C3B2000
4C3B2000
8C231000
0C631000
0C431800
0CC34C00
0CBFEE00
0D030780
0E030300
0C030100
0C030000
0C030000
0C030000
0C030000
0C030000
ENDCHAR
STARTCHAR 4F55
ENCODING 20309
SWIDTH 1000 0
DWIDTH 25 0
BBX 25 25 0 -4
BITMAP
04000000
07000300
06FFFF80
06000C00
0C000C00
0C000C00
0C418C00
1C7FCC00
1C618C00
2C618C00
2C618C00
4C618C00
8C618C00
0C618C00
0C7F8C00
0C618C00
0C600C00
0C000C00
0C000C00
0C000C00
0C000C00
0C000C00
0C00FC00
0C003800
0C003800
ENDCHAR
STARTCHAR 4F57
ENCODING 20311
SWIDTH 1000 0
DWIDTH 25 0
BBX 24 25 0 -4
BITMAP
040380
070300
068300
068306
0EFFFF
0D8006
0D8008
1DBC10
1C3800
3C3808
2C381C
4C3838
8C3870
0C39C0
0C3E00
0C3800
0C3800
0C3800
0C3804
0C3804
0C3804
0C3806
0C3FFE
0C1FFC
0C1FFC
ENDCHAR
STARTCHAR 4F59
ENCODING 20313
SWIDTH 1000 0
DWIDTH 25 0
BBX 25 25 0 -4
BITMAP
001C0000
003C0000
003A0000
00610000
00608000
00C0C000
01806000
0300B800
07FFDF80
0C1C0700
301C0100
C01C0000
001C0600
7FFFFF00
001C0000
041C0000
071C4000
061C3000
061C1800
0C1C0C00
081C0E00
101C0600
20FC0000
00380000
00380000
ENDCHAR
STARTCHAR 4F5A
ENCODING 20314
SWIDTH 1000 0
DWIDTH 25 0
BBX 25 25 0 -4
BITMAP
0421C000
073D8000
06398000
06398000
0E618C00
0C7FFE00
0C418000
1CC18000
1C818000
2D018000
2C018300
4FFFFF80
8C018000
0C034000
0C034000
0C032000
0C0E2000
0C0E1000
0C1C1800
0C1C0C00
0C380F80
0C600700
0CC00300
0F000100
0F000100
ENDCHAR
STARTCHAR 4F5B
ENCODING 20315
SWIDTH 1000 0
DWIDTH 25 0
BBX 25 25 0 -4
BITMAP
081EE000
0E1CC000
0C1CC000
0C1CC600
0FFFFF00
0C1CC600
181CC600
191CC600
19FFFE00
399CC600
399CC000
599CC300
99FFFF80
1B1CC300
1B1CC300
181CC300
1838C300
1838C600
1838C600
1820DE00
1860CC00
1840C000
1880C000
1B00C000
1B00C000
ENDCHAR
STARTCHAR 4F5C
ENCODING 20316
SWIDTH 1000 0
DWIDTH 25 0
BBX 25 25 0 -4
BITMAP
02020000
03838000
03030000
030E0000
060E0300
061FFF80
061D8000
0C398000
0C218000
1C418600
1C81FF00
2D018000
4E018000
8C018000
0C018300
0C01FF80
0C018000
0C018000
0C018000
0C018000
0C018000
0C018000
0C018000
0C018000
0C018000
ENDCHAR
STARTCHAR 4F5D
ENCODING 20317
SWIDTH 1000 0
DWIDTH 25 0
BBX 25 25 0 -4
BITMAP
04200000
073C0000
06380000
06380000
0E600300
0C7FFF80
0C600300
1CC00300
1CC0C300
2D7FE300
2C60C300
4C60C300
8C60C300
0C60C300
0C60C300
0C7FC600
0C60C600
0C600600
0C000600
0C000C00
0C000C00
0C00FC00
0C003800
0C003000
0C003000
ENDCHAR
STARTCHAR 4F5E
ENCODING 20318
SWIDTH 1000 0
DWIDTH 25 0
BBX 25 25 0 -4
BITMAP
04000000
07000C00
067FFE00
06000000
0E000000
0C000300
0DFFFF80
1C000000
1C0F0000
3C0E0000
2C0E0300
4FFFFF80
8C1C3000
0C1C3000
0C383000
0C386000
0C606000
0CDE6000
0CC1C000
0C01E000
0C033000
0C0E1C00
0C380E00
0DC00600
0DC00600
ENDCHAR
STARTCHAR 4F69
ENCODING 20329
SWIDTH 1000 0
DWIDTH 25 0
BBX 25 25 0 -4
BITMAP
09000C00
0FFFFE00
0D800C00
0D800C00
1D806C00
19FFFC00
19830C00
19830C00
39A36C00
39BFFC00
59BB6C00
99BB6C00
19BB6C00
19BB6C00
19BB6C00
19BB6C00
19BB6D00
19BBED00
19BB6700
19BB6600
19030700
1B030380
1A030380
1C030180
1C030180
ENDCHAR
STARTCHAR 4F6F
ENCODING 20335
SWIDTH 1000 0
DWIDTH 25 0
BBX 25 25 0 -4
BITMAP
04201000
07181C00
061E3800
060E3000
0E0C4600
0DFFFF00
0C030000
1C030000
1C030000
2C030C00
2CFFFE00
4C030000
8C030000
0C030000
0C030300
0FFFFF80
0C030000
0C030000
0C030000
0C030000
0C030000
0C030000
0C030000
0C030000
0C030000
ENDCHAR
STARTCHAR 4F70
ENCODING 20336
SWIDTH 1000 0
DWIDTH 25 0
BBX 25 25 0 -4
BITMAP
04000000
07000300
06FFFF80
06030000
0E030000
0C0E0000
0C4C0C00
1C7FFE00
1C600C00
2C600C00
2C600C00
4C600C00
8C600C00
0C7FFC00
0C600C00
0C600C00
0C600C00
0C600C00
0C600C00
0C600C00
0C600C00
0C7FFC00
0C600C00
0C600C00
0C600C00
ENDCHAR
STARTCHAR 4F73
ENCODING 20339
SWIDTH 1000 0
DWIDTH 25 0
BBX 25 25 0 -4
BITMAP
04038000
07030000
06030000
06030C00
06FFFE00
0C030000
0C030000
0C030000
1C030600
1DFFFF00
2C000000
2C038000
4C030000
8C030000
0C030600
0DFFFF00
0C030000
0C030000
0C030000
0C030000
0C030000
0C030300
0FFFFF80
0C000000
0C000000
ENDCHAR
STARTCHAR 4F75
ENCODING 20341
SWIDTH 1000 0
DWIDTH 25 0
BBX 25 25 0 -4
BITMAP
04201000
071C1C00
060E3800
060E2000
0E004E00
0CFFFF00
0C1C3000
1C1C3000
1C1C3000
2C1C3000
2C1C3300
4DFFFF80
8C1C3000
0C1C3000
0C1C3000
0C1C3000
0C1C3000
0C1C3000
0C383000
0C383000
0C383000
0C603000
0CC03000
0F003000
0F003000
ENDCHAR
STARTCHAR 4F76
ENCODING 20342
SWIDTH 1000 0
DWIDTH 25 0
BBX 25 25 0 -4
BITMAP
04038000
07030000
06030000
06030300
0FFFFF80
0C030000
0C030000
1C030000
1C030000
2C030600
2CFFFF00
4C000000
8C000000
0C000000
0C401800
0C7FFC00
0C601800
0C601800
0C601800
0C601800
0C601800
0C601800
0C7FF800
0C601800
0C601800
ENDCHAR
STARTCHAR 4F7B
ENCODING 20347
SWIDTH 1000 0
DWIDTH 25 0
BBX 25 25 0 -4
BITMAP
043DC000
07398000
06398000
0E398800
0C398E00
0E399C00
19399800
19B9B000
39B9C000
39B98000
58398000
9879C000
18B9B000
19B99800
1F398C00
1B398E00
1A398600
18398000
18398100
18618100
18618100
18C18180
1981FF80
1E00FF00
1E00FF00
ENDCHAR
STARTCHAR 4F7C
ENCODING 20348
SWIDTH 1000 0
DWIDTH 25 0
BBX 25 25 0 -4
BITMAP
0401C000
07018000
06018000
06018300
0DFFFF80
0C000000
0C202000
1C3C1800
1C380E00
2C604700
2CD87300
4F186000
8C0C6000
0C0CC000
0C02C000
0C038000
0C018000
0C038000
0C0EC000
0C1C6000
0C383800
0C601F80
0D800700
0E000100
0E000100
ENDCHAR
STARTCHAR 4F7F
ENCODING 20351
SWIDTH 1000 0
DWIDTH 25 0
BBX 25 25 0 -4
BITMAP
0401C000
07018000
06018000
06018300
0FFFFF80
0C018000
0C018000
1C818600
1CFFFF00
2CC18600
2CC18600
4CC18600
8CFFFE00
0CE18600
0C198000
0C0D8000
0C0D8000
0C030000
0C038000
0C0EC000
0C1C7000
0C383F80
0CC00F00
0F000300
0F000300
ENDCHAR
STARTCHAR 4F83
ENCODING 20355
SWIDTH 1000 0
DWIDTH 25 0
BBX 25 25 0 -4
BITMAP
02401800
03FFFC00
03601800
07601800
06601800
06601800
0C601800
0C7FF800
1C601800
1C000000
2C7BB800
4C633000
8C633000
0C633000
0C633000
0C633000
0C633000
0C633000
0C633100
0C433100
0CC33100
0C833180
0D003F80
0E001F00
0E001F00
ENDCHAR
STARTCHAR 4F86
ENCODING 20358
SWIDTH 1000 0
DWIDTH 25 0
BBX 25 25 0 -4
BITMAP
001E0000
001C0000
001C0000
001C0300
FFFFFF80
041C4000
071C7000
061C6000
061C6000
0D9C7000
0CDCCC00
18DC8600
103F0300
207D0300
C06D8000
00DCC000
019C6000
031C3800
061C1F80
1C1C0700
E01C0100
001C0000
001C0000
001C0000
001C0000
ENDCHAR
STARTCHAR 4F88
ENCODING 20360
SWIDTH 1000 0
DWIDTH 25 0
BBX 25 25 0 -4
BITMAP
020C0000
038F0000
030E1800
071FFC00
061C3800
063C3000
0C2E6000
0C43C000
1D818000
1C030000
2C0EE000
4C1CC300
8C61FF80
0D818700
0C030E00
0C0F8C00
0C1CD800
0C607000
0C006000
0C00C000
0C018000
0C0E0000
0C380000
0DC00000
0DC00000
ENDCHAR
STARTCHAR 4F8B
ENCODING 20363
SWIDTH 1000 0
DWIDTH 25 0
BBX 25 25 0 -4
BITMAP
08000380
0E018300
0DFFE300
0C603B00
0C603300
18603300
18633300
187FB300
38C33300
38C33300
58C33300
98AE3300
19AE3300
193C3300
1A1C3300
1C383300
18203300
18600300
18400300
18800300
19000300
1A000300
1C001F00
18000600
18000600
ENDCHAR
STARTCHAR 4F8D
ENCODING 20365
SWIDTH 1000 0
DWIDTH 25 0
BBX 25 25 0 -4
BITMAP
0201C000
03818000
03018000
07018C00
067FFE00
06018000
0C018000
0C018300
1DFFFF80
1C000000
2C003800
4C003300
8DFFFF80
0C003000
0C203000
0C1C3000
0C0E3000
0C0E3000
0C003000
0C003000
0C003000
0C003000
0C01F000
0C006000
0C006000
ENDCHAR
STARTCHAR 4F8F
ENCODING 20367
SWIDTH 1000 0
DWIDTH 25 0
BBX 25 25 0 -4
BITMAP
0421C000
073D8000
06398000
06398C00
0E7FFE00
0C618000
0C418000
1CC18000
1C818000
2D018300
2FFFFF80
4C0FA000
8C1DA000
0C1D9000
0C1D9000
0C399800
0C398C00
0C618F80
0C418700
0C818300
0F018100
0C018000
0C018000
0C018000
0C018000
ENDCHAR
STARTCHAR 4F91
ENCODING 20369
SWIDTH 1000 0
DWIDTH 25 0
BBX 25 25 0 -4
BITMAP
04038000
07030000
06030000
06030300
0FFFFF80
0C0E0000
0C0E0000
1C1C0C00
1C1FFE00
2C3C0C00
2C3C0C00
4C7C0C00
8C5FFC00
0C9C0C00
0D1C0C00
0E1C0C00
0C1FFC00
0C1C0C00
0C1C0C00
0C1C0C00
0C1C0C00
0C1C0C00
0C1C7C00
0C1C1800
0C1C1800
ENDCHAR
STARTCHAR 4F96
ENCODING 20374
SWIDTH 1000 0
DWIDTH 25 0
BBX 25 25 0 -4
BITMAP
00380000
00380000
006C0000
00620000
00C10000
0180C000
03006000
06FFB800
0C001F80
18000700
30001B00
CFFFFC00
0C631800
0C631800
0C631800
0FFFF800
0C631800
0C631800
0C631800
0C631800
0C631800
0C631800
0C63F800
0C003000
0C003000
ENDCHAR
STARTCHAR 4F98
ENCODING 20376
SWIDTH 1000 0
DWIDTH 25 0
BBX 25 25 0 -4
BITMAP
04038000
07030000
06830000
06830300
0EFFFF80
0D800300
0D806200
1D81F400
1C0FC000
2CFF0000
2C030000
4C030000
8C030300
0FFFFF80
0C030000
0C030000
0C030000
0C030000
0C030200
0C030200
0C030200
0C030300
0C03FF00
0C01FE00
0C01FE00
ENDCHAR
STARTCHAR 4F9B
ENCODING 20379
SWIDTH 1000 0
DWIDTH 25 0
BBX 25 25 0 -4
BITMAP
041E7000
071C6000
061C6000
061C6000
0C1C6000
0C1C6600
0DFFFF00
181C6000
181C6000
381C6000
381C6000
581C6000
981C6300
1BFFFF80
18000000
18180000
181E2000
181C1000
18380800
18380C00
18600600
18C00600
19800300
1E000300
1E000300
ENDCHAR
STARTCHAR 4F9D
ENCODING 20381
SWIDTH 1000 0
DWIDTH 25 0
BBX 25 25 0 -4
BITMAP
04038000
07030000
06030000
06030000
0C030300
0FFFFF80
0C0F0000
180E8000
181C8000
381C8400
38388700
58384600
98784C00
18B85000
19386000
1E382000
18383000
18381000
18385800
18398C00
183E0E00
1BF80780
19C00300
19000100
19000100
ENDCHAR
STARTCHAR 4FA0
ENCODING 20384
SWIDTH 1000 0
DWIDTH 25 0
BBX 25 25 0 -4
BITMAP
04038000
07030000
06030000
06030600
0DFFFF00
0C030000
0D030800
18830E00
18C30C00
38631800
38631000
58032300
9FFFFF80
180E8000
180E8000
180E4000
181C4000
181C6000
18383000
18381800
18601C00
18C00F80
19800700
1E000300
1E000300
ENDCHAR
STARTCHAR 4FA1
ENCODING 20385
SWIDTH 1000 0
DWIDTH 25 0
BBX 25 25 0 -4
BITMAP
04000000
07000000
06000300
07FFFF80
060E6000
0C0E6000
0C0E6000
0C0E6000
1C8E6600
1CFFFF00
2CCE6600
2CCE6600
4CCE6600
8CCE6600
0CCE6600
0CCE6600
0CCE6600
0CCE6600
0CCE6600
0CCE6600
0CCE6600
0CFFFE00
0CC00600
0CC00600
0CC00600
ENDCHAR
STARTCHAR 4FAB
ENCODING 20395
SWIDTH 1000 0
DWIDTH 25 0
BBX 25 25 0 -4
BITMAP
04038000
07030000
06030300
07FFFF80
0E600000
0C600000
0C600000
1C600000
1C7FFC00
3C3FFC00
2C0C0000
4C0F0000
8C0E0300
0FFFFF80
0C1C3000
0C1C3000
0C386000
0C386000
0C7EC000
0C61C000
0C033000
0C0E1C00
0C380E00
0DC00600
0DC00600
ENDCHAR
STARTCHAR 4FAD
ENCODING 20397
SWIDTH 1000 0
DWIDTH 25 0
BBX 25 25 0 -4
BITMAP
04000000
07401800
067FFC00
06601800
0E601800
0C601800
0C601800
1C7FF800
1C605800
2C604000
2C602000
4C6C2000
8C633000
0CC19000
0CC19800
0CC00C00
0C800F80
0D9C0700
0D030300
0E018000
0C00C000
0C006000
0C007000
0C003000
0C003000
ENDCHAR
STARTCHAR 4FAE
ENCODING 20398
SWIDTH 1000 0
DWIDTH 25 0
BBX 25 25 0 -4
BITMAP
04200000
073C0000
06380000
06600600
0C7FFF00
0CC00000
0C801800
1D7FFC00
1E631800
2C631800
2C631800
4C631B00
8FFFFF80
0CC31800
0CC31800
0CC31800
0CC31800
0CC31B00
0DFFFF80
0D803000
0C003000
0C03F000
0C00E000
0C00C000
0C00C000
ENDCHAR
STARTCHAR 4FAF
ENCODING 20399
SWIDTH 1000 0
DWIDTH 25 0
BBX 25 25 0 -4
BITMAP
04003000
073FF800
06003000
06003000
0E003300
0DFFFF80
0C200000
1C3C0000
1C380C00
2C3FFE00
2C618000
4C418000
8C818000
0D018300
0FFFFF80
0C034000
0C034000
0C0E2000
0C0E3000
0C1C1800
0C381C00
0C600F80
0CC00700
0F000300
0F000300
ENDCHAR
STARTCHAR 4FB5
ENCODING 20405
SWIDTH 1000 0
DWIDTH 25 0
BBX 25 25 0 -4
BITMAP
04001800
073FFC00
06001800
06001800
0E3FF800
0C001800
0C001800
1C3FF800
1C801800
2C800300
2CFFFF80
4D800300
8D801A00
0C7FFC00
0C181800
0C0C3000
0C0C6000
0C02C000
0C018000
0C03C000
0C0E7000
0C1C3F80
0C600F00
0D800300
0D800300
ENDCHAR
STARTCHAR 4FB6
ENCODING 20406
SWIDTH 1000 0
DWIDTH 25 0
BBX 24 25 0 -4
BITMAP
022018
03BFFC
033818
033818
063818
063818
063818
0C3818
0C3FF8
1C3998
1C0100
2C0300
4C0200
8C4C06
0C7FFF
0C6006
0C6006
0C6006
0C6006
0C6006
0C6006
0C7FFE
0C6006
0C6006
0C6006
ENDCHAR
STARTCHAR 4FBF
ENCODING 20415
SWIDTH 1000 0
DWIDTH 25 0
BBX 25 25 0 -4
BITMAP
04000300
07FFFF80
06018000
06018000
0E418C00
0C7FFE00
0C618C00
1C618C00
1C618C00
2C7FFC00
2C618C00
4C618C00
8C618C00
0C7FFC00
0C618C00
0C198000
0C0D8000
0C030000
0C030000
0C0EC000
0C1C7000
0C383F80
0CC00F00
0F000300
0F000300
ENDCHAR
STARTCHAR 4FC2
ENCODING 20418
SWIDTH 1000 0
DWIDTH 25 0
BBX 24 25 0 -4
BITMAP
02001C
0381FE
037FC0
070100
0641C0
0623A0
0C1A38
0C1C70
1C0E60
1C0EC0
2C0130
4C020C
8DFFFE
0CFD87
0C8183
0C2190
0C3D88
0C398C
0C3986
0C6187
0C4183
0C8183
0D0180
0C0180
0C0180
ENDCHAR
STARTCHAR 4FC3
ENCODING 20419
SWIDTH 1000 0
DWIDTH 25 0
BBX 25 25 0 -4
BITMAP
02200C00
03BFFE00
03380C00
07380C00
06380C00
06380C00
0C380C00
0C380C00
1C3FFC00
1C398C00
2C018000
4C418000
8C798000
0C618600
0C61FF00
0C618000
0C618000
0C618000
0C798000
0C4D8000
0CC38000
0C81C000
0D00FF80
0E003F00
0E003F00
ENDCHAR
STARTCHAR 4FC4
ENCODING 20420
SWIDTH 1000 0
DWIDTH 25 0
BBX 25 25 0 -4
BITMAP
080EE000
0E1FD000
0C3CCC00
0CE0C600
0F60C600
1860C000
1860C300
1FFFFF80
3860C000
3860C400
7860C700
586EC600
98F86600
1FE06C00
1B606C00
1A606800
18603800
18603100
18607900
1860D900
18608D00
18630F80
1BFC0780
18C00300
18C00300
ENDCHAR
STARTCHAR 4FCA
ENCODING 20426
SWIDTH 1000 0
DWIDTH 25 0
BBX 25 25 0 -4
BITMAP
040C0000
070F0000
060E2000
060C1800
0E180E00
0DFFFF00
0CFE0300
1CA0E000
1C3CC200
2C38C300
2C6CFF00
4CCF7E00
8F0E0000
0C1C3000
0C1FF800
0C3C3000
0C6C6000
0CC2C000
0F038000
0C0EC000
0C1C7000
0C383F80
0CC00F00
0F000300
0F000300
ENDCHAR
STARTCHAR 4FCE
ENCODING 20430
SWIDTH 1000 0
DWIDTH 25 0
BBX 25 23 0 -2
BITMAP
0E181800
0C1FFC00
0C1C1800
0C1C1800
0C1C1800
1A1C1800
199C1800
10DFF800
30DC1800
201C1800
4E1C1800
8C1C1800
0C1C1800
0C1C1800
0C1FF800
1A1C1800
199C1800
10DC1800
30DC1800
201C1800
401C1800
801C1B00
07FFFF80
ENDCHAR
STARTCHAR 4FD0
ENCODING 20432
SWIDTH 1000 0
DWIDTH 25 0
BBX 24 25 0 -4
BITMAP
080307
0E1F86
0C7E76
0FF866
0C3866
1C3866
183B66
1FFFE6
387866
387866
587C66
58FA66
98FB66
18BB66
19BB66
193866
1A3866
1C3806
183806
183806
183806
183806
18383E
18380C
18380C
ENDCHAR
STARTCHAR 4FD1
ENCODING 20433
SWIDTH 1000 0
DWIDTH 25 0
BBX 24 25 0 -4
BITMAP
040000
07000C
06FFFE
060C18
0E0230
0C0340
0C4186
1C7FFF
1C6186
2C6186
2C6186
4C7FFE
8C6186
0C6186
0C6186
0C7FFE
0C6186
0C6186
0C6186
0C6186
0C6186
0C6186
0C61BE
0C600C
0C600C
ENDCHAR
STARTCHAR 4FD4
ENCODING 20436
SWIDTH 1000 0
DWIDTH 25 0
BBX 25 25 0 -4
BITMAP
04403000
077FF800
06603000
06603000
0E603000
0C7FF000
0C603000
1C603000
1C603000
2C7FF000
2C603000
4C603000
8C603000
0C7FF000
0C21B000
0C3D8000
0C398000
0C398000
0C398100
0C618100
0C618100
0CC18180
0D81FF80
0E00FF00
0E00FF00
ENDCHAR
STARTCHAR 4FD7
ENCODING 20439
SWIDTH 1000 0
DWIDTH 25 0
BBX 25 25 0 -4
BITMAP
04204000
073C3000
06381800
06600C00
0E630600
0CC30700
0C830300
1D0E8000
1E0E8000
2C1C4000
2C1C6000
4C383000
8C201C00
0C400F80
0CBFF700
0D383300
0E383000
0C383000
0C383000
0C383000
0C383000
0C3FF000
0C383000
0C383000
0C383000
ENDCHAR
STARTCHAR 4FD8
ENCODING 20440
SWIDTH 1000 0
DWIDTH 25 0
BBX 25 25 0 -4
BITMAP
04001800
0700FC00
060FE800
06FC0E00
0E821C00
0C431800
0C631000
1C612000
1C004C00
2CFFFE00
2C001800
4C003000
8C014000
0C018300
0FFFFF80
0C018000
0C018000
0C018000
0C018000
0C018000
0C018000
0C018000
0C1F8000
0C030000
0C030000
ENDCHAR
STARTCHAR 4FDA
ENCODING 20442
SWIDTH 1000 0
DWIDTH 25 0
BBX 25 25 0 -4
BITMAP
04000000
07800C00
06FFFE00
06C30C00
0EC30C00
0CC30C00
0CC30C00
1CFFFC00
1CC30C00
2CC30C00
2CC30C00
4CC30C00
8CFFFC00
0CC30C00
0C030000
0C030000
0C030C00
0DFFFE00
0C030000
0C030000
0C030000
0C030300
0FFFFF80
0C000000
0C000000
ENDCHAR
STARTCHAR 4FDB
ENCODING 20443
SWIDTH 1000 0
DWIDTH 25 0
BBX 25 25 0 -4
BITMAP
04180000
071E0000
061C6000
063FF000
0E386000
0C60C000
0C410C00
1CFFFE00
1D618C00
3E618C00
2C618C00
4C618C00
8C7FFC00
0C18CC00
0C1EC000
0C1CC000
0C1CC000
0C1CC000
0C38C100
0C38C100
0C60C100
0CC0C180
0D80FF80
0E007F00
0E007F00
ENDCHAR
STARTCHAR 4FDD
ENCODING 20445
SWIDTH 1000 0
DWIDTH 25 0
BBX 25 25 0 -4
BITMAP
04000000
07401800
067FFC00
06601800
06601800
0C601800
0C601800
0C7FF800
1C601800
1C038000
2C030000
2C030300
4FFFFF80
8C1F4000
0C1F4000
0C3B2000
0C3B3000
0C631800
0C431C00
0C830F80
0D030700
0E030300
0C030000
0C030000
0C030000
ENDCHAR
STARTCHAR 4FDF
ENCODING 20447
SWIDTH 1000 0
DWIDTH 25 0
BBX 25 25 0 -4
BITMAP
040C0000
070F0000
060E2000
061C1800
0E180C00
0DFFFE00
0CFC0600
1CA00600
1C3C0000
3C380C00
2C3FFE00
4C618000
8C418000
0C818000
0D018300
0FFFFF80
0C034000
0C034000
0C0E2000
0C0E3000
0C1C1C00
0C380F80
0C600700
0F800100
0F800100
ENDCHAR
STARTCHAR 4FE1
ENCODING 20449
SWIDTH 1000 0
DWIDTH 25 0
BBX 25 25 0 -4
BITMAP
04001800
073FFC00
06000000
06000300
0DFFFF80
0C000000
0C000000
1C001800
1C3FFC00
2C000000
2C000000
4C001800
8C3FFC00
0C000000
0C000000
0C200C00
0C3FFE00
0C380C00
0C380C00
0C380C00
0C380C00
0C3FFC00
0C380C00
0C380C00
0C380C00
ENDCHAR
STARTCHAR 4FE3
ENCODING 20451
SWIDTH 1000 0
DWIDTH 25 0
BBX 25 25 0 -4
BITMAP
04000000
07201800
063FFC00
06381800
0E381800
0C381800
0C381800
1C3FF800
1C381800
2C000000
2C000C00
4CFFFE00
8C018000
0C018000
0C018300
0FFFFF80
0C034000
0C0E2000
0C0E2000
0C1C1000
0C381C00
0C600F80
0CC00700
0F000300
0F000300
ENDCHAR
STARTCHAR 4FE4
ENCODING 20452
SWIDTH 1000 0
DWIDTH 25 0
BBX 25 25 0 -4
BITMAP
04404000
07387000
061C6000
061C8C00
0FFFFE00
0C030C00
0C030C00
19030C00
19FFFC00
39830C00
39830000
59830300
99FFFF80
1B0F0300
1B1F0300
181F0300
183B0300
183B0700
18630600
18C33E00
19830C00
1E030800
18030000
18030000
18030000
ENDCHAR
STARTCHAR 4FE5
ENCODING 20453
SWIDTH 1000 0
DWIDTH 25 0
BBX 25 25 0 -4
BITMAP
04038000
07030000
06030600
07FFFF00
0E030000
0C830C00
0CFFFE00
1CC30C00
1CC30C00
3CC30C00
2CFFFC00
4CC30C00
8CC30C00
0CC30C00
0CFFFC00
0CC30C00
0C030000
0C030300
0FFFFF80
0C030000
0C030000
0C030000
0C030000
0C030000
0C030000
ENDCHAR
STARTCHAR 4FEE
ENCODING 20462
SWIDTH 1000 0
DWIDTH 25 0
BBX 25 25 0 -4
BITMAP
04020000
07038000
06030300
0E0FFF80
0DCE1800
0D9C3000
199A3000
19A16000
39C0C000
3981B000
59831F80
999C8700
19E0C100
19819000
19833A00
199C7380
1980C700
19818E00
180E1C00
18383000
18006000
18018000
180E0000
18780000
18780000
ENDCHAR
STARTCHAR 4FEF
ENCODING 20463
SWIDTH 1000 0
DWIDTH 25 0
BBX 25 25 0 -4
BITMAP
0801C000
0E018000
0D018300
0DFFFF80
0D8C0000
198F0E00
198E0C00
198E0C00
199C0D00
399FFF80
399D0C00
59BC8C00
99DCCC00
199C6C00
199C6C00
199C0C00
199C0C00
199C0C00
199C0C00
191C0C00
1B1C0C00
1A1C0C00
1C1C7C00
181C1800
181C1800
ENDCHAR
STARTCHAR 4FF3
ENCODING 20467
SWIDTH 1000 0
DWIDTH 25 0
BBX 25 25 0 -4
BITMAP
041EE000
071CC000
061CC000
061CC000
0E1CC600
0DFCFF00
0C1CC000
1C1CC000
1C1CC000
2C1CCC00
2DFCFE00
4C1CC000
8C1CC000
0C3CC000
0C5CC300
0FDCFF80
0D9CC000
0D1CC000
0C38C000
0C38C000
0C60C000
0CC0C000
0D80C000
0E00C000
0E00C000
ENDCHAR
STARTCHAR 4FF5
ENCODING 20469
SWIDTH 1000 0
DWIDTH 25 0
BBX 25 25 0 -4
BITMAP
0201C000
03818000
03018600
07FFFF00
06018000
06018C00
0C7FFE00
0C018000
1C018000
1C018300
2DFFFF80
4C0E8000
8C0E8600
0C1C4700
0C3C4C00
0C7C5000
0CDC2000
0F1C3000
0C1C5000
0C1D9800
0C1F0C00
0CFC0F80
0C780700
0C400300
0C400300
ENDCHAR
STARTCHAR 4FF6
ENCODING 20470
SWIDTH 1000 0
DWIDTH 25 0
BBX 25 25 0 -4
BITMAP
043C0000
07380000
06380600
0639FF00
0E3F4600
0C384600
0C384600
183B4600
1FFFCC00
38384C00
383C2C00
593A2C00
99FB2800
19B9B800
19B99800
19399000
1B383000
1A382800
1C386800
18384C00
1838C780
18388700
19F90300
186E0100
186E0100
ENDCHAR
STARTCHAR 4FF8
ENCODING 20472
SWIDTH 1000 0
DWIDTH 25 0
BBX 25 25 0 -4
BITMAP
04038000
07030000
06030600
07FFFF00
0C030000
0C0E8C00
0DFFFE00
1C0E8000
1C1C4300
2FFFFF80
2C382000
4C383000
8C639800
0C430F80
0C833700
0D7FFB00
0E030000
0C030000
0C030600
0DFFFF00
0C030000
0C030000
0C030000
0C030000
0C030000
ENDCHAR
STARTCHAR 4FFA
ENCODING 20474
SWIDTH 1000 0
DWIDTH 25 0
BBX 25 25 0 -4
BITMAP
02038000
03830000
03030000
06030300
07FFFF80
060E4000
0C1C2000
0C1DB000
1C399C00
1C618780
2CFFFF00
4F618D00
8C618C00
0C7FFC00
0C618C00
0C618C00
0C618C00
0C7FFC00
0C618C00
0C618100
0C018100
0C018180
0C01FF80
0C00FF00
0C00FF00
ENDCHAR
STARTCHAR 4FFE
ENCODING 20478
SWIDTH 1000 0
DWIDTH 25 0
BBX 25 25 0 -4
BITMAP
040C0000
070F0000
060E0000
06580C00
0E7FFE00
0C618C00
0C618C00
1C618C00
1C7FFC00
3C618C00
2C618C00
4C618C00
8C7FFC00
0C18CC00
0C1CC000
0C38C300
0FFFFF80
0C00C000
0C00C000
0C00C000
0C00C000
0C00C000
0C00C000
0C00C000
0C00C000
ENDCHAR
STARTCHAR 5005
ENCODING 20485
SWIDTH 1000 0
DWIDTH 25 0
BBX 25 25 0 -4
BITMAP
04038000
07030000
06030000
06030600
0FFFFF00
0C202000
0C3C3800
1C383000
1C383000
3C6C6C00
2C4E4600
4C8E8600
8D038000
0C030300
0FFFFF80
0C030000
0C030000
0C030000
0C030000
0C030000
0C030000
0C030000
0C030000
0C030000
0C030000
ENDCHAR
STARTCHAR 5006
ENCODING 20486
SWIDTH 1000 0
DWIDTH 25 0
BBX 25 25 0 -4
BITMAP
04000000
06000300
07FFFF80
0E018000
0C018000
0D018300
19FFFF80
19818300
19818300
39999300
39FDFB00
59999300
99999300
19B9B300
19ADAB00
19ADAB00
19CFCF00
198D8B00
19818300
19818300
19818300
19818300
19819F00
19800600
19800600
ENDCHAR
STARTCHAR 5009
ENCODING 20489
SWIDTH 1000 0
DWIDTH 25 0
BBX 25 25 0 -4
BITMAP
001C0000
003C0000
003A0000
00610000
00608000
00C16000
01FFB000
03001C00
06006F80
0BFFF700
33006100
C3006000
03FFE000
03006000
03006000
03FFE000
03000000
06803000
06FFF800
0CC03000
08C03000
10C03000
60FFF000
00C03000
00C03000
ENDCHAR
STARTCHAR 500B
ENCODING 20491
SWIDTH 1000 0
DWIDTH 25 0
BBX 25 25 0 -4
BITMAP
04800300
07FFFF80
06C00300
06C1C300
0CC18300
0CC18300
0CC19B00
18FFFF00
18C18300
38C18300
38C18300
58CDB300
98CFFB00
18CE3300
18CE3300
18CE3300
18CE3300
18CE3300
18CFF300
18CE3300
18C00300
18C00300
18FFFF00
18C00300
18C00300
ENDCHAR
STARTCHAR 500D
ENCODING 20493
SWIDTH 1000 0
DWIDTH 25 0
BBX 25 25 0 -4
BITMAP
0401C000
07018000
06018000
06018600
0EFFFF00
0C001000
0C401C00
1C381800
1C1C3000
2C1C4000
2C008300
4DFFFF80
8C000000
0C000000
0C201800
0C3FFC00
0C381800
0C381800
0C381800
0C381800
0C381800
0C3FF800
0C381800
0C381800
0C381800
ENDCHAR
STARTCHAR 500F
ENCODING 20495
SWIDTH 1000 0
DWIDTH 25 0
BBX 25 25 0 -4
BITMAP
04020000
07038000
06031800
0E0FFC00
0DCE1800
0D9D3000
19B96000
19C0C000
1981F000
39833F80
399C0F00
59E1F300
99819800
19819800
19818300
19FFFF80
1981C000
19834000
19832000
180E3000
180E1C00
181C0F80
18380700
18C00300
18C00300
ENDCHAR
STARTCHAR 5011
ENCODING 20497
SWIDTH 1000 0
DWIDTH 25 0
BBX 25 25 0 -4
BITMAP
08000000
0F0E4300
0DFF7F80
0D8E6300
0D8E6300
19FE7F00
198E6300
198E6300
19FE7F00
398E6300
39800300
59800300
99800300
19800300
19800300
19800300
19800300
19800300
19800300
19800300
19800300
19800300
19801F00
19800600
19800600
ENDCHAR
STARTCHAR 5012
ENCODING 20498
SWIDTH 1000 0
DWIDTH 25 0
BBX 25 25 0 -4
BITMAP
08000380
0E018300
0DFFC300
0C383B00
0C383300
182C3300
18433300
1BFFB300
39E1B300
39003300
583C3300
98383300
183B3300
1BFFB300
18383300
18383300
18380300
18398300
183E0300
1BF80300
19C00300
19000300
18001F00
18000600
18000600
ENDCHAR
STARTCHAR 5014
ENCODING 20500
SWIDTH 1000 0
DWIDTH 25 0
BBX 24 25 0 -4
BITMAP
040000
07800C
06FFFE
06C00C
0CC00C
0CC00C
0CFFFC
18C00C
18C0E0
38DECE
38DCCC
58DCCC
98DCCC
18DCCC
18DFFC
18DCCC
1980C0
19BCC7
1938C6
1B38C6
1A38C6
1C38C6
183FFE
183806
183806
ENDCHAR
STARTCHAR 5016
ENCODING 20502
SWIDTH 1000 0
DWIDTH 25 0
BBX 25 25 0 -4
BITMAP
0401C000
07018000
06018000
06018600
0CFFFF00
0C018000
0C018000
1C018300
1DFFFF80
2C201000
2C1C1C00
4C0E3800
8C0E2300
0DFFFF80
0C018000
0C018000
0C018000
0C018600
0CFFFF00
0C018000
0C018000
0C018000
0C018000
0C018000
0C018000
ENDCHAR
STARTCHAR 5019
ENCODING 20505
SWIDTH 1000 0
DWIDTH 25 0
BBX 25 25 0 -4
BITMAP
08001800
0E1FFC00
0C001800
0DC01800
0D801B00
19FFFF80
198C0000
198F0000
398E0C00
398FFE00
598EC000
999CC000
1998C000
19A0C300
19FFFF80
1981A000
1981A000
19831000
19831000
180E1800
181C0C00
18380F80
18600700
19800300
19800300
ENDCHAR
STARTCHAR 501A
ENCODING 20506
SWIDTH 1000 0
DWIDTH 25 0
BBX 25 25 0 -4
BITMAP
04038000
07030000
06030C00
07FFFE00
0E0E8000
0C0E6000
0C1C3800
1C381C00
1CC00C00
2C000300
2FFFFF80
4C001800
8C001800
0C831800
0CFF9800
0CC31800
0CC31800
0CC31800
0CFF1800
0CC31800
0C001800
0C001800
0C00F800
0C003000
0C003000
ENDCHAR
STARTCHAR 501F
ENCODING 20511
SWIDTH 1000 0
DWIDTH 25 0
BBX 25 25 0 -4
BITMAP
041E7000
071C6000
061C6000
061C6600
0DFFFF00
0C1C6000
0C1C6000
1C1C6000
1C1C6300
2FFFFF80
2C000000
4C000000
8C201800
0C3FFC00
0C381800
0C381800
0C381800
0C3FF800
0C381800
0C381800
0C381800
0C381800
0C3FF800
0C381800
0C381800
ENDCHAR
STARTCHAR 5021
ENCODING 20513
SWIDTH 1000 0
DWIDTH 25 0
BBX 24 25 0 -4
BITMAP
020000
03A018
033FFC
073818
063818
063818
0C3FF8
0C3818
1C3818
1C3818
2C3FF8
4C3818
8C0000
0C8006
0CFFFF
0CC006
0CC006
0CC006
0CFFFE
0CC006
0CC006
0CC006
0CFFFE
0CC006
0CC006
ENDCHAR
STARTCHAR 5023
ENCODING 20515
SWIDTH 1000 0
DWIDTH 25 0
BBX 25 25 0 -4
BITMAP
08E04000
0EC07000
0CC06000
0CC06000
0CCE6300
1FFF7F80
18C0CC00
18C0CC00
38CE8C00
38FF4C00
58CE4C00
58CE5800
98CE5800
18CE5800
18CE5800
18CE3000
198E3000
198E6800
198E6800
191C4C00
1B1CC600
1AFC8780
1C790300
186E0300
186E0300
ENDCHAR
STARTCHAR 5024
ENCODING 20516
SWIDTH 1000 0
DWIDTH 25 0
BBX 25 25 0 -4
BITMAP
0400E000
0700C000
0600C300
06FFFF80
0E00C000
0C00C000
0C18CC00
181FFE00
19DC0C00
399C0C00
399FFC00
599C0C00
999C0C00
199C0C00
199FFC00
199C0C00
199C0C00
199C0C00
199FFC00
199C0C00
19800000
19800300
19FFFF80
19800000
19800000
ENDCHAR
STARTCHAR 5025
ENCODING 20517
SWIDTH 1000 0
DWIDTH 25 0
BBX 25 25 0 -4
BITMAP
04038000
07030000
06830000
06830300
0CFFFF80
0D9CC300
0D9CC200
1D9CC400
1C38C000
2C38C000
2C60FF00
4CC07F00
8F000000
0C000000
0C000C00
0CFFFE00
0C030000
0C030000
0C030000
0C030000
0C030000
0C030300
0FFFFF80
0C000000
0C000000
ENDCHAR
ENDFONT
